%TF.GenerationSoftware,KiCad,Pcbnew,10.0.5*%
%TF.CreationDate,2026-09-01T15:17:20-04:00*%
%TF.ProjectId,pcb,7063622e-6b69-4636-9164-5f7063625858,rev?*%
%TF.SameCoordinates,Original*%
%TF.FileFunction,Drillmap*%
%TF.FilePolarity,Positive*%
%FSLAX45Y45*%
G04 Gerber Fmt 4.5, Leading zero omitted, Abs format (unit mm)*
G04 Created by KiCad (PCBNEW 10.0.5) date 2026-09-01 15:17:20*
%MOMM*%
%LPD*%
G01*
G04 APERTURE LIST*
%ADD10C,0.100000*%
%ADD11C,0.200000*%
%ADD12C,0.300000*%
%ADD13C,0.320000*%
G04 APERTURE END LIST*
D10*
X7800000Y-2900000D02*
X14800000Y-2900000D01*
X7800000Y-8900000D02*
X7800000Y-2900000D01*
X14800000Y-2900000D02*
X14800000Y-8900000D01*
X14800000Y-8900000D02*
X7800000Y-8900000D01*
D11*
D12*
X8822000Y-3802500D02*
X9122000Y-4102500D01*
X9122000Y-3802500D02*
X8822000Y-4102500D01*
X8822000Y-8497500D02*
X9122000Y-8797500D01*
X9122000Y-8497500D02*
X8822000Y-8797500D01*
X11273000Y-3802500D02*
X11573000Y-4102500D01*
X11573000Y-3802500D02*
X11273000Y-4102500D01*
X11273000Y-8497500D02*
X11573000Y-8797500D01*
X11573000Y-8497500D02*
X11273000Y-8797500D01*
D13*
X8460000Y-3450000D02*
G75*
G02*
X8140000Y-3450000I-160000J0D01*
G01*
X8140000Y-3450000D02*
G75*
G02*
X8460000Y-3450000I160000J0D01*
G01*
X8460000Y-8600000D02*
G75*
G02*
X8140000Y-8600000I-160000J0D01*
G01*
X8140000Y-8600000D02*
G75*
G02*
X8460000Y-8600000I160000J0D01*
G01*
X14103000Y-6294000D02*
G75*
G02*
X13783000Y-6294000I-160000J0D01*
G01*
X13783000Y-6294000D02*
G75*
G02*
X14103000Y-6294000I160000J0D01*
G01*
X14103000Y-7906000D02*
G75*
G02*
X13783000Y-7906000I-160000J0D01*
G01*
X13783000Y-7906000D02*
G75*
G02*
X14103000Y-7906000I160000J0D01*
G01*
X14610000Y-3250000D02*
G75*
G02*
X14290000Y-3250000I-160000J0D01*
G01*
X14290000Y-3250000D02*
G75*
G02*
X14610000Y-3250000I160000J0D01*
G01*
X14610000Y-8600000D02*
G75*
G02*
X14290000Y-8600000I-160000J0D01*
G01*
X14290000Y-8600000D02*
G75*
G02*
X14610000Y-8600000I160000J0D01*
G01*
D11*
X8055777Y-9216484D02*
X8055777Y-9016484D01*
X8055777Y-9016484D02*
X8103396Y-9016484D01*
X8103396Y-9016484D02*
X8131967Y-9026008D01*
X8131967Y-9026008D02*
X8151015Y-9045055D01*
X8151015Y-9045055D02*
X8160539Y-9064103D01*
X8160539Y-9064103D02*
X8170062Y-9102198D01*
X8170062Y-9102198D02*
X8170062Y-9130770D01*
X8170062Y-9130770D02*
X8160539Y-9168865D01*
X8160539Y-9168865D02*
X8151015Y-9187912D01*
X8151015Y-9187912D02*
X8131967Y-9206960D01*
X8131967Y-9206960D02*
X8103396Y-9216484D01*
X8103396Y-9216484D02*
X8055777Y-9216484D01*
X8255777Y-9216484D02*
X8255777Y-9083150D01*
X8255777Y-9121246D02*
X8265301Y-9102198D01*
X8265301Y-9102198D02*
X8274824Y-9092674D01*
X8274824Y-9092674D02*
X8293872Y-9083150D01*
X8293872Y-9083150D02*
X8312920Y-9083150D01*
X8379586Y-9216484D02*
X8379586Y-9083150D01*
X8379586Y-9016484D02*
X8370062Y-9026008D01*
X8370062Y-9026008D02*
X8379586Y-9035531D01*
X8379586Y-9035531D02*
X8389110Y-9026008D01*
X8389110Y-9026008D02*
X8379586Y-9016484D01*
X8379586Y-9016484D02*
X8379586Y-9035531D01*
X8503396Y-9216484D02*
X8484348Y-9206960D01*
X8484348Y-9206960D02*
X8474824Y-9187912D01*
X8474824Y-9187912D02*
X8474824Y-9016484D01*
X8608158Y-9216484D02*
X8589110Y-9206960D01*
X8589110Y-9206960D02*
X8579586Y-9187912D01*
X8579586Y-9187912D02*
X8579586Y-9016484D01*
X8836729Y-9216484D02*
X8836729Y-9016484D01*
X8836729Y-9016484D02*
X8903396Y-9159341D01*
X8903396Y-9159341D02*
X8970063Y-9016484D01*
X8970063Y-9016484D02*
X8970063Y-9216484D01*
X9151015Y-9216484D02*
X9151015Y-9111722D01*
X9151015Y-9111722D02*
X9141491Y-9092674D01*
X9141491Y-9092674D02*
X9122444Y-9083150D01*
X9122444Y-9083150D02*
X9084348Y-9083150D01*
X9084348Y-9083150D02*
X9065301Y-9092674D01*
X9151015Y-9206960D02*
X9131967Y-9216484D01*
X9131967Y-9216484D02*
X9084348Y-9216484D01*
X9084348Y-9216484D02*
X9065301Y-9206960D01*
X9065301Y-9206960D02*
X9055777Y-9187912D01*
X9055777Y-9187912D02*
X9055777Y-9168865D01*
X9055777Y-9168865D02*
X9065301Y-9149817D01*
X9065301Y-9149817D02*
X9084348Y-9140293D01*
X9084348Y-9140293D02*
X9131967Y-9140293D01*
X9131967Y-9140293D02*
X9151015Y-9130770D01*
X9246253Y-9083150D02*
X9246253Y-9283150D01*
X9246253Y-9092674D02*
X9265301Y-9083150D01*
X9265301Y-9083150D02*
X9303396Y-9083150D01*
X9303396Y-9083150D02*
X9322444Y-9092674D01*
X9322444Y-9092674D02*
X9331967Y-9102198D01*
X9331967Y-9102198D02*
X9341491Y-9121246D01*
X9341491Y-9121246D02*
X9341491Y-9178389D01*
X9341491Y-9178389D02*
X9331967Y-9197436D01*
X9331967Y-9197436D02*
X9322444Y-9206960D01*
X9322444Y-9206960D02*
X9303396Y-9216484D01*
X9303396Y-9216484D02*
X9265301Y-9216484D01*
X9265301Y-9216484D02*
X9246253Y-9206960D01*
X9427205Y-9197436D02*
X9436729Y-9206960D01*
X9436729Y-9206960D02*
X9427205Y-9216484D01*
X9427205Y-9216484D02*
X9417682Y-9206960D01*
X9417682Y-9206960D02*
X9427205Y-9197436D01*
X9427205Y-9197436D02*
X9427205Y-9216484D01*
X9427205Y-9092674D02*
X9436729Y-9102198D01*
X9436729Y-9102198D02*
X9427205Y-9111722D01*
X9427205Y-9111722D02*
X9417682Y-9102198D01*
X9417682Y-9102198D02*
X9427205Y-9092674D01*
X9427205Y-9092674D02*
X9427205Y-9111722D01*
X7595000Y-9445000D02*
X7795000Y-9645000D01*
X7795000Y-9445000D02*
X7595000Y-9645000D01*
X8036729Y-9436484D02*
X8160539Y-9436484D01*
X8160539Y-9436484D02*
X8093872Y-9512674D01*
X8093872Y-9512674D02*
X8122443Y-9512674D01*
X8122443Y-9512674D02*
X8141491Y-9522198D01*
X8141491Y-9522198D02*
X8151015Y-9531722D01*
X8151015Y-9531722D02*
X8160539Y-9550770D01*
X8160539Y-9550770D02*
X8160539Y-9598389D01*
X8160539Y-9598389D02*
X8151015Y-9617436D01*
X8151015Y-9617436D02*
X8141491Y-9626960D01*
X8141491Y-9626960D02*
X8122443Y-9636484D01*
X8122443Y-9636484D02*
X8065301Y-9636484D01*
X8065301Y-9636484D02*
X8046253Y-9626960D01*
X8046253Y-9626960D02*
X8036729Y-9617436D01*
X8246253Y-9617436D02*
X8255777Y-9626960D01*
X8255777Y-9626960D02*
X8246253Y-9636484D01*
X8246253Y-9636484D02*
X8236729Y-9626960D01*
X8236729Y-9626960D02*
X8246253Y-9617436D01*
X8246253Y-9617436D02*
X8246253Y-9636484D01*
X8379586Y-9436484D02*
X8398634Y-9436484D01*
X8398634Y-9436484D02*
X8417682Y-9446008D01*
X8417682Y-9446008D02*
X8427205Y-9455531D01*
X8427205Y-9455531D02*
X8436729Y-9474579D01*
X8436729Y-9474579D02*
X8446253Y-9512674D01*
X8446253Y-9512674D02*
X8446253Y-9560293D01*
X8446253Y-9560293D02*
X8436729Y-9598389D01*
X8436729Y-9598389D02*
X8427205Y-9617436D01*
X8427205Y-9617436D02*
X8417682Y-9626960D01*
X8417682Y-9626960D02*
X8398634Y-9636484D01*
X8398634Y-9636484D02*
X8379586Y-9636484D01*
X8379586Y-9636484D02*
X8360539Y-9626960D01*
X8360539Y-9626960D02*
X8351015Y-9617436D01*
X8351015Y-9617436D02*
X8341491Y-9598389D01*
X8341491Y-9598389D02*
X8331967Y-9560293D01*
X8331967Y-9560293D02*
X8331967Y-9512674D01*
X8331967Y-9512674D02*
X8341491Y-9474579D01*
X8341491Y-9474579D02*
X8351015Y-9455531D01*
X8351015Y-9455531D02*
X8360539Y-9446008D01*
X8360539Y-9446008D02*
X8379586Y-9436484D01*
X8570063Y-9436484D02*
X8589110Y-9436484D01*
X8589110Y-9436484D02*
X8608158Y-9446008D01*
X8608158Y-9446008D02*
X8617682Y-9455531D01*
X8617682Y-9455531D02*
X8627205Y-9474579D01*
X8627205Y-9474579D02*
X8636729Y-9512674D01*
X8636729Y-9512674D02*
X8636729Y-9560293D01*
X8636729Y-9560293D02*
X8627205Y-9598389D01*
X8627205Y-9598389D02*
X8617682Y-9617436D01*
X8617682Y-9617436D02*
X8608158Y-9626960D01*
X8608158Y-9626960D02*
X8589110Y-9636484D01*
X8589110Y-9636484D02*
X8570063Y-9636484D01*
X8570063Y-9636484D02*
X8551015Y-9626960D01*
X8551015Y-9626960D02*
X8541491Y-9617436D01*
X8541491Y-9617436D02*
X8531967Y-9598389D01*
X8531967Y-9598389D02*
X8522444Y-9560293D01*
X8522444Y-9560293D02*
X8522444Y-9512674D01*
X8522444Y-9512674D02*
X8531967Y-9474579D01*
X8531967Y-9474579D02*
X8541491Y-9455531D01*
X8541491Y-9455531D02*
X8551015Y-9446008D01*
X8551015Y-9446008D02*
X8570063Y-9436484D01*
X8760539Y-9436484D02*
X8779586Y-9436484D01*
X8779586Y-9436484D02*
X8798634Y-9446008D01*
X8798634Y-9446008D02*
X8808158Y-9455531D01*
X8808158Y-9455531D02*
X8817682Y-9474579D01*
X8817682Y-9474579D02*
X8827205Y-9512674D01*
X8827205Y-9512674D02*
X8827205Y-9560293D01*
X8827205Y-9560293D02*
X8817682Y-9598389D01*
X8817682Y-9598389D02*
X8808158Y-9617436D01*
X8808158Y-9617436D02*
X8798634Y-9626960D01*
X8798634Y-9626960D02*
X8779586Y-9636484D01*
X8779586Y-9636484D02*
X8760539Y-9636484D01*
X8760539Y-9636484D02*
X8741491Y-9626960D01*
X8741491Y-9626960D02*
X8731967Y-9617436D01*
X8731967Y-9617436D02*
X8722444Y-9598389D01*
X8722444Y-9598389D02*
X8712920Y-9560293D01*
X8712920Y-9560293D02*
X8712920Y-9512674D01*
X8712920Y-9512674D02*
X8722444Y-9474579D01*
X8722444Y-9474579D02*
X8731967Y-9455531D01*
X8731967Y-9455531D02*
X8741491Y-9446008D01*
X8741491Y-9446008D02*
X8760539Y-9436484D01*
X8912920Y-9636484D02*
X8912920Y-9503150D01*
X8912920Y-9522198D02*
X8922444Y-9512674D01*
X8922444Y-9512674D02*
X8941491Y-9503150D01*
X8941491Y-9503150D02*
X8970063Y-9503150D01*
X8970063Y-9503150D02*
X8989110Y-9512674D01*
X8989110Y-9512674D02*
X8998634Y-9531722D01*
X8998634Y-9531722D02*
X8998634Y-9636484D01*
X8998634Y-9531722D02*
X9008158Y-9512674D01*
X9008158Y-9512674D02*
X9027205Y-9503150D01*
X9027205Y-9503150D02*
X9055777Y-9503150D01*
X9055777Y-9503150D02*
X9074825Y-9512674D01*
X9074825Y-9512674D02*
X9084348Y-9531722D01*
X9084348Y-9531722D02*
X9084348Y-9636484D01*
X9179586Y-9636484D02*
X9179586Y-9503150D01*
X9179586Y-9522198D02*
X9189110Y-9512674D01*
X9189110Y-9512674D02*
X9208158Y-9503150D01*
X9208158Y-9503150D02*
X9236729Y-9503150D01*
X9236729Y-9503150D02*
X9255777Y-9512674D01*
X9255777Y-9512674D02*
X9265301Y-9531722D01*
X9265301Y-9531722D02*
X9265301Y-9636484D01*
X9265301Y-9531722D02*
X9274825Y-9512674D01*
X9274825Y-9512674D02*
X9293872Y-9503150D01*
X9293872Y-9503150D02*
X9322444Y-9503150D01*
X9322444Y-9503150D02*
X9341491Y-9512674D01*
X9341491Y-9512674D02*
X9351015Y-9531722D01*
X9351015Y-9531722D02*
X9351015Y-9636484D01*
X9741491Y-9426960D02*
X9570063Y-9684103D01*
X9998634Y-9436484D02*
X10017682Y-9436484D01*
X10017682Y-9436484D02*
X10036729Y-9446008D01*
X10036729Y-9446008D02*
X10046253Y-9455531D01*
X10046253Y-9455531D02*
X10055777Y-9474579D01*
X10055777Y-9474579D02*
X10065301Y-9512674D01*
X10065301Y-9512674D02*
X10065301Y-9560293D01*
X10065301Y-9560293D02*
X10055777Y-9598389D01*
X10055777Y-9598389D02*
X10046253Y-9617436D01*
X10046253Y-9617436D02*
X10036729Y-9626960D01*
X10036729Y-9626960D02*
X10017682Y-9636484D01*
X10017682Y-9636484D02*
X9998634Y-9636484D01*
X9998634Y-9636484D02*
X9979587Y-9626960D01*
X9979587Y-9626960D02*
X9970063Y-9617436D01*
X9970063Y-9617436D02*
X9960539Y-9598389D01*
X9960539Y-9598389D02*
X9951015Y-9560293D01*
X9951015Y-9560293D02*
X9951015Y-9512674D01*
X9951015Y-9512674D02*
X9960539Y-9474579D01*
X9960539Y-9474579D02*
X9970063Y-9455531D01*
X9970063Y-9455531D02*
X9979587Y-9446008D01*
X9979587Y-9446008D02*
X9998634Y-9436484D01*
X10151015Y-9617436D02*
X10160539Y-9626960D01*
X10160539Y-9626960D02*
X10151015Y-9636484D01*
X10151015Y-9636484D02*
X10141491Y-9626960D01*
X10141491Y-9626960D02*
X10151015Y-9617436D01*
X10151015Y-9617436D02*
X10151015Y-9636484D01*
X10351015Y-9636484D02*
X10236729Y-9636484D01*
X10293872Y-9636484D02*
X10293872Y-9436484D01*
X10293872Y-9436484D02*
X10274825Y-9465055D01*
X10274825Y-9465055D02*
X10255777Y-9484103D01*
X10255777Y-9484103D02*
X10236729Y-9493627D01*
X10541491Y-9636484D02*
X10427206Y-9636484D01*
X10484348Y-9636484D02*
X10484348Y-9436484D01*
X10484348Y-9436484D02*
X10465301Y-9465055D01*
X10465301Y-9465055D02*
X10446253Y-9484103D01*
X10446253Y-9484103D02*
X10427206Y-9493627D01*
X10655777Y-9522198D02*
X10636729Y-9512674D01*
X10636729Y-9512674D02*
X10627206Y-9503150D01*
X10627206Y-9503150D02*
X10617682Y-9484103D01*
X10617682Y-9484103D02*
X10617682Y-9474579D01*
X10617682Y-9474579D02*
X10627206Y-9455531D01*
X10627206Y-9455531D02*
X10636729Y-9446008D01*
X10636729Y-9446008D02*
X10655777Y-9436484D01*
X10655777Y-9436484D02*
X10693872Y-9436484D01*
X10693872Y-9436484D02*
X10712920Y-9446008D01*
X10712920Y-9446008D02*
X10722444Y-9455531D01*
X10722444Y-9455531D02*
X10731968Y-9474579D01*
X10731968Y-9474579D02*
X10731968Y-9484103D01*
X10731968Y-9484103D02*
X10722444Y-9503150D01*
X10722444Y-9503150D02*
X10712920Y-9512674D01*
X10712920Y-9512674D02*
X10693872Y-9522198D01*
X10693872Y-9522198D02*
X10655777Y-9522198D01*
X10655777Y-9522198D02*
X10636729Y-9531722D01*
X10636729Y-9531722D02*
X10627206Y-9541246D01*
X10627206Y-9541246D02*
X10617682Y-9560293D01*
X10617682Y-9560293D02*
X10617682Y-9598389D01*
X10617682Y-9598389D02*
X10627206Y-9617436D01*
X10627206Y-9617436D02*
X10636729Y-9626960D01*
X10636729Y-9626960D02*
X10655777Y-9636484D01*
X10655777Y-9636484D02*
X10693872Y-9636484D01*
X10693872Y-9636484D02*
X10712920Y-9626960D01*
X10712920Y-9626960D02*
X10722444Y-9617436D01*
X10722444Y-9617436D02*
X10731968Y-9598389D01*
X10731968Y-9598389D02*
X10731968Y-9560293D01*
X10731968Y-9560293D02*
X10722444Y-9541246D01*
X10722444Y-9541246D02*
X10712920Y-9531722D01*
X10712920Y-9531722D02*
X10693872Y-9522198D01*
X10922444Y-9636484D02*
X10808158Y-9636484D01*
X10865301Y-9636484D02*
X10865301Y-9436484D01*
X10865301Y-9436484D02*
X10846253Y-9465055D01*
X10846253Y-9465055D02*
X10827206Y-9484103D01*
X10827206Y-9484103D02*
X10808158Y-9493627D01*
X10998634Y-9436484D02*
X10998634Y-9474579D01*
X11074825Y-9436484D02*
X11074825Y-9474579D01*
X11370063Y-9712674D02*
X11360539Y-9703150D01*
X11360539Y-9703150D02*
X11341491Y-9674579D01*
X11341491Y-9674579D02*
X11331968Y-9655531D01*
X11331968Y-9655531D02*
X11322444Y-9626960D01*
X11322444Y-9626960D02*
X11312920Y-9579341D01*
X11312920Y-9579341D02*
X11312920Y-9541246D01*
X11312920Y-9541246D02*
X11322444Y-9493627D01*
X11322444Y-9493627D02*
X11331968Y-9465055D01*
X11331968Y-9465055D02*
X11341491Y-9446008D01*
X11341491Y-9446008D02*
X11360539Y-9417436D01*
X11360539Y-9417436D02*
X11370063Y-9407912D01*
X11531968Y-9503150D02*
X11531968Y-9636484D01*
X11484348Y-9426960D02*
X11436729Y-9569817D01*
X11436729Y-9569817D02*
X11560539Y-9569817D01*
X11789110Y-9636484D02*
X11789110Y-9436484D01*
X11874825Y-9636484D02*
X11874825Y-9531722D01*
X11874825Y-9531722D02*
X11865301Y-9512674D01*
X11865301Y-9512674D02*
X11846253Y-9503150D01*
X11846253Y-9503150D02*
X11817682Y-9503150D01*
X11817682Y-9503150D02*
X11798634Y-9512674D01*
X11798634Y-9512674D02*
X11789110Y-9522198D01*
X11998634Y-9636484D02*
X11979587Y-9626960D01*
X11979587Y-9626960D02*
X11970063Y-9617436D01*
X11970063Y-9617436D02*
X11960539Y-9598389D01*
X11960539Y-9598389D02*
X11960539Y-9541246D01*
X11960539Y-9541246D02*
X11970063Y-9522198D01*
X11970063Y-9522198D02*
X11979587Y-9512674D01*
X11979587Y-9512674D02*
X11998634Y-9503150D01*
X11998634Y-9503150D02*
X12027206Y-9503150D01*
X12027206Y-9503150D02*
X12046253Y-9512674D01*
X12046253Y-9512674D02*
X12055777Y-9522198D01*
X12055777Y-9522198D02*
X12065301Y-9541246D01*
X12065301Y-9541246D02*
X12065301Y-9598389D01*
X12065301Y-9598389D02*
X12055777Y-9617436D01*
X12055777Y-9617436D02*
X12046253Y-9626960D01*
X12046253Y-9626960D02*
X12027206Y-9636484D01*
X12027206Y-9636484D02*
X11998634Y-9636484D01*
X12179587Y-9636484D02*
X12160539Y-9626960D01*
X12160539Y-9626960D02*
X12151015Y-9607912D01*
X12151015Y-9607912D02*
X12151015Y-9436484D01*
X12331968Y-9626960D02*
X12312920Y-9636484D01*
X12312920Y-9636484D02*
X12274825Y-9636484D01*
X12274825Y-9636484D02*
X12255777Y-9626960D01*
X12255777Y-9626960D02*
X12246253Y-9607912D01*
X12246253Y-9607912D02*
X12246253Y-9531722D01*
X12246253Y-9531722D02*
X12255777Y-9512674D01*
X12255777Y-9512674D02*
X12274825Y-9503150D01*
X12274825Y-9503150D02*
X12312920Y-9503150D01*
X12312920Y-9503150D02*
X12331968Y-9512674D01*
X12331968Y-9512674D02*
X12341491Y-9531722D01*
X12341491Y-9531722D02*
X12341491Y-9550770D01*
X12341491Y-9550770D02*
X12246253Y-9569817D01*
X12417682Y-9626960D02*
X12436730Y-9636484D01*
X12436730Y-9636484D02*
X12474825Y-9636484D01*
X12474825Y-9636484D02*
X12493872Y-9626960D01*
X12493872Y-9626960D02*
X12503396Y-9607912D01*
X12503396Y-9607912D02*
X12503396Y-9598389D01*
X12503396Y-9598389D02*
X12493872Y-9579341D01*
X12493872Y-9579341D02*
X12474825Y-9569817D01*
X12474825Y-9569817D02*
X12446253Y-9569817D01*
X12446253Y-9569817D02*
X12427206Y-9560293D01*
X12427206Y-9560293D02*
X12417682Y-9541246D01*
X12417682Y-9541246D02*
X12417682Y-9531722D01*
X12417682Y-9531722D02*
X12427206Y-9512674D01*
X12427206Y-9512674D02*
X12446253Y-9503150D01*
X12446253Y-9503150D02*
X12474825Y-9503150D01*
X12474825Y-9503150D02*
X12493872Y-9512674D01*
X12570063Y-9712674D02*
X12579587Y-9703150D01*
X12579587Y-9703150D02*
X12598634Y-9674579D01*
X12598634Y-9674579D02*
X12608158Y-9655531D01*
X12608158Y-9655531D02*
X12617682Y-9626960D01*
X12617682Y-9626960D02*
X12627206Y-9579341D01*
X12627206Y-9579341D02*
X12627206Y-9541246D01*
X12627206Y-9541246D02*
X12617682Y-9493627D01*
X12617682Y-9493627D02*
X12608158Y-9465055D01*
X12608158Y-9465055D02*
X12598634Y-9446008D01*
X12598634Y-9446008D02*
X12579587Y-9417436D01*
X12579587Y-9417436D02*
X12570063Y-9407912D01*
X12931968Y-9712674D02*
X12922444Y-9703150D01*
X12922444Y-9703150D02*
X12903396Y-9674579D01*
X12903396Y-9674579D02*
X12893872Y-9655531D01*
X12893872Y-9655531D02*
X12884349Y-9626960D01*
X12884349Y-9626960D02*
X12874825Y-9579341D01*
X12874825Y-9579341D02*
X12874825Y-9541246D01*
X12874825Y-9541246D02*
X12884349Y-9493627D01*
X12884349Y-9493627D02*
X12893872Y-9465055D01*
X12893872Y-9465055D02*
X12903396Y-9446008D01*
X12903396Y-9446008D02*
X12922444Y-9417436D01*
X12922444Y-9417436D02*
X12931968Y-9407912D01*
X13008158Y-9503150D02*
X13008158Y-9636484D01*
X13008158Y-9522198D02*
X13017682Y-9512674D01*
X13017682Y-9512674D02*
X13036730Y-9503150D01*
X13036730Y-9503150D02*
X13065301Y-9503150D01*
X13065301Y-9503150D02*
X13084349Y-9512674D01*
X13084349Y-9512674D02*
X13093872Y-9531722D01*
X13093872Y-9531722D02*
X13093872Y-9636484D01*
X13217682Y-9636484D02*
X13198634Y-9626960D01*
X13198634Y-9626960D02*
X13189111Y-9617436D01*
X13189111Y-9617436D02*
X13179587Y-9598389D01*
X13179587Y-9598389D02*
X13179587Y-9541246D01*
X13179587Y-9541246D02*
X13189111Y-9522198D01*
X13189111Y-9522198D02*
X13198634Y-9512674D01*
X13198634Y-9512674D02*
X13217682Y-9503150D01*
X13217682Y-9503150D02*
X13246253Y-9503150D01*
X13246253Y-9503150D02*
X13265301Y-9512674D01*
X13265301Y-9512674D02*
X13274825Y-9522198D01*
X13274825Y-9522198D02*
X13284349Y-9541246D01*
X13284349Y-9541246D02*
X13284349Y-9598389D01*
X13284349Y-9598389D02*
X13274825Y-9617436D01*
X13274825Y-9617436D02*
X13265301Y-9626960D01*
X13265301Y-9626960D02*
X13246253Y-9636484D01*
X13246253Y-9636484D02*
X13217682Y-9636484D01*
X13341492Y-9503150D02*
X13417682Y-9503150D01*
X13370063Y-9436484D02*
X13370063Y-9607912D01*
X13370063Y-9607912D02*
X13379587Y-9626960D01*
X13379587Y-9626960D02*
X13398634Y-9636484D01*
X13398634Y-9636484D02*
X13417682Y-9636484D01*
X13636730Y-9503150D02*
X13636730Y-9703150D01*
X13636730Y-9512674D02*
X13655777Y-9503150D01*
X13655777Y-9503150D02*
X13693873Y-9503150D01*
X13693873Y-9503150D02*
X13712920Y-9512674D01*
X13712920Y-9512674D02*
X13722444Y-9522198D01*
X13722444Y-9522198D02*
X13731968Y-9541246D01*
X13731968Y-9541246D02*
X13731968Y-9598389D01*
X13731968Y-9598389D02*
X13722444Y-9617436D01*
X13722444Y-9617436D02*
X13712920Y-9626960D01*
X13712920Y-9626960D02*
X13693873Y-9636484D01*
X13693873Y-9636484D02*
X13655777Y-9636484D01*
X13655777Y-9636484D02*
X13636730Y-9626960D01*
X13846253Y-9636484D02*
X13827206Y-9626960D01*
X13827206Y-9626960D02*
X13817682Y-9607912D01*
X13817682Y-9607912D02*
X13817682Y-9436484D01*
X14008158Y-9636484D02*
X14008158Y-9531722D01*
X14008158Y-9531722D02*
X13998634Y-9512674D01*
X13998634Y-9512674D02*
X13979587Y-9503150D01*
X13979587Y-9503150D02*
X13941492Y-9503150D01*
X13941492Y-9503150D02*
X13922444Y-9512674D01*
X14008158Y-9626960D02*
X13989111Y-9636484D01*
X13989111Y-9636484D02*
X13941492Y-9636484D01*
X13941492Y-9636484D02*
X13922444Y-9626960D01*
X13922444Y-9626960D02*
X13912920Y-9607912D01*
X13912920Y-9607912D02*
X13912920Y-9588865D01*
X13912920Y-9588865D02*
X13922444Y-9569817D01*
X13922444Y-9569817D02*
X13941492Y-9560293D01*
X13941492Y-9560293D02*
X13989111Y-9560293D01*
X13989111Y-9560293D02*
X14008158Y-9550770D01*
X14074825Y-9503150D02*
X14151015Y-9503150D01*
X14103396Y-9436484D02*
X14103396Y-9607912D01*
X14103396Y-9607912D02*
X14112920Y-9626960D01*
X14112920Y-9626960D02*
X14131968Y-9636484D01*
X14131968Y-9636484D02*
X14151015Y-9636484D01*
X14293873Y-9626960D02*
X14274825Y-9636484D01*
X14274825Y-9636484D02*
X14236730Y-9636484D01*
X14236730Y-9636484D02*
X14217682Y-9626960D01*
X14217682Y-9626960D02*
X14208158Y-9607912D01*
X14208158Y-9607912D02*
X14208158Y-9531722D01*
X14208158Y-9531722D02*
X14217682Y-9512674D01*
X14217682Y-9512674D02*
X14236730Y-9503150D01*
X14236730Y-9503150D02*
X14274825Y-9503150D01*
X14274825Y-9503150D02*
X14293873Y-9512674D01*
X14293873Y-9512674D02*
X14303396Y-9531722D01*
X14303396Y-9531722D02*
X14303396Y-9550770D01*
X14303396Y-9550770D02*
X14208158Y-9569817D01*
X14474825Y-9636484D02*
X14474825Y-9436484D01*
X14474825Y-9626960D02*
X14455777Y-9636484D01*
X14455777Y-9636484D02*
X14417682Y-9636484D01*
X14417682Y-9636484D02*
X14398634Y-9626960D01*
X14398634Y-9626960D02*
X14389111Y-9617436D01*
X14389111Y-9617436D02*
X14379587Y-9598389D01*
X14379587Y-9598389D02*
X14379587Y-9541246D01*
X14379587Y-9541246D02*
X14389111Y-9522198D01*
X14389111Y-9522198D02*
X14398634Y-9512674D01*
X14398634Y-9512674D02*
X14417682Y-9503150D01*
X14417682Y-9503150D02*
X14455777Y-9503150D01*
X14455777Y-9503150D02*
X14474825Y-9512674D01*
X14551015Y-9712674D02*
X14560539Y-9703150D01*
X14560539Y-9703150D02*
X14579587Y-9674579D01*
X14579587Y-9674579D02*
X14589111Y-9655531D01*
X14589111Y-9655531D02*
X14598634Y-9626960D01*
X14598634Y-9626960D02*
X14608158Y-9579341D01*
X14608158Y-9579341D02*
X14608158Y-9541246D01*
X14608158Y-9541246D02*
X14598634Y-9493627D01*
X14598634Y-9493627D02*
X14589111Y-9465055D01*
X14589111Y-9465055D02*
X14579587Y-9446008D01*
X14579587Y-9446008D02*
X14560539Y-9417436D01*
X14560539Y-9417436D02*
X14551015Y-9407912D01*
X7795000Y-9865000D02*
G75*
G02*
X7595000Y-9865000I-100000J0D01*
G01*
X7595000Y-9865000D02*
G75*
G02*
X7795000Y-9865000I100000J0D01*
G01*
X8036729Y-9756484D02*
X8160539Y-9756484D01*
X8160539Y-9756484D02*
X8093872Y-9832674D01*
X8093872Y-9832674D02*
X8122443Y-9832674D01*
X8122443Y-9832674D02*
X8141491Y-9842198D01*
X8141491Y-9842198D02*
X8151015Y-9851722D01*
X8151015Y-9851722D02*
X8160539Y-9870770D01*
X8160539Y-9870770D02*
X8160539Y-9918389D01*
X8160539Y-9918389D02*
X8151015Y-9937436D01*
X8151015Y-9937436D02*
X8141491Y-9946960D01*
X8141491Y-9946960D02*
X8122443Y-9956484D01*
X8122443Y-9956484D02*
X8065301Y-9956484D01*
X8065301Y-9956484D02*
X8046253Y-9946960D01*
X8046253Y-9946960D02*
X8036729Y-9937436D01*
X8246253Y-9937436D02*
X8255777Y-9946960D01*
X8255777Y-9946960D02*
X8246253Y-9956484D01*
X8246253Y-9956484D02*
X8236729Y-9946960D01*
X8236729Y-9946960D02*
X8246253Y-9937436D01*
X8246253Y-9937436D02*
X8246253Y-9956484D01*
X8331967Y-9775531D02*
X8341491Y-9766008D01*
X8341491Y-9766008D02*
X8360539Y-9756484D01*
X8360539Y-9756484D02*
X8408158Y-9756484D01*
X8408158Y-9756484D02*
X8427205Y-9766008D01*
X8427205Y-9766008D02*
X8436729Y-9775531D01*
X8436729Y-9775531D02*
X8446253Y-9794579D01*
X8446253Y-9794579D02*
X8446253Y-9813627D01*
X8446253Y-9813627D02*
X8436729Y-9842198D01*
X8436729Y-9842198D02*
X8322443Y-9956484D01*
X8322443Y-9956484D02*
X8446253Y-9956484D01*
X8570063Y-9756484D02*
X8589110Y-9756484D01*
X8589110Y-9756484D02*
X8608158Y-9766008D01*
X8608158Y-9766008D02*
X8617682Y-9775531D01*
X8617682Y-9775531D02*
X8627205Y-9794579D01*
X8627205Y-9794579D02*
X8636729Y-9832674D01*
X8636729Y-9832674D02*
X8636729Y-9880293D01*
X8636729Y-9880293D02*
X8627205Y-9918389D01*
X8627205Y-9918389D02*
X8617682Y-9937436D01*
X8617682Y-9937436D02*
X8608158Y-9946960D01*
X8608158Y-9946960D02*
X8589110Y-9956484D01*
X8589110Y-9956484D02*
X8570063Y-9956484D01*
X8570063Y-9956484D02*
X8551015Y-9946960D01*
X8551015Y-9946960D02*
X8541491Y-9937436D01*
X8541491Y-9937436D02*
X8531967Y-9918389D01*
X8531967Y-9918389D02*
X8522444Y-9880293D01*
X8522444Y-9880293D02*
X8522444Y-9832674D01*
X8522444Y-9832674D02*
X8531967Y-9794579D01*
X8531967Y-9794579D02*
X8541491Y-9775531D01*
X8541491Y-9775531D02*
X8551015Y-9766008D01*
X8551015Y-9766008D02*
X8570063Y-9756484D01*
X8760539Y-9756484D02*
X8779586Y-9756484D01*
X8779586Y-9756484D02*
X8798634Y-9766008D01*
X8798634Y-9766008D02*
X8808158Y-9775531D01*
X8808158Y-9775531D02*
X8817682Y-9794579D01*
X8817682Y-9794579D02*
X8827205Y-9832674D01*
X8827205Y-9832674D02*
X8827205Y-9880293D01*
X8827205Y-9880293D02*
X8817682Y-9918389D01*
X8817682Y-9918389D02*
X8808158Y-9937436D01*
X8808158Y-9937436D02*
X8798634Y-9946960D01*
X8798634Y-9946960D02*
X8779586Y-9956484D01*
X8779586Y-9956484D02*
X8760539Y-9956484D01*
X8760539Y-9956484D02*
X8741491Y-9946960D01*
X8741491Y-9946960D02*
X8731967Y-9937436D01*
X8731967Y-9937436D02*
X8722444Y-9918389D01*
X8722444Y-9918389D02*
X8712920Y-9880293D01*
X8712920Y-9880293D02*
X8712920Y-9832674D01*
X8712920Y-9832674D02*
X8722444Y-9794579D01*
X8722444Y-9794579D02*
X8731967Y-9775531D01*
X8731967Y-9775531D02*
X8741491Y-9766008D01*
X8741491Y-9766008D02*
X8760539Y-9756484D01*
X8912920Y-9956484D02*
X8912920Y-9823150D01*
X8912920Y-9842198D02*
X8922444Y-9832674D01*
X8922444Y-9832674D02*
X8941491Y-9823150D01*
X8941491Y-9823150D02*
X8970063Y-9823150D01*
X8970063Y-9823150D02*
X8989110Y-9832674D01*
X8989110Y-9832674D02*
X8998634Y-9851722D01*
X8998634Y-9851722D02*
X8998634Y-9956484D01*
X8998634Y-9851722D02*
X9008158Y-9832674D01*
X9008158Y-9832674D02*
X9027205Y-9823150D01*
X9027205Y-9823150D02*
X9055777Y-9823150D01*
X9055777Y-9823150D02*
X9074825Y-9832674D01*
X9074825Y-9832674D02*
X9084348Y-9851722D01*
X9084348Y-9851722D02*
X9084348Y-9956484D01*
X9179586Y-9956484D02*
X9179586Y-9823150D01*
X9179586Y-9842198D02*
X9189110Y-9832674D01*
X9189110Y-9832674D02*
X9208158Y-9823150D01*
X9208158Y-9823150D02*
X9236729Y-9823150D01*
X9236729Y-9823150D02*
X9255777Y-9832674D01*
X9255777Y-9832674D02*
X9265301Y-9851722D01*
X9265301Y-9851722D02*
X9265301Y-9956484D01*
X9265301Y-9851722D02*
X9274825Y-9832674D01*
X9274825Y-9832674D02*
X9293872Y-9823150D01*
X9293872Y-9823150D02*
X9322444Y-9823150D01*
X9322444Y-9823150D02*
X9341491Y-9832674D01*
X9341491Y-9832674D02*
X9351015Y-9851722D01*
X9351015Y-9851722D02*
X9351015Y-9956484D01*
X9741491Y-9746960D02*
X9570063Y-10004103D01*
X9998634Y-9756484D02*
X10017682Y-9756484D01*
X10017682Y-9756484D02*
X10036729Y-9766008D01*
X10036729Y-9766008D02*
X10046253Y-9775531D01*
X10046253Y-9775531D02*
X10055777Y-9794579D01*
X10055777Y-9794579D02*
X10065301Y-9832674D01*
X10065301Y-9832674D02*
X10065301Y-9880293D01*
X10065301Y-9880293D02*
X10055777Y-9918389D01*
X10055777Y-9918389D02*
X10046253Y-9937436D01*
X10046253Y-9937436D02*
X10036729Y-9946960D01*
X10036729Y-9946960D02*
X10017682Y-9956484D01*
X10017682Y-9956484D02*
X9998634Y-9956484D01*
X9998634Y-9956484D02*
X9979587Y-9946960D01*
X9979587Y-9946960D02*
X9970063Y-9937436D01*
X9970063Y-9937436D02*
X9960539Y-9918389D01*
X9960539Y-9918389D02*
X9951015Y-9880293D01*
X9951015Y-9880293D02*
X9951015Y-9832674D01*
X9951015Y-9832674D02*
X9960539Y-9794579D01*
X9960539Y-9794579D02*
X9970063Y-9775531D01*
X9970063Y-9775531D02*
X9979587Y-9766008D01*
X9979587Y-9766008D02*
X9998634Y-9756484D01*
X10151015Y-9937436D02*
X10160539Y-9946960D01*
X10160539Y-9946960D02*
X10151015Y-9956484D01*
X10151015Y-9956484D02*
X10141491Y-9946960D01*
X10141491Y-9946960D02*
X10151015Y-9937436D01*
X10151015Y-9937436D02*
X10151015Y-9956484D01*
X10351015Y-9956484D02*
X10236729Y-9956484D01*
X10293872Y-9956484D02*
X10293872Y-9756484D01*
X10293872Y-9756484D02*
X10274825Y-9785055D01*
X10274825Y-9785055D02*
X10255777Y-9804103D01*
X10255777Y-9804103D02*
X10236729Y-9813627D01*
X10427206Y-9775531D02*
X10436729Y-9766008D01*
X10436729Y-9766008D02*
X10455777Y-9756484D01*
X10455777Y-9756484D02*
X10503396Y-9756484D01*
X10503396Y-9756484D02*
X10522444Y-9766008D01*
X10522444Y-9766008D02*
X10531968Y-9775531D01*
X10531968Y-9775531D02*
X10541491Y-9794579D01*
X10541491Y-9794579D02*
X10541491Y-9813627D01*
X10541491Y-9813627D02*
X10531968Y-9842198D01*
X10531968Y-9842198D02*
X10417682Y-9956484D01*
X10417682Y-9956484D02*
X10541491Y-9956484D01*
X10712920Y-9756484D02*
X10674825Y-9756484D01*
X10674825Y-9756484D02*
X10655777Y-9766008D01*
X10655777Y-9766008D02*
X10646253Y-9775531D01*
X10646253Y-9775531D02*
X10627206Y-9804103D01*
X10627206Y-9804103D02*
X10617682Y-9842198D01*
X10617682Y-9842198D02*
X10617682Y-9918389D01*
X10617682Y-9918389D02*
X10627206Y-9937436D01*
X10627206Y-9937436D02*
X10636729Y-9946960D01*
X10636729Y-9946960D02*
X10655777Y-9956484D01*
X10655777Y-9956484D02*
X10693872Y-9956484D01*
X10693872Y-9956484D02*
X10712920Y-9946960D01*
X10712920Y-9946960D02*
X10722444Y-9937436D01*
X10722444Y-9937436D02*
X10731968Y-9918389D01*
X10731968Y-9918389D02*
X10731968Y-9870770D01*
X10731968Y-9870770D02*
X10722444Y-9851722D01*
X10722444Y-9851722D02*
X10712920Y-9842198D01*
X10712920Y-9842198D02*
X10693872Y-9832674D01*
X10693872Y-9832674D02*
X10655777Y-9832674D01*
X10655777Y-9832674D02*
X10636729Y-9842198D01*
X10636729Y-9842198D02*
X10627206Y-9851722D01*
X10627206Y-9851722D02*
X10617682Y-9870770D01*
X10855777Y-9756484D02*
X10874825Y-9756484D01*
X10874825Y-9756484D02*
X10893872Y-9766008D01*
X10893872Y-9766008D02*
X10903396Y-9775531D01*
X10903396Y-9775531D02*
X10912920Y-9794579D01*
X10912920Y-9794579D02*
X10922444Y-9832674D01*
X10922444Y-9832674D02*
X10922444Y-9880293D01*
X10922444Y-9880293D02*
X10912920Y-9918389D01*
X10912920Y-9918389D02*
X10903396Y-9937436D01*
X10903396Y-9937436D02*
X10893872Y-9946960D01*
X10893872Y-9946960D02*
X10874825Y-9956484D01*
X10874825Y-9956484D02*
X10855777Y-9956484D01*
X10855777Y-9956484D02*
X10836729Y-9946960D01*
X10836729Y-9946960D02*
X10827206Y-9937436D01*
X10827206Y-9937436D02*
X10817682Y-9918389D01*
X10817682Y-9918389D02*
X10808158Y-9880293D01*
X10808158Y-9880293D02*
X10808158Y-9832674D01*
X10808158Y-9832674D02*
X10817682Y-9794579D01*
X10817682Y-9794579D02*
X10827206Y-9775531D01*
X10827206Y-9775531D02*
X10836729Y-9766008D01*
X10836729Y-9766008D02*
X10855777Y-9756484D01*
X10998634Y-9756484D02*
X10998634Y-9794579D01*
X11074825Y-9756484D02*
X11074825Y-9794579D01*
X11370063Y-10032674D02*
X11360539Y-10023150D01*
X11360539Y-10023150D02*
X11341491Y-9994579D01*
X11341491Y-9994579D02*
X11331968Y-9975531D01*
X11331968Y-9975531D02*
X11322444Y-9946960D01*
X11322444Y-9946960D02*
X11312920Y-9899341D01*
X11312920Y-9899341D02*
X11312920Y-9861246D01*
X11312920Y-9861246D02*
X11322444Y-9813627D01*
X11322444Y-9813627D02*
X11331968Y-9785055D01*
X11331968Y-9785055D02*
X11341491Y-9766008D01*
X11341491Y-9766008D02*
X11360539Y-9737436D01*
X11360539Y-9737436D02*
X11370063Y-9727912D01*
X11531968Y-9756484D02*
X11493872Y-9756484D01*
X11493872Y-9756484D02*
X11474825Y-9766008D01*
X11474825Y-9766008D02*
X11465301Y-9775531D01*
X11465301Y-9775531D02*
X11446253Y-9804103D01*
X11446253Y-9804103D02*
X11436729Y-9842198D01*
X11436729Y-9842198D02*
X11436729Y-9918389D01*
X11436729Y-9918389D02*
X11446253Y-9937436D01*
X11446253Y-9937436D02*
X11455777Y-9946960D01*
X11455777Y-9946960D02*
X11474825Y-9956484D01*
X11474825Y-9956484D02*
X11512920Y-9956484D01*
X11512920Y-9956484D02*
X11531968Y-9946960D01*
X11531968Y-9946960D02*
X11541491Y-9937436D01*
X11541491Y-9937436D02*
X11551015Y-9918389D01*
X11551015Y-9918389D02*
X11551015Y-9870770D01*
X11551015Y-9870770D02*
X11541491Y-9851722D01*
X11541491Y-9851722D02*
X11531968Y-9842198D01*
X11531968Y-9842198D02*
X11512920Y-9832674D01*
X11512920Y-9832674D02*
X11474825Y-9832674D01*
X11474825Y-9832674D02*
X11455777Y-9842198D01*
X11455777Y-9842198D02*
X11446253Y-9851722D01*
X11446253Y-9851722D02*
X11436729Y-9870770D01*
X11789110Y-9956484D02*
X11789110Y-9756484D01*
X11874825Y-9956484D02*
X11874825Y-9851722D01*
X11874825Y-9851722D02*
X11865301Y-9832674D01*
X11865301Y-9832674D02*
X11846253Y-9823150D01*
X11846253Y-9823150D02*
X11817682Y-9823150D01*
X11817682Y-9823150D02*
X11798634Y-9832674D01*
X11798634Y-9832674D02*
X11789110Y-9842198D01*
X11998634Y-9956484D02*
X11979587Y-9946960D01*
X11979587Y-9946960D02*
X11970063Y-9937436D01*
X11970063Y-9937436D02*
X11960539Y-9918389D01*
X11960539Y-9918389D02*
X11960539Y-9861246D01*
X11960539Y-9861246D02*
X11970063Y-9842198D01*
X11970063Y-9842198D02*
X11979587Y-9832674D01*
X11979587Y-9832674D02*
X11998634Y-9823150D01*
X11998634Y-9823150D02*
X12027206Y-9823150D01*
X12027206Y-9823150D02*
X12046253Y-9832674D01*
X12046253Y-9832674D02*
X12055777Y-9842198D01*
X12055777Y-9842198D02*
X12065301Y-9861246D01*
X12065301Y-9861246D02*
X12065301Y-9918389D01*
X12065301Y-9918389D02*
X12055777Y-9937436D01*
X12055777Y-9937436D02*
X12046253Y-9946960D01*
X12046253Y-9946960D02*
X12027206Y-9956484D01*
X12027206Y-9956484D02*
X11998634Y-9956484D01*
X12179587Y-9956484D02*
X12160539Y-9946960D01*
X12160539Y-9946960D02*
X12151015Y-9927912D01*
X12151015Y-9927912D02*
X12151015Y-9756484D01*
X12331968Y-9946960D02*
X12312920Y-9956484D01*
X12312920Y-9956484D02*
X12274825Y-9956484D01*
X12274825Y-9956484D02*
X12255777Y-9946960D01*
X12255777Y-9946960D02*
X12246253Y-9927912D01*
X12246253Y-9927912D02*
X12246253Y-9851722D01*
X12246253Y-9851722D02*
X12255777Y-9832674D01*
X12255777Y-9832674D02*
X12274825Y-9823150D01*
X12274825Y-9823150D02*
X12312920Y-9823150D01*
X12312920Y-9823150D02*
X12331968Y-9832674D01*
X12331968Y-9832674D02*
X12341491Y-9851722D01*
X12341491Y-9851722D02*
X12341491Y-9870770D01*
X12341491Y-9870770D02*
X12246253Y-9889817D01*
X12417682Y-9946960D02*
X12436730Y-9956484D01*
X12436730Y-9956484D02*
X12474825Y-9956484D01*
X12474825Y-9956484D02*
X12493872Y-9946960D01*
X12493872Y-9946960D02*
X12503396Y-9927912D01*
X12503396Y-9927912D02*
X12503396Y-9918389D01*
X12503396Y-9918389D02*
X12493872Y-9899341D01*
X12493872Y-9899341D02*
X12474825Y-9889817D01*
X12474825Y-9889817D02*
X12446253Y-9889817D01*
X12446253Y-9889817D02*
X12427206Y-9880293D01*
X12427206Y-9880293D02*
X12417682Y-9861246D01*
X12417682Y-9861246D02*
X12417682Y-9851722D01*
X12417682Y-9851722D02*
X12427206Y-9832674D01*
X12427206Y-9832674D02*
X12446253Y-9823150D01*
X12446253Y-9823150D02*
X12474825Y-9823150D01*
X12474825Y-9823150D02*
X12493872Y-9832674D01*
X12570063Y-10032674D02*
X12579587Y-10023150D01*
X12579587Y-10023150D02*
X12598634Y-9994579D01*
X12598634Y-9994579D02*
X12608158Y-9975531D01*
X12608158Y-9975531D02*
X12617682Y-9946960D01*
X12617682Y-9946960D02*
X12627206Y-9899341D01*
X12627206Y-9899341D02*
X12627206Y-9861246D01*
X12627206Y-9861246D02*
X12617682Y-9813627D01*
X12617682Y-9813627D02*
X12608158Y-9785055D01*
X12608158Y-9785055D02*
X12598634Y-9766008D01*
X12598634Y-9766008D02*
X12579587Y-9737436D01*
X12579587Y-9737436D02*
X12570063Y-9727912D01*
X12931968Y-10032674D02*
X12922444Y-10023150D01*
X12922444Y-10023150D02*
X12903396Y-9994579D01*
X12903396Y-9994579D02*
X12893872Y-9975531D01*
X12893872Y-9975531D02*
X12884349Y-9946960D01*
X12884349Y-9946960D02*
X12874825Y-9899341D01*
X12874825Y-9899341D02*
X12874825Y-9861246D01*
X12874825Y-9861246D02*
X12884349Y-9813627D01*
X12884349Y-9813627D02*
X12893872Y-9785055D01*
X12893872Y-9785055D02*
X12903396Y-9766008D01*
X12903396Y-9766008D02*
X12922444Y-9737436D01*
X12922444Y-9737436D02*
X12931968Y-9727912D01*
X13008158Y-9823150D02*
X13008158Y-9956484D01*
X13008158Y-9842198D02*
X13017682Y-9832674D01*
X13017682Y-9832674D02*
X13036730Y-9823150D01*
X13036730Y-9823150D02*
X13065301Y-9823150D01*
X13065301Y-9823150D02*
X13084349Y-9832674D01*
X13084349Y-9832674D02*
X13093872Y-9851722D01*
X13093872Y-9851722D02*
X13093872Y-9956484D01*
X13217682Y-9956484D02*
X13198634Y-9946960D01*
X13198634Y-9946960D02*
X13189111Y-9937436D01*
X13189111Y-9937436D02*
X13179587Y-9918389D01*
X13179587Y-9918389D02*
X13179587Y-9861246D01*
X13179587Y-9861246D02*
X13189111Y-9842198D01*
X13189111Y-9842198D02*
X13198634Y-9832674D01*
X13198634Y-9832674D02*
X13217682Y-9823150D01*
X13217682Y-9823150D02*
X13246253Y-9823150D01*
X13246253Y-9823150D02*
X13265301Y-9832674D01*
X13265301Y-9832674D02*
X13274825Y-9842198D01*
X13274825Y-9842198D02*
X13284349Y-9861246D01*
X13284349Y-9861246D02*
X13284349Y-9918389D01*
X13284349Y-9918389D02*
X13274825Y-9937436D01*
X13274825Y-9937436D02*
X13265301Y-9946960D01*
X13265301Y-9946960D02*
X13246253Y-9956484D01*
X13246253Y-9956484D02*
X13217682Y-9956484D01*
X13341492Y-9823150D02*
X13417682Y-9823150D01*
X13370063Y-9756484D02*
X13370063Y-9927912D01*
X13370063Y-9927912D02*
X13379587Y-9946960D01*
X13379587Y-9946960D02*
X13398634Y-9956484D01*
X13398634Y-9956484D02*
X13417682Y-9956484D01*
X13636730Y-9823150D02*
X13636730Y-10023150D01*
X13636730Y-9832674D02*
X13655777Y-9823150D01*
X13655777Y-9823150D02*
X13693873Y-9823150D01*
X13693873Y-9823150D02*
X13712920Y-9832674D01*
X13712920Y-9832674D02*
X13722444Y-9842198D01*
X13722444Y-9842198D02*
X13731968Y-9861246D01*
X13731968Y-9861246D02*
X13731968Y-9918389D01*
X13731968Y-9918389D02*
X13722444Y-9937436D01*
X13722444Y-9937436D02*
X13712920Y-9946960D01*
X13712920Y-9946960D02*
X13693873Y-9956484D01*
X13693873Y-9956484D02*
X13655777Y-9956484D01*
X13655777Y-9956484D02*
X13636730Y-9946960D01*
X13846253Y-9956484D02*
X13827206Y-9946960D01*
X13827206Y-9946960D02*
X13817682Y-9927912D01*
X13817682Y-9927912D02*
X13817682Y-9756484D01*
X14008158Y-9956484D02*
X14008158Y-9851722D01*
X14008158Y-9851722D02*
X13998634Y-9832674D01*
X13998634Y-9832674D02*
X13979587Y-9823150D01*
X13979587Y-9823150D02*
X13941492Y-9823150D01*
X13941492Y-9823150D02*
X13922444Y-9832674D01*
X14008158Y-9946960D02*
X13989111Y-9956484D01*
X13989111Y-9956484D02*
X13941492Y-9956484D01*
X13941492Y-9956484D02*
X13922444Y-9946960D01*
X13922444Y-9946960D02*
X13912920Y-9927912D01*
X13912920Y-9927912D02*
X13912920Y-9908865D01*
X13912920Y-9908865D02*
X13922444Y-9889817D01*
X13922444Y-9889817D02*
X13941492Y-9880293D01*
X13941492Y-9880293D02*
X13989111Y-9880293D01*
X13989111Y-9880293D02*
X14008158Y-9870770D01*
X14074825Y-9823150D02*
X14151015Y-9823150D01*
X14103396Y-9756484D02*
X14103396Y-9927912D01*
X14103396Y-9927912D02*
X14112920Y-9946960D01*
X14112920Y-9946960D02*
X14131968Y-9956484D01*
X14131968Y-9956484D02*
X14151015Y-9956484D01*
X14293873Y-9946960D02*
X14274825Y-9956484D01*
X14274825Y-9956484D02*
X14236730Y-9956484D01*
X14236730Y-9956484D02*
X14217682Y-9946960D01*
X14217682Y-9946960D02*
X14208158Y-9927912D01*
X14208158Y-9927912D02*
X14208158Y-9851722D01*
X14208158Y-9851722D02*
X14217682Y-9832674D01*
X14217682Y-9832674D02*
X14236730Y-9823150D01*
X14236730Y-9823150D02*
X14274825Y-9823150D01*
X14274825Y-9823150D02*
X14293873Y-9832674D01*
X14293873Y-9832674D02*
X14303396Y-9851722D01*
X14303396Y-9851722D02*
X14303396Y-9870770D01*
X14303396Y-9870770D02*
X14208158Y-9889817D01*
X14474825Y-9956484D02*
X14474825Y-9756484D01*
X14474825Y-9946960D02*
X14455777Y-9956484D01*
X14455777Y-9956484D02*
X14417682Y-9956484D01*
X14417682Y-9956484D02*
X14398634Y-9946960D01*
X14398634Y-9946960D02*
X14389111Y-9937436D01*
X14389111Y-9937436D02*
X14379587Y-9918389D01*
X14379587Y-9918389D02*
X14379587Y-9861246D01*
X14379587Y-9861246D02*
X14389111Y-9842198D01*
X14389111Y-9842198D02*
X14398634Y-9832674D01*
X14398634Y-9832674D02*
X14417682Y-9823150D01*
X14417682Y-9823150D02*
X14455777Y-9823150D01*
X14455777Y-9823150D02*
X14474825Y-9832674D01*
X14551015Y-10032674D02*
X14560539Y-10023150D01*
X14560539Y-10023150D02*
X14579587Y-9994579D01*
X14579587Y-9994579D02*
X14589111Y-9975531D01*
X14589111Y-9975531D02*
X14598634Y-9946960D01*
X14598634Y-9946960D02*
X14608158Y-9899341D01*
X14608158Y-9899341D02*
X14608158Y-9861246D01*
X14608158Y-9861246D02*
X14598634Y-9813627D01*
X14598634Y-9813627D02*
X14589111Y-9785055D01*
X14589111Y-9785055D02*
X14579587Y-9766008D01*
X14579587Y-9766008D02*
X14560539Y-9737436D01*
X14560539Y-9737436D02*
X14551015Y-9727912D01*
M02*
