%TF.GenerationSoftware,KiCad,Pcbnew,10.0.5*%
%TF.CreationDate,2026-09-01T15:17:19-04:00*%
%TF.ProjectId,pcb,7063622e-6b69-4636-9164-5f7063625858,rev?*%
%TF.SameCoordinates,Original*%
%TF.FileFunction,Copper,L2,Bot*%
%TF.FilePolarity,Positive*%
%FSLAX46Y46*%
G04 Gerber Fmt 4.6, Leading zero omitted, Abs format (unit mm)*
G04 Created by KiCad (PCBNEW 10.0.5) date 2026-09-01 15:17:19*
%MOMM*%
%LPD*%
G01*
G04 APERTURE LIST*
%TA.AperFunction,ComponentPad*%
%ADD10C,1.905000*%
%TD*%
%TA.AperFunction,ComponentPad*%
%ADD11R,2.000000X2.000000*%
%TD*%
%TA.AperFunction,ComponentPad*%
%ADD12C,2.000000*%
%TD*%
%TA.AperFunction,ViaPad*%
%ADD13C,0.800000*%
%TD*%
%TA.AperFunction,ViaPad*%
%ADD14C,0.600000*%
%TD*%
%TA.AperFunction,Conductor*%
%ADD15C,0.250000*%
%TD*%
%TA.AperFunction,Conductor*%
%ADD16C,0.500000*%
%TD*%
G04 APERTURE END LIST*
D10*
%TO.P,U4,AD0*%
%TO.N,unconnected-(U4-PadAD0)*%
X127670000Y-77350000D03*
%TO.P,U4,GND*%
%TO.N,GND*%
X127670000Y-64650000D03*
%TO.P,U4,INT*%
%TO.N,unconnected-(U4-PadINT)*%
X127670000Y-79890000D03*
%TO.P,U4,SCL*%
%TO.N,/I2C_SCL*%
X127670000Y-67190000D03*
%TO.P,U4,SDA*%
%TO.N,/I2C_SDA*%
X127670000Y-69730000D03*
%TO.P,U4,VCC*%
%TO.N,+5V*%
X127670000Y-62110000D03*
%TO.P,U4,XCL*%
%TO.N,unconnected-(U4-PadXCL)*%
X127670000Y-74810000D03*
%TO.P,U4,XDA*%
%TO.N,unconnected-(U4-PadXDA)*%
X127670000Y-72270000D03*
%TD*%
D11*
%TO.P,U1,1*%
%TO.N,+3V3*%
X89300000Y-47485000D03*
D12*
%TO.P,U1,2*%
%TO.N,GND*%
X89300000Y-50025000D03*
%TO.P,U1,3*%
%TO.N,unconnected-(U1-D15-Pad3)*%
X89300000Y-52565000D03*
%TO.P,U1,4*%
%TO.N,unconnected-(U1-D2-Pad4)*%
X89300000Y-55105000D03*
%TO.P,U1,5*%
%TO.N,unconnected-(U1-D4-Pad5)*%
X89300000Y-57645000D03*
%TO.P,U1,6*%
%TO.N,unconnected-(U1-RX2-Pad6)*%
X89300000Y-60185000D03*
%TO.P,U1,7*%
%TO.N,unconnected-(U1-TX2-Pad7)*%
X89300000Y-62725000D03*
%TO.P,U1,8*%
%TO.N,/UWB_CS*%
X89300000Y-65265000D03*
%TO.P,U1,9*%
%TO.N,/UWB_SCK*%
X89300000Y-67805000D03*
%TO.P,U1,10*%
%TO.N,/UWB_MISO*%
X89300000Y-70345000D03*
%TO.P,U1,11*%
%TO.N,/I2C_SDA*%
X89300000Y-72885000D03*
%TO.P,U1,12*%
%TO.N,unconnected-(U1-RX0-Pad12)*%
X89300000Y-75425000D03*
%TO.P,U1,13*%
%TO.N,unconnected-(U1-TX0-Pad13)*%
X89300000Y-77965000D03*
%TO.P,U1,14*%
%TO.N,/I2C_SCL*%
X89300000Y-80505000D03*
%TO.P,U1,15*%
%TO.N,/UWB_MOSI*%
X89300000Y-83045000D03*
%TO.P,U1,16*%
%TO.N,unconnected-(U1-EN-Pad16)*%
X114700000Y-83045000D03*
%TO.P,U1,17*%
%TO.N,unconnected-(U1-VP-Pad17)*%
X114700000Y-80505000D03*
%TO.P,U1,18*%
%TO.N,unconnected-(U1-VN-Pad18)*%
X114700000Y-77965000D03*
%TO.P,U1,19*%
%TO.N,unconnected-(U1-D34-Pad19)*%
X114700000Y-75425000D03*
%TO.P,U1,20*%
%TO.N,unconnected-(U1-D35-Pad20)*%
X114700000Y-72885000D03*
%TO.P,U1,21*%
%TO.N,unconnected-(U1-D32-Pad21)*%
X114700000Y-70345000D03*
%TO.P,U1,22*%
%TO.N,unconnected-(U1-D33-Pad22)*%
X114700000Y-67805000D03*
%TO.P,U1,23*%
%TO.N,unconnected-(U1-D25-Pad23)*%
X114700000Y-65265000D03*
%TO.P,U1,24*%
%TO.N,/UWB_IRQ*%
X114700000Y-62725000D03*
%TO.P,U1,25*%
%TO.N,/UWB_RST*%
X114700000Y-60185000D03*
%TO.P,U1,26*%
%TO.N,unconnected-(U1-D14-Pad26)*%
X114700000Y-57645000D03*
%TO.P,U1,27*%
%TO.N,unconnected-(U1-D12-Pad27)*%
X114700000Y-55105000D03*
%TO.P,U1,28*%
%TO.N,unconnected-(U1-D13-Pad28)*%
X114700000Y-52565000D03*
%TO.P,U1,29*%
%TO.N,GND*%
X114700000Y-50025000D03*
%TO.P,U1,30*%
%TO.N,+5V*%
X114700000Y-47485000D03*
%TD*%
D13*
%TO.N,GND*%
X132000000Y-79000000D03*
X112000000Y-35000000D03*
X100000000Y-50000000D03*
X140000000Y-70000000D03*
X95000000Y-35000000D03*
X120000000Y-79000000D03*
X100000000Y-58000000D03*
X81000000Y-50000000D03*
X100000000Y-79000000D03*
X140000000Y-58000000D03*
X122500000Y-49900000D03*
X81000000Y-70000000D03*
X136000000Y-45000000D03*
X100000000Y-66000000D03*
X105000000Y-35000000D03*
X100000000Y-74000000D03*
X81000000Y-60000000D03*
X119000000Y-36000000D03*
X122000000Y-66000000D03*
D14*
%TO.N,/I2C_SCL*%
X126000000Y-71500000D03*
%TO.N,/UWB_RST*%
X133299000Y-33500000D03*
X118800000Y-60185000D03*
%TO.N,+3V3*%
X87000000Y-43000000D03*
%TO.N,/UWB_CS*%
X126300000Y-54800000D03*
%TO.N,/UWB_MOSI*%
X127700000Y-53800000D03*
%TO.N,/UWB_MISO*%
X129099000Y-56800000D03*
%TO.N,/UWB_SCK*%
X130499000Y-55800000D03*
%TO.N,/UWB_IRQ*%
X123500000Y-61000000D03*
X118500000Y-62725000D03*
%TD*%
%TO.N,/I2C_SCL*%
D15*
X96500000Y-80505000D02*
X96500000Y-45800000D01*
X116300000Y-71500000D02*
X126000000Y-71500000D01*
X116300000Y-45800000D02*
X116300000Y-71500000D01*
X89300000Y-80505000D02*
X96500000Y-80505000D01*
X96500000Y-45800000D02*
X116300000Y-45800000D01*
%TO.N,/I2C_SDA*%
X117300000Y-69730000D02*
X127670000Y-69730000D01*
X117300000Y-45000000D02*
X117300000Y-69730000D01*
X95600000Y-45000000D02*
X117300000Y-45000000D01*
X89300000Y-72885000D02*
X95600000Y-72885000D01*
X95600000Y-72885000D02*
X95600000Y-45000000D01*
%TO.N,/UWB_RST*%
X131500000Y-60185000D02*
X131500000Y-33500000D01*
X118800000Y-60185000D02*
X131500000Y-60185000D01*
X131500000Y-33500000D02*
X133299000Y-33500000D01*
%TO.N,+3V3*%
D16*
X87000000Y-47485000D02*
X87000000Y-43000000D01*
X89300000Y-47485000D02*
X87000000Y-47485000D01*
%TO.N,/UWB_CS*%
D15*
X92900000Y-65265000D02*
X92900000Y-42600000D01*
X120300000Y-42600000D02*
X120300000Y-54800000D01*
X89300000Y-65265000D02*
X92900000Y-65265000D01*
X120300000Y-54800000D02*
X126300000Y-54800000D01*
X92900000Y-42600000D02*
X120300000Y-42600000D01*
%TO.N,/UWB_MOSI*%
X85000000Y-41800000D02*
X121300000Y-41800000D01*
X89300000Y-83045000D02*
X85000000Y-83045000D01*
X121300000Y-41800000D02*
X121300000Y-53800000D01*
X85000000Y-83045000D02*
X85000000Y-41800000D01*
X121300000Y-53800000D02*
X127700000Y-53800000D01*
%TO.N,/UWB_MISO*%
X94700000Y-70345000D02*
X94700000Y-44200000D01*
X118300000Y-56800000D02*
X129099000Y-56800000D01*
X94700000Y-44200000D02*
X118300000Y-44200000D01*
X89300000Y-70345000D02*
X94700000Y-70345000D01*
X118300000Y-44200000D02*
X118300000Y-56800000D01*
%TO.N,/UWB_SCK*%
X119300000Y-55800000D02*
X130499000Y-55800000D01*
X89300000Y-67805000D02*
X93800000Y-67805000D01*
X119300000Y-43400000D02*
X119300000Y-55800000D01*
X93800000Y-67805000D02*
X93800000Y-43400000D01*
X93800000Y-43400000D02*
X119300000Y-43400000D01*
%TO.N,/UWB_IRQ*%
X118500000Y-62725000D02*
X123500000Y-62725000D01*
X123500000Y-62725000D02*
X123500000Y-61000000D01*
%TD*%
%TA.AperFunction,Conductor*%
%TO.N,GND*%
G36*
X86256166Y-42445185D02*
G01*
X86301921Y-42497989D01*
X86311865Y-42567147D01*
X86293378Y-42615392D01*
X86293479Y-42615446D01*
X86293049Y-42616249D01*
X86292229Y-42618391D01*
X86290609Y-42620814D01*
X86290602Y-42620827D01*
X86230264Y-42766498D01*
X86230261Y-42766510D01*
X86199500Y-42921153D01*
X86199500Y-43078846D01*
X86230261Y-43233489D01*
X86230263Y-43233497D01*
X86240061Y-43257151D01*
X86249500Y-43304604D01*
X86249500Y-47411082D01*
X86249500Y-47558918D01*
X86249500Y-47558920D01*
X86249499Y-47558920D01*
X86278340Y-47703907D01*
X86278343Y-47703917D01*
X86334912Y-47840488D01*
X86334919Y-47840501D01*
X86417048Y-47963415D01*
X86417051Y-47963419D01*
X86521580Y-48067948D01*
X86521584Y-48067951D01*
X86644498Y-48150080D01*
X86644511Y-48150087D01*
X86781082Y-48206656D01*
X86781087Y-48206658D01*
X86781091Y-48206658D01*
X86781092Y-48206659D01*
X86926079Y-48235500D01*
X86926082Y-48235500D01*
X87675501Y-48235500D01*
X87742540Y-48255185D01*
X87788295Y-48307989D01*
X87799501Y-48359500D01*
X87799501Y-48532876D01*
X87805908Y-48592483D01*
X87856202Y-48727328D01*
X87856206Y-48727335D01*
X87942452Y-48842544D01*
X87942455Y-48842547D01*
X88057664Y-48928793D01*
X88065454Y-48933047D01*
X88063725Y-48936211D01*
X88105915Y-48967734D01*
X88130393Y-49033175D01*
X88115604Y-49101462D01*
X88107036Y-49115021D01*
X88017084Y-49238829D01*
X87909897Y-49449197D01*
X87836934Y-49673752D01*
X87800000Y-49906947D01*
X87800000Y-50143052D01*
X87836934Y-50376247D01*
X87909897Y-50600802D01*
X88017087Y-50811174D01*
X88077338Y-50894104D01*
X88077340Y-50894105D01*
X88808871Y-50162574D01*
X88824755Y-50221853D01*
X88891898Y-50338147D01*
X88986853Y-50433102D01*
X89103147Y-50500245D01*
X89162425Y-50516128D01*
X88430893Y-51247658D01*
X88432448Y-51267405D01*
X88418084Y-51335783D01*
X88381717Y-51377451D01*
X88322490Y-51420482D01*
X88155485Y-51587487D01*
X88155485Y-51587488D01*
X88155483Y-51587490D01*
X88095862Y-51669550D01*
X88016657Y-51778566D01*
X87909433Y-51989003D01*
X87836446Y-52213631D01*
X87799500Y-52446902D01*
X87799500Y-52683097D01*
X87836446Y-52916368D01*
X87909433Y-53140996D01*
X87985206Y-53289707D01*
X88016657Y-53351433D01*
X88155483Y-53542510D01*
X88322490Y-53709517D01*
X88357127Y-53734683D01*
X88399792Y-53790013D01*
X88405771Y-53859626D01*
X88373165Y-53921421D01*
X88357130Y-53935315D01*
X88339365Y-53948222D01*
X88322488Y-53960484D01*
X88155485Y-54127487D01*
X88155485Y-54127488D01*
X88155483Y-54127490D01*
X88117934Y-54179172D01*
X88016657Y-54318566D01*
X87909433Y-54529003D01*
X87836446Y-54753631D01*
X87799500Y-54986902D01*
X87799500Y-55223097D01*
X87836446Y-55456368D01*
X87909433Y-55680996D01*
X88016657Y-55891433D01*
X88155483Y-56082510D01*
X88322490Y-56249517D01*
X88357127Y-56274683D01*
X88399792Y-56330013D01*
X88405771Y-56399626D01*
X88373165Y-56461421D01*
X88357130Y-56475315D01*
X88356192Y-56475997D01*
X88322488Y-56500484D01*
X88155485Y-56667487D01*
X88155485Y-56667488D01*
X88155483Y-56667490D01*
X88116493Y-56721155D01*
X88016657Y-56858566D01*
X87909433Y-57069003D01*
X87836446Y-57293631D01*
X87799500Y-57526902D01*
X87799500Y-57763097D01*
X87836446Y-57996368D01*
X87909433Y-58220996D01*
X88016657Y-58431433D01*
X88155483Y-58622510D01*
X88322490Y-58789517D01*
X88357127Y-58814683D01*
X88399792Y-58870013D01*
X88405771Y-58939626D01*
X88373165Y-59001421D01*
X88357130Y-59015315D01*
X88339365Y-59028222D01*
X88322488Y-59040484D01*
X88155485Y-59207487D01*
X88155485Y-59207488D01*
X88155483Y-59207490D01*
X88095862Y-59289550D01*
X88016657Y-59398566D01*
X87909433Y-59609003D01*
X87836446Y-59833631D01*
X87799500Y-60066902D01*
X87799500Y-60303097D01*
X87836446Y-60536368D01*
X87909433Y-60760996D01*
X87997839Y-60934500D01*
X88016657Y-60971433D01*
X88155483Y-61162510D01*
X88322490Y-61329517D01*
X88357127Y-61354683D01*
X88399792Y-61410013D01*
X88405771Y-61479626D01*
X88373165Y-61541421D01*
X88357130Y-61555315D01*
X88339365Y-61568222D01*
X88322488Y-61580484D01*
X88155485Y-61747487D01*
X88155485Y-61747488D01*
X88155483Y-61747490D01*
X88095862Y-61829550D01*
X88016657Y-61938566D01*
X87909433Y-62149003D01*
X87836446Y-62373631D01*
X87799500Y-62606902D01*
X87799500Y-62843097D01*
X87836446Y-63076368D01*
X87909433Y-63300996D01*
X87991137Y-63461347D01*
X88016657Y-63511433D01*
X88155483Y-63702510D01*
X88322490Y-63869517D01*
X88357127Y-63894683D01*
X88399792Y-63950013D01*
X88405771Y-64019626D01*
X88373165Y-64081421D01*
X88357130Y-64095315D01*
X88339365Y-64108222D01*
X88322488Y-64120484D01*
X88155485Y-64287487D01*
X88155485Y-64287488D01*
X88155483Y-64287490D01*
X88121499Y-64334265D01*
X88016657Y-64478566D01*
X87909433Y-64689003D01*
X87836446Y-64913631D01*
X87799500Y-65146902D01*
X87799500Y-65383097D01*
X87836446Y-65616368D01*
X87909433Y-65840996D01*
X87969155Y-65958205D01*
X88016657Y-66051433D01*
X88155483Y-66242510D01*
X88322490Y-66409517D01*
X88357127Y-66434683D01*
X88399792Y-66490013D01*
X88405771Y-66559626D01*
X88373165Y-66621421D01*
X88357130Y-66635315D01*
X88339365Y-66648222D01*
X88322488Y-66660484D01*
X88155485Y-66827487D01*
X88155485Y-66827488D01*
X88155483Y-66827490D01*
X88095862Y-66909550D01*
X88016657Y-67018566D01*
X87909433Y-67229003D01*
X87836446Y-67453631D01*
X87799500Y-67686902D01*
X87799500Y-67923097D01*
X87836446Y-68156368D01*
X87909433Y-68380996D01*
X87969155Y-68498205D01*
X88016657Y-68591433D01*
X88155483Y-68782510D01*
X88322490Y-68949517D01*
X88357127Y-68974683D01*
X88399792Y-69030013D01*
X88405771Y-69099626D01*
X88373165Y-69161421D01*
X88357130Y-69175315D01*
X88339365Y-69188222D01*
X88322488Y-69200484D01*
X88155485Y-69367487D01*
X88155485Y-69367488D01*
X88155483Y-69367490D01*
X88095862Y-69449550D01*
X88016657Y-69558566D01*
X87909433Y-69769003D01*
X87836446Y-69993631D01*
X87799500Y-70226902D01*
X87799500Y-70463097D01*
X87836446Y-70696368D01*
X87909433Y-70920996D01*
X87969155Y-71038205D01*
X88016657Y-71131433D01*
X88155483Y-71322510D01*
X88322490Y-71489517D01*
X88357127Y-71514683D01*
X88399792Y-71570013D01*
X88405771Y-71639626D01*
X88373165Y-71701421D01*
X88357130Y-71715315D01*
X88339365Y-71728222D01*
X88322488Y-71740484D01*
X88155485Y-71907487D01*
X88155485Y-71907488D01*
X88155483Y-71907490D01*
X88098369Y-71986101D01*
X88016657Y-72098566D01*
X87909433Y-72309003D01*
X87836446Y-72533631D01*
X87799500Y-72766902D01*
X87799500Y-73003097D01*
X87836446Y-73236368D01*
X87909433Y-73460996D01*
X87969155Y-73578205D01*
X88016657Y-73671433D01*
X88155483Y-73862510D01*
X88322490Y-74029517D01*
X88357127Y-74054683D01*
X88399792Y-74110013D01*
X88405771Y-74179626D01*
X88373165Y-74241421D01*
X88357130Y-74255315D01*
X88339365Y-74268222D01*
X88322488Y-74280484D01*
X88155485Y-74447487D01*
X88155485Y-74447488D01*
X88155483Y-74447490D01*
X88095862Y-74529550D01*
X88016657Y-74638566D01*
X87909433Y-74849003D01*
X87836446Y-75073631D01*
X87799500Y-75306902D01*
X87799500Y-75543097D01*
X87836446Y-75776368D01*
X87909433Y-76000996D01*
X87972611Y-76124988D01*
X88016657Y-76211433D01*
X88155483Y-76402510D01*
X88322490Y-76569517D01*
X88357127Y-76594683D01*
X88399792Y-76650013D01*
X88405771Y-76719626D01*
X88373165Y-76781421D01*
X88357130Y-76795315D01*
X88339365Y-76808222D01*
X88322488Y-76820484D01*
X88155485Y-76987487D01*
X88155485Y-76987488D01*
X88155483Y-76987490D01*
X88095862Y-77069550D01*
X88016657Y-77178566D01*
X87909433Y-77389003D01*
X87836446Y-77613631D01*
X87799500Y-77846902D01*
X87799500Y-78083097D01*
X87836446Y-78316368D01*
X87909433Y-78540996D01*
X87993722Y-78706421D01*
X88016657Y-78751433D01*
X88155483Y-78942510D01*
X88322490Y-79109517D01*
X88357127Y-79134683D01*
X88399792Y-79190013D01*
X88405771Y-79259626D01*
X88373165Y-79321421D01*
X88357130Y-79335315D01*
X88339365Y-79348222D01*
X88322488Y-79360484D01*
X88155485Y-79527487D01*
X88155485Y-79527488D01*
X88155483Y-79527490D01*
X88095862Y-79609550D01*
X88016657Y-79718566D01*
X87909433Y-79929003D01*
X87836446Y-80153631D01*
X87799500Y-80386902D01*
X87799500Y-80623097D01*
X87836446Y-80856368D01*
X87909433Y-81080996D01*
X87988692Y-81236549D01*
X88016657Y-81291433D01*
X88155483Y-81482510D01*
X88322490Y-81649517D01*
X88357127Y-81674683D01*
X88399792Y-81730013D01*
X88405771Y-81799626D01*
X88373165Y-81861421D01*
X88357130Y-81875315D01*
X88339365Y-81888222D01*
X88322488Y-81900484D01*
X88155485Y-82067487D01*
X88155485Y-82067488D01*
X88155483Y-82067490D01*
X88095862Y-82149550D01*
X88016657Y-82258566D01*
X87969155Y-82351795D01*
X87921180Y-82402591D01*
X87858670Y-82419500D01*
X85749500Y-82419500D01*
X85682461Y-82399815D01*
X85636706Y-82347011D01*
X85625500Y-82295500D01*
X85625500Y-42549500D01*
X85645185Y-42482461D01*
X85697989Y-42436706D01*
X85749500Y-42425500D01*
X86189127Y-42425500D01*
X86256166Y-42445185D01*
G37*
%TD.AperFunction*%
%TA.AperFunction,Conductor*%
G36*
X126682325Y-60830185D02*
G01*
X126728080Y-60882989D01*
X126738024Y-60952147D01*
X126708999Y-61015703D01*
X126702967Y-61022181D01*
X126561716Y-61163431D01*
X126561716Y-61163432D01*
X126561714Y-61163434D01*
X126510816Y-61233489D01*
X126427283Y-61348461D01*
X126323450Y-61552244D01*
X126252778Y-61769750D01*
X126252778Y-61769753D01*
X126217000Y-61995646D01*
X126217000Y-62224353D01*
X126252778Y-62450246D01*
X126252778Y-62450249D01*
X126323450Y-62667755D01*
X126384010Y-62786610D01*
X126427283Y-62871538D01*
X126561714Y-63056566D01*
X126723434Y-63218286D01*
X126723437Y-63218288D01*
X126808362Y-63279990D01*
X126851028Y-63335320D01*
X126857007Y-63404933D01*
X126836242Y-63444285D01*
X126834899Y-63461347D01*
X127433991Y-64060439D01*
X127369215Y-64087271D01*
X127265211Y-64156764D01*
X127176764Y-64245211D01*
X127107271Y-64349215D01*
X127080439Y-64413991D01*
X126481347Y-63814899D01*
X126481346Y-63814900D01*
X126427713Y-63888719D01*
X126323917Y-64092431D01*
X126253265Y-64309874D01*
X126253265Y-64309875D01*
X126217500Y-64535686D01*
X126217500Y-64764313D01*
X126253265Y-64990124D01*
X126253265Y-64990125D01*
X126323917Y-65207568D01*
X126427711Y-65411276D01*
X126481347Y-65485098D01*
X126481347Y-65485099D01*
X127080439Y-64886007D01*
X127107271Y-64950785D01*
X127176764Y-65054789D01*
X127265211Y-65143236D01*
X127369215Y-65212729D01*
X127433991Y-65239560D01*
X126834899Y-65838651D01*
X126836226Y-65855505D01*
X126851029Y-65874702D01*
X126857008Y-65944316D01*
X126824402Y-66006111D01*
X126808364Y-66020007D01*
X126723440Y-66081709D01*
X126723431Y-66081716D01*
X126561716Y-66243431D01*
X126561716Y-66243432D01*
X126561714Y-66243434D01*
X126503980Y-66322896D01*
X126427283Y-66428461D01*
X126323450Y-66632244D01*
X126252778Y-66849750D01*
X126252778Y-66849753D01*
X126217000Y-67075646D01*
X126217000Y-67304353D01*
X126252778Y-67530246D01*
X126252778Y-67530249D01*
X126323450Y-67747755D01*
X126323452Y-67747758D01*
X126427283Y-67951538D01*
X126561714Y-68136566D01*
X126723434Y-68298286D01*
X126792923Y-68348773D01*
X126807938Y-68359682D01*
X126850603Y-68415013D01*
X126856582Y-68484626D01*
X126823976Y-68546421D01*
X126807938Y-68560318D01*
X126723432Y-68621715D01*
X126561716Y-68783431D01*
X126561716Y-68783432D01*
X126561714Y-68783434D01*
X126503980Y-68862896D01*
X126427283Y-68968461D01*
X126421149Y-68980500D01*
X126394904Y-69032011D01*
X126392466Y-69036795D01*
X126344492Y-69087591D01*
X126281981Y-69104500D01*
X118049500Y-69104500D01*
X117982461Y-69084815D01*
X117936706Y-69032011D01*
X117925500Y-68980500D01*
X117925500Y-63535872D01*
X117945185Y-63468833D01*
X117997989Y-63423078D01*
X118067147Y-63413134D01*
X118115391Y-63431623D01*
X118115446Y-63431521D01*
X118116258Y-63431955D01*
X118118398Y-63432775D01*
X118119611Y-63433586D01*
X118120819Y-63434393D01*
X118120827Y-63434397D01*
X118266498Y-63494735D01*
X118266503Y-63494737D01*
X118421153Y-63525499D01*
X118421156Y-63525500D01*
X118421158Y-63525500D01*
X118578844Y-63525500D01*
X118578845Y-63525499D01*
X118733497Y-63494737D01*
X118879179Y-63434394D01*
X118973459Y-63371398D01*
X119040136Y-63350520D01*
X119042350Y-63350500D01*
X123561607Y-63350500D01*
X123561608Y-63350499D01*
X123682452Y-63326463D01*
X123796286Y-63279311D01*
X123898733Y-63210858D01*
X123985858Y-63123733D01*
X124054311Y-63021286D01*
X124101463Y-62907452D01*
X124125500Y-62786606D01*
X124125500Y-61542350D01*
X124145185Y-61475311D01*
X124146398Y-61473459D01*
X124196775Y-61398064D01*
X124209394Y-61379179D01*
X124269737Y-61233497D01*
X124300500Y-61078842D01*
X124300500Y-60934500D01*
X124320185Y-60867461D01*
X124372989Y-60821706D01*
X124424500Y-60810500D01*
X126615286Y-60810500D01*
X126682325Y-60830185D01*
G37*
%TD.AperFunction*%
%TA.AperFunction,Conductor*%
G36*
X92217539Y-42445185D02*
G01*
X92263294Y-42497989D01*
X92274500Y-42549500D01*
X92274500Y-64515500D01*
X92254815Y-64582539D01*
X92202011Y-64628294D01*
X92150500Y-64639500D01*
X90741330Y-64639500D01*
X90674291Y-64619815D01*
X90630845Y-64571795D01*
X90602161Y-64515500D01*
X90583343Y-64478567D01*
X90444517Y-64287490D01*
X90277510Y-64120483D01*
X90242872Y-64095317D01*
X90200207Y-64039989D01*
X90194228Y-63970375D01*
X90226833Y-63908580D01*
X90242873Y-63894682D01*
X90251064Y-63888731D01*
X90277510Y-63869517D01*
X90444517Y-63702510D01*
X90583343Y-63511433D01*
X90690568Y-63300992D01*
X90763553Y-63076368D01*
X90772278Y-63021283D01*
X90800500Y-62843097D01*
X90800500Y-62606902D01*
X90763553Y-62373631D01*
X90690566Y-62149003D01*
X90634002Y-62037991D01*
X90583343Y-61938567D01*
X90444517Y-61747490D01*
X90277510Y-61580483D01*
X90242872Y-61555317D01*
X90200207Y-61499989D01*
X90194228Y-61430375D01*
X90226833Y-61368580D01*
X90242873Y-61354682D01*
X90277510Y-61329517D01*
X90444517Y-61162510D01*
X90583343Y-60971433D01*
X90690568Y-60760992D01*
X90763553Y-60536368D01*
X90782222Y-60418497D01*
X90800500Y-60303097D01*
X90800500Y-60066902D01*
X90763553Y-59833631D01*
X90711915Y-59674707D01*
X90690568Y-59609008D01*
X90690566Y-59609005D01*
X90690566Y-59609003D01*
X90602161Y-59435500D01*
X90583343Y-59398567D01*
X90444517Y-59207490D01*
X90277510Y-59040483D01*
X90242872Y-59015317D01*
X90200207Y-58959989D01*
X90194228Y-58890375D01*
X90226833Y-58828580D01*
X90242873Y-58814682D01*
X90277510Y-58789517D01*
X90444517Y-58622510D01*
X90583343Y-58431433D01*
X90690568Y-58220992D01*
X90763553Y-57996368D01*
X90800500Y-57763097D01*
X90800500Y-57526902D01*
X90763553Y-57293631D01*
X90690566Y-57069003D01*
X90634002Y-56957991D01*
X90583343Y-56858567D01*
X90444517Y-56667490D01*
X90277510Y-56500483D01*
X90242872Y-56475317D01*
X90200207Y-56419989D01*
X90194228Y-56350375D01*
X90226833Y-56288580D01*
X90242873Y-56274682D01*
X90277510Y-56249517D01*
X90444517Y-56082510D01*
X90583343Y-55891433D01*
X90690568Y-55680992D01*
X90763553Y-55456368D01*
X90800500Y-55223097D01*
X90800500Y-54986902D01*
X90763553Y-54753631D01*
X90703802Y-54569738D01*
X90690568Y-54529008D01*
X90690566Y-54529005D01*
X90690566Y-54529003D01*
X90583342Y-54318566D01*
X90577331Y-54310292D01*
X90444517Y-54127490D01*
X90277510Y-53960483D01*
X90242872Y-53935317D01*
X90200207Y-53879989D01*
X90194228Y-53810375D01*
X90226833Y-53748580D01*
X90242873Y-53734682D01*
X90277510Y-53709517D01*
X90444517Y-53542510D01*
X90583343Y-53351433D01*
X90690568Y-53140992D01*
X90763553Y-52916368D01*
X90800500Y-52683097D01*
X90800500Y-52446902D01*
X90763553Y-52213631D01*
X90690566Y-51989003D01*
X90583342Y-51778566D01*
X90444517Y-51587490D01*
X90277510Y-51420483D01*
X90218282Y-51377451D01*
X90175617Y-51322122D01*
X90167550Y-51267404D01*
X90169104Y-51247657D01*
X89437574Y-50516128D01*
X89496853Y-50500245D01*
X89613147Y-50433102D01*
X89708102Y-50338147D01*
X89775245Y-50221853D01*
X89791128Y-50162575D01*
X90522658Y-50894105D01*
X90522658Y-50894104D01*
X90582914Y-50811169D01*
X90582918Y-50811163D01*
X90690102Y-50600802D01*
X90763065Y-50376247D01*
X90800000Y-50143052D01*
X90800000Y-49906947D01*
X90763065Y-49673752D01*
X90690102Y-49449197D01*
X90582914Y-49238828D01*
X90492964Y-49115023D01*
X90469484Y-49049216D01*
X90485309Y-48981162D01*
X90534640Y-48933220D01*
X90534546Y-48933047D01*
X90535169Y-48932706D01*
X90535415Y-48932468D01*
X90536480Y-48931990D01*
X90542326Y-48928797D01*
X90542331Y-48928796D01*
X90657546Y-48842546D01*
X90743796Y-48727331D01*
X90794091Y-48592483D01*
X90800500Y-48532873D01*
X90800499Y-46437128D01*
X90794091Y-46377517D01*
X90743796Y-46242669D01*
X90743795Y-46242668D01*
X90743793Y-46242664D01*
X90657547Y-46127455D01*
X90657544Y-46127452D01*
X90542335Y-46041206D01*
X90542328Y-46041202D01*
X90407482Y-45990908D01*
X90407483Y-45990908D01*
X90347883Y-45984501D01*
X90347881Y-45984500D01*
X90347873Y-45984500D01*
X90347864Y-45984500D01*
X88252129Y-45984500D01*
X88252123Y-45984501D01*
X88192516Y-45990908D01*
X88057671Y-46041202D01*
X88057669Y-46041204D01*
X87948811Y-46122695D01*
X87883347Y-46147112D01*
X87815074Y-46132260D01*
X87765668Y-46082855D01*
X87750500Y-46023428D01*
X87750500Y-43304604D01*
X87759939Y-43257151D01*
X87769737Y-43233497D01*
X87800500Y-43078842D01*
X87800500Y-42921158D01*
X87800500Y-42921155D01*
X87800499Y-42921153D01*
X87769738Y-42766510D01*
X87769737Y-42766503D01*
X87769735Y-42766498D01*
X87709397Y-42620827D01*
X87709390Y-42620814D01*
X87707771Y-42618391D01*
X87707312Y-42616927D01*
X87706521Y-42615446D01*
X87706801Y-42615295D01*
X87686893Y-42551713D01*
X87705378Y-42484333D01*
X87757356Y-42437643D01*
X87810873Y-42425500D01*
X92150500Y-42425500D01*
X92217539Y-42445185D01*
G37*
%TD.AperFunction*%
%TA.AperFunction,Conductor*%
G36*
X147442539Y-29520185D02*
G01*
X147488294Y-29572989D01*
X147499500Y-29624500D01*
X147499500Y-35986000D01*
X147479815Y-36053039D01*
X147427011Y-36098794D01*
X147375500Y-36110000D01*
X136620000Y-36110000D01*
X136620000Y-53890000D01*
X147375500Y-53890000D01*
X147442539Y-53909685D01*
X147488294Y-53962489D01*
X147499500Y-54014000D01*
X147499500Y-88375500D01*
X147479815Y-88442539D01*
X147427011Y-88488294D01*
X147375500Y-88499500D01*
X110904000Y-88499500D01*
X110836961Y-88479815D01*
X110791206Y-88427011D01*
X110780000Y-88375500D01*
X110780000Y-81985000D01*
X93090000Y-81985000D01*
X93090000Y-88375500D01*
X93070315Y-88442539D01*
X93017511Y-88488294D01*
X92966000Y-88499500D01*
X78624500Y-88499500D01*
X78557461Y-88479815D01*
X78511706Y-88427011D01*
X78500500Y-88375500D01*
X78500500Y-85878711D01*
X81149500Y-85878711D01*
X81149500Y-86121288D01*
X81181161Y-86361785D01*
X81243947Y-86596104D01*
X81335540Y-86817229D01*
X81336776Y-86820212D01*
X81458064Y-87030289D01*
X81458066Y-87030292D01*
X81458067Y-87030293D01*
X81605733Y-87222736D01*
X81605739Y-87222743D01*
X81777256Y-87394260D01*
X81777262Y-87394265D01*
X81969711Y-87541936D01*
X82179788Y-87663224D01*
X82403900Y-87756054D01*
X82638211Y-87818838D01*
X82818586Y-87842584D01*
X82878711Y-87850500D01*
X82878712Y-87850500D01*
X83121289Y-87850500D01*
X83169388Y-87844167D01*
X83361789Y-87818838D01*
X83596100Y-87756054D01*
X83820212Y-87663224D01*
X84030289Y-87541936D01*
X84222738Y-87394265D01*
X84394265Y-87222738D01*
X84541936Y-87030289D01*
X84663224Y-86820212D01*
X84756054Y-86596100D01*
X84818838Y-86361789D01*
X84850500Y-86121288D01*
X84850500Y-85878712D01*
X84818838Y-85638211D01*
X84756054Y-85403900D01*
X84663224Y-85179788D01*
X84541936Y-84969711D01*
X84394265Y-84777262D01*
X84394260Y-84777256D01*
X84222743Y-84605739D01*
X84222736Y-84605733D01*
X84030293Y-84458067D01*
X84030292Y-84458066D01*
X84030289Y-84458064D01*
X83820212Y-84336776D01*
X83799853Y-84328343D01*
X83596104Y-84243947D01*
X83361785Y-84181161D01*
X83121289Y-84149500D01*
X83121288Y-84149500D01*
X82878712Y-84149500D01*
X82878711Y-84149500D01*
X82638214Y-84181161D01*
X82403895Y-84243947D01*
X82179794Y-84336773D01*
X82179785Y-84336777D01*
X81969706Y-84458067D01*
X81777263Y-84605733D01*
X81777256Y-84605739D01*
X81605739Y-84777256D01*
X81605733Y-84777263D01*
X81458067Y-84969706D01*
X81336777Y-85179785D01*
X81336773Y-85179794D01*
X81243947Y-85403895D01*
X81181161Y-85638214D01*
X81149500Y-85878711D01*
X78500500Y-85878711D01*
X78500500Y-41738389D01*
X84374500Y-41738389D01*
X84374500Y-83106610D01*
X84398535Y-83227444D01*
X84398538Y-83227454D01*
X84445687Y-83341283D01*
X84445692Y-83341292D01*
X84514141Y-83443732D01*
X84514144Y-83443736D01*
X84601263Y-83530855D01*
X84601267Y-83530858D01*
X84703707Y-83599307D01*
X84703713Y-83599310D01*
X84703714Y-83599311D01*
X84817548Y-83646463D01*
X84938389Y-83670499D01*
X84938393Y-83670500D01*
X84938394Y-83670500D01*
X85061606Y-83670500D01*
X87858670Y-83670500D01*
X87925709Y-83690185D01*
X87969155Y-83738205D01*
X88016657Y-83831433D01*
X88155483Y-84022510D01*
X88322490Y-84189517D01*
X88513567Y-84328343D01*
X88530120Y-84336777D01*
X88724003Y-84435566D01*
X88724005Y-84435566D01*
X88724008Y-84435568D01*
X88793253Y-84458067D01*
X88948631Y-84508553D01*
X89181903Y-84545500D01*
X89215708Y-84545500D01*
X89282747Y-84565185D01*
X89328502Y-84617989D01*
X89338446Y-84687147D01*
X89309421Y-84750703D01*
X89250643Y-84788477D01*
X89247835Y-84789265D01*
X89190418Y-84804649D01*
X89156112Y-84813842D01*
X88944123Y-84901650D01*
X88944109Y-84901657D01*
X88745382Y-85016392D01*
X88563338Y-85156081D01*
X88401081Y-85318338D01*
X88261392Y-85500382D01*
X88146657Y-85699109D01*
X88146650Y-85699123D01*
X88058842Y-85911112D01*
X88058842Y-85911113D01*
X88002527Y-86121288D01*
X87999453Y-86132759D01*
X87999451Y-86132770D01*
X87969500Y-86360258D01*
X87969500Y-86589741D01*
X87994446Y-86779215D01*
X87999452Y-86817238D01*
X88056538Y-87030289D01*
X88058842Y-87038887D01*
X88146650Y-87250876D01*
X88146656Y-87250888D01*
X88229434Y-87394265D01*
X88261392Y-87449617D01*
X88401081Y-87631661D01*
X88401089Y-87631670D01*
X88563330Y-87793911D01*
X88563338Y-87793918D01*
X88745382Y-87933607D01*
X88745385Y-87933608D01*
X88745388Y-87933611D01*
X88944112Y-88048344D01*
X88944117Y-88048346D01*
X88944123Y-88048349D01*
X89035480Y-88086190D01*
X89156113Y-88136158D01*
X89377762Y-88195548D01*
X89605266Y-88225500D01*
X89605273Y-88225500D01*
X89834727Y-88225500D01*
X89834734Y-88225500D01*
X90062238Y-88195548D01*
X90283887Y-88136158D01*
X90495888Y-88048344D01*
X90694612Y-87933611D01*
X90876661Y-87793919D01*
X90876665Y-87793914D01*
X90876670Y-87793911D01*
X91038911Y-87631670D01*
X91038914Y-87631665D01*
X91038919Y-87631661D01*
X91178611Y-87449612D01*
X91293344Y-87250888D01*
X91381158Y-87038887D01*
X91440548Y-86817238D01*
X91470500Y-86589734D01*
X91470500Y-86360266D01*
X91440548Y-86132762D01*
X91381158Y-85911113D01*
X91293344Y-85699112D01*
X91178611Y-85500388D01*
X91178608Y-85500385D01*
X91178607Y-85500382D01*
X91038918Y-85318338D01*
X91038911Y-85318330D01*
X90876670Y-85156089D01*
X90876661Y-85156081D01*
X90694617Y-85016392D01*
X90495890Y-84901657D01*
X90495876Y-84901650D01*
X90283887Y-84813842D01*
X90062238Y-84754452D01*
X90024215Y-84749446D01*
X89834741Y-84724500D01*
X89834734Y-84724500D01*
X89769657Y-84724500D01*
X89702618Y-84704815D01*
X89656863Y-84652011D01*
X89646919Y-84582853D01*
X89675944Y-84519297D01*
X89731338Y-84482569D01*
X89875992Y-84435568D01*
X90086433Y-84328343D01*
X90277510Y-84189517D01*
X90444517Y-84022510D01*
X90583343Y-83831433D01*
X90690568Y-83620992D01*
X90763553Y-83396368D01*
X90772278Y-83341283D01*
X90800500Y-83163097D01*
X90800500Y-82926902D01*
X90763553Y-82693631D01*
X90690566Y-82469003D01*
X90583342Y-82258566D01*
X90444517Y-82067490D01*
X90277510Y-81900483D01*
X90242872Y-81875317D01*
X90200207Y-81819989D01*
X90194228Y-81750375D01*
X90226833Y-81688580D01*
X90242873Y-81674682D01*
X90277510Y-81649517D01*
X90444517Y-81482510D01*
X90583343Y-81291433D01*
X90630845Y-81198205D01*
X90678820Y-81147409D01*
X90741330Y-81130500D01*
X96561607Y-81130500D01*
X96561608Y-81130499D01*
X96682452Y-81106463D01*
X96796286Y-81059311D01*
X96898733Y-80990858D01*
X96985858Y-80903733D01*
X97054311Y-80801286D01*
X97101463Y-80687452D01*
X97125500Y-80566606D01*
X97125500Y-46549500D01*
X97145185Y-46482461D01*
X97197989Y-46436706D01*
X97249500Y-46425500D01*
X113371688Y-46425500D01*
X113438727Y-46445185D01*
X113484482Y-46497989D01*
X113494426Y-46567147D01*
X113472006Y-46622386D01*
X113416657Y-46698566D01*
X113309433Y-46909003D01*
X113236446Y-47133631D01*
X113199500Y-47366902D01*
X113199500Y-47603097D01*
X113236446Y-47836368D01*
X113309433Y-48060996D01*
X113383653Y-48206659D01*
X113416657Y-48271433D01*
X113555483Y-48462510D01*
X113722490Y-48629517D01*
X113781716Y-48672547D01*
X113824381Y-48727875D01*
X113832448Y-48782593D01*
X113830893Y-48802340D01*
X114562424Y-49533871D01*
X114503147Y-49549755D01*
X114386853Y-49616898D01*
X114291898Y-49711853D01*
X114224755Y-49828147D01*
X114208871Y-49887425D01*
X113477340Y-49155894D01*
X113417084Y-49238830D01*
X113309897Y-49449197D01*
X113236934Y-49673752D01*
X113200000Y-49906947D01*
X113200000Y-50143052D01*
X113236934Y-50376247D01*
X113309897Y-50600802D01*
X113417087Y-50811174D01*
X113477338Y-50894104D01*
X113477340Y-50894105D01*
X114208871Y-50162574D01*
X114224755Y-50221853D01*
X114291898Y-50338147D01*
X114386853Y-50433102D01*
X114503147Y-50500245D01*
X114562423Y-50516127D01*
X113830893Y-51247658D01*
X113832448Y-51267405D01*
X113818084Y-51335783D01*
X113781717Y-51377451D01*
X113722490Y-51420482D01*
X113555485Y-51587487D01*
X113555485Y-51587488D01*
X113555483Y-51587490D01*
X113495862Y-51669550D01*
X113416657Y-51778566D01*
X113309433Y-51989003D01*
X113236446Y-52213631D01*
X113199500Y-52446902D01*
X113199500Y-52683097D01*
X113236446Y-52916368D01*
X113309433Y-53140996D01*
X113385206Y-53289707D01*
X113416657Y-53351433D01*
X113555483Y-53542510D01*
X113722490Y-53709517D01*
X113757127Y-53734683D01*
X113799792Y-53790013D01*
X113805771Y-53859626D01*
X113773165Y-53921421D01*
X113757130Y-53935315D01*
X113739365Y-53948222D01*
X113722488Y-53960484D01*
X113555485Y-54127487D01*
X113555485Y-54127488D01*
X113555483Y-54127490D01*
X113517934Y-54179172D01*
X113416657Y-54318566D01*
X113309433Y-54529003D01*
X113236446Y-54753631D01*
X113199500Y-54986902D01*
X113199500Y-55223097D01*
X113236446Y-55456368D01*
X113309433Y-55680996D01*
X113416657Y-55891433D01*
X113555483Y-56082510D01*
X113722490Y-56249517D01*
X113757127Y-56274683D01*
X113799792Y-56330013D01*
X113805771Y-56399626D01*
X113773165Y-56461421D01*
X113757130Y-56475315D01*
X113756192Y-56475997D01*
X113722488Y-56500484D01*
X113555485Y-56667487D01*
X113555485Y-56667488D01*
X113555483Y-56667490D01*
X113516493Y-56721155D01*
X113416657Y-56858566D01*
X113309433Y-57069003D01*
X113236446Y-57293631D01*
X113199500Y-57526902D01*
X113199500Y-57763097D01*
X113236446Y-57996368D01*
X113309433Y-58220996D01*
X113416657Y-58431433D01*
X113555483Y-58622510D01*
X113722490Y-58789517D01*
X113757127Y-58814683D01*
X113799792Y-58870013D01*
X113805771Y-58939626D01*
X113773165Y-59001421D01*
X113757130Y-59015315D01*
X113739365Y-59028222D01*
X113722488Y-59040484D01*
X113555485Y-59207487D01*
X113555485Y-59207488D01*
X113555483Y-59207490D01*
X113495862Y-59289550D01*
X113416657Y-59398566D01*
X113309433Y-59609003D01*
X113236446Y-59833631D01*
X113199500Y-60066902D01*
X113199500Y-60303097D01*
X113236446Y-60536368D01*
X113309433Y-60760996D01*
X113397839Y-60934500D01*
X113416657Y-60971433D01*
X113555483Y-61162510D01*
X113722490Y-61329517D01*
X113757127Y-61354683D01*
X113799792Y-61410013D01*
X113805771Y-61479626D01*
X113773165Y-61541421D01*
X113757130Y-61555315D01*
X113739365Y-61568222D01*
X113722488Y-61580484D01*
X113555485Y-61747487D01*
X113555485Y-61747488D01*
X113555483Y-61747490D01*
X113495862Y-61829550D01*
X113416657Y-61938566D01*
X113309433Y-62149003D01*
X113236446Y-62373631D01*
X113199500Y-62606902D01*
X113199500Y-62843097D01*
X113236446Y-63076368D01*
X113309433Y-63300996D01*
X113391137Y-63461347D01*
X113416657Y-63511433D01*
X113555483Y-63702510D01*
X113722490Y-63869517D01*
X113757127Y-63894683D01*
X113799792Y-63950013D01*
X113805771Y-64019626D01*
X113773165Y-64081421D01*
X113757130Y-64095315D01*
X113739365Y-64108222D01*
X113722488Y-64120484D01*
X113555485Y-64287487D01*
X113555485Y-64287488D01*
X113555483Y-64287490D01*
X113521499Y-64334265D01*
X113416657Y-64478566D01*
X113309433Y-64689003D01*
X113236446Y-64913631D01*
X113199500Y-65146902D01*
X113199500Y-65383097D01*
X113236446Y-65616368D01*
X113309433Y-65840996D01*
X113369155Y-65958205D01*
X113416657Y-66051433D01*
X113555483Y-66242510D01*
X113722490Y-66409517D01*
X113757127Y-66434683D01*
X113799792Y-66490013D01*
X113805771Y-66559626D01*
X113773165Y-66621421D01*
X113757130Y-66635315D01*
X113739365Y-66648222D01*
X113722488Y-66660484D01*
X113555485Y-66827487D01*
X113555485Y-66827488D01*
X113555483Y-66827490D01*
X113495862Y-66909550D01*
X113416657Y-67018566D01*
X113309433Y-67229003D01*
X113236446Y-67453631D01*
X113199500Y-67686902D01*
X113199500Y-67923097D01*
X113236446Y-68156368D01*
X113309433Y-68380996D01*
X113369155Y-68498205D01*
X113416657Y-68591433D01*
X113555483Y-68782510D01*
X113722490Y-68949517D01*
X113757127Y-68974683D01*
X113799792Y-69030013D01*
X113805771Y-69099626D01*
X113773165Y-69161421D01*
X113757130Y-69175315D01*
X113739365Y-69188222D01*
X113722488Y-69200484D01*
X113555485Y-69367487D01*
X113555485Y-69367488D01*
X113555483Y-69367490D01*
X113495862Y-69449550D01*
X113416657Y-69558566D01*
X113309433Y-69769003D01*
X113236446Y-69993631D01*
X113199500Y-70226902D01*
X113199500Y-70463097D01*
X113236446Y-70696368D01*
X113309433Y-70920996D01*
X113369155Y-71038205D01*
X113416657Y-71131433D01*
X113555483Y-71322510D01*
X113722490Y-71489517D01*
X113757127Y-71514683D01*
X113799792Y-71570013D01*
X113805771Y-71639626D01*
X113773165Y-71701421D01*
X113757130Y-71715315D01*
X113739365Y-71728222D01*
X113722488Y-71740484D01*
X113555485Y-71907487D01*
X113555485Y-71907488D01*
X113555483Y-71907490D01*
X113498369Y-71986101D01*
X113416657Y-72098566D01*
X113309433Y-72309003D01*
X113236446Y-72533631D01*
X113199500Y-72766902D01*
X113199500Y-73003097D01*
X113236446Y-73236368D01*
X113309433Y-73460996D01*
X113369155Y-73578205D01*
X113416657Y-73671433D01*
X113555483Y-73862510D01*
X113722490Y-74029517D01*
X113757127Y-74054683D01*
X113799792Y-74110013D01*
X113805771Y-74179626D01*
X113773165Y-74241421D01*
X113757130Y-74255315D01*
X113739365Y-74268222D01*
X113722488Y-74280484D01*
X113555485Y-74447487D01*
X113555485Y-74447488D01*
X113555483Y-74447490D01*
X113495862Y-74529550D01*
X113416657Y-74638566D01*
X113309433Y-74849003D01*
X113236446Y-75073631D01*
X113199500Y-75306902D01*
X113199500Y-75543097D01*
X113236446Y-75776368D01*
X113309433Y-76000996D01*
X113372611Y-76124988D01*
X113416657Y-76211433D01*
X113555483Y-76402510D01*
X113722490Y-76569517D01*
X113757127Y-76594683D01*
X113799792Y-76650013D01*
X113805771Y-76719626D01*
X113773165Y-76781421D01*
X113757130Y-76795315D01*
X113739365Y-76808222D01*
X113722488Y-76820484D01*
X113555485Y-76987487D01*
X113555485Y-76987488D01*
X113555483Y-76987490D01*
X113495862Y-77069550D01*
X113416657Y-77178566D01*
X113309433Y-77389003D01*
X113236446Y-77613631D01*
X113199500Y-77846902D01*
X113199500Y-78083097D01*
X113236446Y-78316368D01*
X113309433Y-78540996D01*
X113393722Y-78706421D01*
X113416657Y-78751433D01*
X113555483Y-78942510D01*
X113722490Y-79109517D01*
X113757127Y-79134683D01*
X113799792Y-79190013D01*
X113805771Y-79259626D01*
X113773165Y-79321421D01*
X113757130Y-79335315D01*
X113739365Y-79348222D01*
X113722488Y-79360484D01*
X113555485Y-79527487D01*
X113555485Y-79527488D01*
X113555483Y-79527490D01*
X113495862Y-79609550D01*
X113416657Y-79718566D01*
X113309433Y-79929003D01*
X113236446Y-80153631D01*
X113199500Y-80386902D01*
X113199500Y-80623097D01*
X113236446Y-80856368D01*
X113309433Y-81080996D01*
X113388692Y-81236549D01*
X113416657Y-81291433D01*
X113555483Y-81482510D01*
X113722490Y-81649517D01*
X113757127Y-81674683D01*
X113799792Y-81730013D01*
X113805771Y-81799626D01*
X113773165Y-81861421D01*
X113757130Y-81875315D01*
X113739365Y-81888222D01*
X113722488Y-81900484D01*
X113555485Y-82067487D01*
X113555485Y-82067488D01*
X113555483Y-82067490D01*
X113495862Y-82149550D01*
X113416657Y-82258566D01*
X113309433Y-82469003D01*
X113236446Y-82693631D01*
X113199500Y-82926902D01*
X113199500Y-83163097D01*
X113236446Y-83396368D01*
X113309433Y-83620996D01*
X113369155Y-83738205D01*
X113416657Y-83831433D01*
X113555483Y-84022510D01*
X113722490Y-84189517D01*
X113913567Y-84328343D01*
X113930120Y-84336777D01*
X114124003Y-84435566D01*
X114124005Y-84435566D01*
X114124008Y-84435568D01*
X114193253Y-84458067D01*
X114268662Y-84482569D01*
X114326337Y-84522007D01*
X114353535Y-84586366D01*
X114341620Y-84655212D01*
X114294376Y-84706688D01*
X114230343Y-84724500D01*
X114115258Y-84724500D01*
X113899474Y-84752910D01*
X113887762Y-84754452D01*
X113802655Y-84777256D01*
X113666112Y-84813842D01*
X113454123Y-84901650D01*
X113454109Y-84901657D01*
X113255382Y-85016392D01*
X113073338Y-85156081D01*
X112911081Y-85318338D01*
X112771392Y-85500382D01*
X112656657Y-85699109D01*
X112656650Y-85699123D01*
X112568842Y-85911112D01*
X112568842Y-85911113D01*
X112512527Y-86121288D01*
X112509453Y-86132759D01*
X112509451Y-86132770D01*
X112479500Y-86360258D01*
X112479500Y-86589741D01*
X112504446Y-86779215D01*
X112509452Y-86817238D01*
X112566538Y-87030289D01*
X112568842Y-87038887D01*
X112656650Y-87250876D01*
X112656656Y-87250888D01*
X112739434Y-87394265D01*
X112771392Y-87449617D01*
X112911081Y-87631661D01*
X112911089Y-87631670D01*
X113073330Y-87793911D01*
X113073338Y-87793918D01*
X113255382Y-87933607D01*
X113255385Y-87933608D01*
X113255388Y-87933611D01*
X113454112Y-88048344D01*
X113454117Y-88048346D01*
X113454123Y-88048349D01*
X113545480Y-88086190D01*
X113666113Y-88136158D01*
X113887762Y-88195548D01*
X114115266Y-88225500D01*
X114115273Y-88225500D01*
X114344727Y-88225500D01*
X114344734Y-88225500D01*
X114572238Y-88195548D01*
X114793887Y-88136158D01*
X115005888Y-88048344D01*
X115204612Y-87933611D01*
X115386661Y-87793919D01*
X115386665Y-87793914D01*
X115386670Y-87793911D01*
X115548911Y-87631670D01*
X115548914Y-87631665D01*
X115548919Y-87631661D01*
X115688611Y-87449612D01*
X115803344Y-87250888D01*
X115891158Y-87038887D01*
X115950548Y-86817238D01*
X115980500Y-86589734D01*
X115980500Y-86360266D01*
X115950548Y-86132762D01*
X115891158Y-85911113D01*
X115877737Y-85878711D01*
X142649500Y-85878711D01*
X142649500Y-86121288D01*
X142681161Y-86361785D01*
X142743947Y-86596104D01*
X142835540Y-86817229D01*
X142836776Y-86820212D01*
X142958064Y-87030289D01*
X142958066Y-87030292D01*
X142958067Y-87030293D01*
X143105733Y-87222736D01*
X143105739Y-87222743D01*
X143277256Y-87394260D01*
X143277262Y-87394265D01*
X143469711Y-87541936D01*
X143679788Y-87663224D01*
X143903900Y-87756054D01*
X144138211Y-87818838D01*
X144318586Y-87842584D01*
X144378711Y-87850500D01*
X144378712Y-87850500D01*
X144621289Y-87850500D01*
X144669388Y-87844167D01*
X144861789Y-87818838D01*
X145096100Y-87756054D01*
X145320212Y-87663224D01*
X145530289Y-87541936D01*
X145722738Y-87394265D01*
X145894265Y-87222738D01*
X146041936Y-87030289D01*
X146163224Y-86820212D01*
X146256054Y-86596100D01*
X146318838Y-86361789D01*
X146350500Y-86121288D01*
X146350500Y-85878712D01*
X146318838Y-85638211D01*
X146256054Y-85403900D01*
X146163224Y-85179788D01*
X146041936Y-84969711D01*
X145894265Y-84777262D01*
X145894260Y-84777256D01*
X145722743Y-84605739D01*
X145722736Y-84605733D01*
X145530293Y-84458067D01*
X145530292Y-84458066D01*
X145530289Y-84458064D01*
X145320212Y-84336776D01*
X145299853Y-84328343D01*
X145096104Y-84243947D01*
X144861785Y-84181161D01*
X144621289Y-84149500D01*
X144621288Y-84149500D01*
X144378712Y-84149500D01*
X144378711Y-84149500D01*
X144138214Y-84181161D01*
X143903895Y-84243947D01*
X143679794Y-84336773D01*
X143679785Y-84336777D01*
X143469706Y-84458067D01*
X143277263Y-84605733D01*
X143277256Y-84605739D01*
X143105739Y-84777256D01*
X143105733Y-84777263D01*
X142958067Y-84969706D01*
X142836777Y-85179785D01*
X142836773Y-85179794D01*
X142743947Y-85403895D01*
X142681161Y-85638214D01*
X142649500Y-85878711D01*
X115877737Y-85878711D01*
X115803344Y-85699112D01*
X115688611Y-85500388D01*
X115688608Y-85500385D01*
X115688607Y-85500382D01*
X115548918Y-85318338D01*
X115548911Y-85318330D01*
X115386670Y-85156089D01*
X115386661Y-85156081D01*
X115204617Y-85016392D01*
X115005890Y-84901657D01*
X115005876Y-84901650D01*
X114793887Y-84813842D01*
X114702197Y-84789274D01*
X114642538Y-84752910D01*
X114612009Y-84690063D01*
X114620304Y-84620688D01*
X114664789Y-84566810D01*
X114731341Y-84545535D01*
X114734292Y-84545500D01*
X114818097Y-84545500D01*
X115051368Y-84508553D01*
X115131338Y-84482569D01*
X115275992Y-84435568D01*
X115486433Y-84328343D01*
X115677510Y-84189517D01*
X115844517Y-84022510D01*
X115983343Y-83831433D01*
X116090568Y-83620992D01*
X116163553Y-83396368D01*
X116172278Y-83341283D01*
X116200500Y-83163097D01*
X116200500Y-82926902D01*
X116163553Y-82693631D01*
X116090566Y-82469003D01*
X115983342Y-82258566D01*
X115844517Y-82067490D01*
X115677510Y-81900483D01*
X115642872Y-81875317D01*
X115600207Y-81819989D01*
X115594228Y-81750375D01*
X115626833Y-81688580D01*
X115642873Y-81674682D01*
X115677510Y-81649517D01*
X115844517Y-81482510D01*
X115983343Y-81291433D01*
X116090568Y-81080992D01*
X116163553Y-80856368D01*
X116169938Y-80816054D01*
X116200500Y-80623097D01*
X116200500Y-80386902D01*
X116163553Y-80153631D01*
X116090566Y-79929003D01*
X115983342Y-79718566D01*
X115844517Y-79527490D01*
X115677510Y-79360483D01*
X115642872Y-79335317D01*
X115600207Y-79279989D01*
X115594228Y-79210375D01*
X115626833Y-79148580D01*
X115642873Y-79134682D01*
X115677510Y-79109517D01*
X115844517Y-78942510D01*
X115983343Y-78751433D01*
X116090568Y-78540992D01*
X116163553Y-78316368D01*
X116175682Y-78239788D01*
X116200500Y-78083097D01*
X116200500Y-77846902D01*
X116163553Y-77613631D01*
X116090566Y-77389003D01*
X115983342Y-77178566D01*
X115844517Y-76987490D01*
X115677510Y-76820483D01*
X115642872Y-76795317D01*
X115600207Y-76739989D01*
X115594228Y-76670375D01*
X115626833Y-76608580D01*
X115642873Y-76594682D01*
X115677510Y-76569517D01*
X115844517Y-76402510D01*
X115983343Y-76211433D01*
X116090568Y-76000992D01*
X116163553Y-75776368D01*
X116195995Y-75571538D01*
X116200500Y-75543097D01*
X116200500Y-75306902D01*
X116163553Y-75073631D01*
X116090566Y-74849003D01*
X115983342Y-74638566D01*
X115844517Y-74447490D01*
X115677510Y-74280483D01*
X115642872Y-74255317D01*
X115600207Y-74199989D01*
X115594228Y-74130375D01*
X115626833Y-74068580D01*
X115642873Y-74054682D01*
X115677510Y-74029517D01*
X115844517Y-73862510D01*
X115983343Y-73671433D01*
X116090568Y-73460992D01*
X116163553Y-73236368D01*
X116195995Y-73031538D01*
X116200500Y-73003097D01*
X116200500Y-72766902D01*
X116163553Y-72533631D01*
X116140977Y-72464151D01*
X116090568Y-72309008D01*
X116090565Y-72309004D01*
X116090565Y-72309001D01*
X116085913Y-72299871D01*
X116073016Y-72231201D01*
X116099292Y-72166461D01*
X116156398Y-72126203D01*
X116220587Y-72121958D01*
X116238394Y-72125500D01*
X116361606Y-72125500D01*
X125457650Y-72125500D01*
X125524689Y-72145185D01*
X125526541Y-72146398D01*
X125620821Y-72209394D01*
X125620823Y-72209395D01*
X125620827Y-72209397D01*
X125766498Y-72269735D01*
X125766503Y-72269737D01*
X125917996Y-72299871D01*
X125921153Y-72300499D01*
X125921156Y-72300500D01*
X125921158Y-72300500D01*
X126078844Y-72300500D01*
X126084907Y-72299903D01*
X126085176Y-72302640D01*
X126142967Y-72307792D01*
X126198159Y-72350636D01*
X126220079Y-72403799D01*
X126252778Y-72610246D01*
X126252778Y-72610249D01*
X126323450Y-72827755D01*
X126323452Y-72827758D01*
X126427283Y-73031538D01*
X126561714Y-73216566D01*
X126723434Y-73378286D01*
X126792923Y-73428773D01*
X126807938Y-73439682D01*
X126850603Y-73495013D01*
X126856582Y-73564626D01*
X126823976Y-73626421D01*
X126807938Y-73640318D01*
X126723432Y-73701715D01*
X126561716Y-73863431D01*
X126561716Y-73863432D01*
X126561714Y-73863434D01*
X126503980Y-73942896D01*
X126427283Y-74048461D01*
X126323450Y-74252244D01*
X126252778Y-74469750D01*
X126252778Y-74469753D01*
X126217000Y-74695646D01*
X126217000Y-74924353D01*
X126252778Y-75150246D01*
X126252778Y-75150249D01*
X126323450Y-75367755D01*
X126323452Y-75367758D01*
X126427283Y-75571538D01*
X126561714Y-75756566D01*
X126723434Y-75918286D01*
X126792923Y-75968773D01*
X126807938Y-75979682D01*
X126850603Y-76035013D01*
X126856582Y-76104626D01*
X126823976Y-76166421D01*
X126807938Y-76180318D01*
X126723432Y-76241715D01*
X126561716Y-76403431D01*
X126561716Y-76403432D01*
X126561714Y-76403434D01*
X126503980Y-76482896D01*
X126427283Y-76588461D01*
X126323450Y-76792244D01*
X126252778Y-77009750D01*
X126252778Y-77009753D01*
X126217000Y-77235646D01*
X126217000Y-77464353D01*
X126252778Y-77690246D01*
X126252778Y-77690249D01*
X126323450Y-77907755D01*
X126385590Y-78029711D01*
X126427283Y-78111538D01*
X126561714Y-78296566D01*
X126723434Y-78458286D01*
X126792923Y-78508773D01*
X126807938Y-78519682D01*
X126850603Y-78575013D01*
X126856582Y-78644626D01*
X126823976Y-78706421D01*
X126807938Y-78720318D01*
X126723432Y-78781715D01*
X126561716Y-78943431D01*
X126561716Y-78943432D01*
X126561714Y-78943434D01*
X126515139Y-79007539D01*
X126427283Y-79128461D01*
X126323450Y-79332244D01*
X126252778Y-79549750D01*
X126252778Y-79549753D01*
X126217000Y-79775646D01*
X126217000Y-80004353D01*
X126252778Y-80230246D01*
X126252778Y-80230249D01*
X126323450Y-80447755D01*
X126412789Y-80623092D01*
X126427283Y-80651538D01*
X126561714Y-80836566D01*
X126723434Y-80998286D01*
X126908462Y-81132717D01*
X127036990Y-81198205D01*
X127112244Y-81236549D01*
X127329751Y-81307221D01*
X127329752Y-81307221D01*
X127329755Y-81307222D01*
X127555646Y-81343000D01*
X127555647Y-81343000D01*
X127784353Y-81343000D01*
X127784354Y-81343000D01*
X128010245Y-81307222D01*
X128010248Y-81307221D01*
X128010249Y-81307221D01*
X128227755Y-81236549D01*
X128227755Y-81236548D01*
X128227758Y-81236548D01*
X128431538Y-81132717D01*
X128616566Y-80998286D01*
X128778286Y-80836566D01*
X128912717Y-80651538D01*
X129016548Y-80447758D01*
X129036321Y-80386902D01*
X129087221Y-80230249D01*
X129087221Y-80230248D01*
X129087222Y-80230245D01*
X129123000Y-80004354D01*
X129123000Y-79775646D01*
X129087222Y-79549755D01*
X129087221Y-79549751D01*
X129087221Y-79549750D01*
X129016549Y-79332244D01*
X128967001Y-79235000D01*
X128912717Y-79128462D01*
X128778286Y-78943434D01*
X128773563Y-78938711D01*
X137579500Y-78938711D01*
X137579500Y-79181288D01*
X137611161Y-79421785D01*
X137673947Y-79656104D01*
X137723463Y-79775646D01*
X137766776Y-79880212D01*
X137888064Y-80090289D01*
X137888066Y-80090292D01*
X137888067Y-80090293D01*
X138035733Y-80282736D01*
X138035739Y-80282743D01*
X138207256Y-80454260D01*
X138207262Y-80454265D01*
X138399711Y-80601936D01*
X138609788Y-80723224D01*
X138833900Y-80816054D01*
X139068211Y-80878838D01*
X139248586Y-80902584D01*
X139308711Y-80910500D01*
X139308712Y-80910500D01*
X139551289Y-80910500D01*
X139602697Y-80903732D01*
X139791789Y-80878838D01*
X140026100Y-80816054D01*
X140250212Y-80723224D01*
X140460289Y-80601936D01*
X140652738Y-80454265D01*
X140824265Y-80282738D01*
X140971936Y-80090289D01*
X141093224Y-79880212D01*
X141186054Y-79656100D01*
X141248838Y-79421789D01*
X141280500Y-79181288D01*
X141280500Y-78938712D01*
X141248838Y-78698211D01*
X141186054Y-78463900D01*
X141093224Y-78239788D01*
X140971936Y-78029711D01*
X140824265Y-77837262D01*
X140824260Y-77837256D01*
X140652743Y-77665739D01*
X140652736Y-77665733D01*
X140460293Y-77518067D01*
X140460292Y-77518066D01*
X140460289Y-77518064D01*
X140250212Y-77396776D01*
X140250205Y-77396773D01*
X140026104Y-77303947D01*
X139791785Y-77241161D01*
X139551289Y-77209500D01*
X139551288Y-77209500D01*
X139308712Y-77209500D01*
X139308711Y-77209500D01*
X139068214Y-77241161D01*
X138833895Y-77303947D01*
X138609794Y-77396773D01*
X138609785Y-77396777D01*
X138399706Y-77518067D01*
X138207263Y-77665733D01*
X138207256Y-77665739D01*
X138035739Y-77837256D01*
X138035733Y-77837263D01*
X137888067Y-78029706D01*
X137766777Y-78239785D01*
X137766773Y-78239794D01*
X137673947Y-78463895D01*
X137611161Y-78698214D01*
X137579500Y-78938711D01*
X128773563Y-78938711D01*
X128616566Y-78781714D01*
X128532059Y-78720316D01*
X128489396Y-78664988D01*
X128483417Y-78595375D01*
X128516023Y-78533580D01*
X128532056Y-78519685D01*
X128616566Y-78458286D01*
X128778286Y-78296566D01*
X128912717Y-78111538D01*
X129016548Y-77907758D01*
X129039453Y-77837263D01*
X129087221Y-77690249D01*
X129087221Y-77690248D01*
X129087222Y-77690245D01*
X129123000Y-77464354D01*
X129123000Y-77235646D01*
X129087222Y-77009755D01*
X129087221Y-77009751D01*
X129087221Y-77009750D01*
X129016549Y-76792244D01*
X128967001Y-76695000D01*
X128912717Y-76588462D01*
X128778286Y-76403434D01*
X128616566Y-76241714D01*
X128532059Y-76180316D01*
X128489396Y-76124988D01*
X128483417Y-76055375D01*
X128516023Y-75993580D01*
X128532056Y-75979685D01*
X128616566Y-75918286D01*
X128778286Y-75756566D01*
X128912717Y-75571538D01*
X129016548Y-75367758D01*
X129087222Y-75150245D01*
X129123000Y-74924354D01*
X129123000Y-74695646D01*
X129087222Y-74469755D01*
X129087221Y-74469751D01*
X129087221Y-74469750D01*
X129016549Y-74252244D01*
X128967001Y-74155000D01*
X128912717Y-74048462D01*
X128778286Y-73863434D01*
X128616566Y-73701714D01*
X128532059Y-73640316D01*
X128489396Y-73584988D01*
X128483417Y-73515375D01*
X128516023Y-73453580D01*
X128532056Y-73439685D01*
X128616566Y-73378286D01*
X128778286Y-73216566D01*
X128912717Y-73031538D01*
X129016548Y-72827758D01*
X129087222Y-72610245D01*
X129123000Y-72384354D01*
X129123000Y-72155646D01*
X129087222Y-71929755D01*
X129087221Y-71929751D01*
X129087221Y-71929750D01*
X129016549Y-71712244D01*
X128967001Y-71615000D01*
X128912717Y-71508462D01*
X128778286Y-71323434D01*
X128616566Y-71161714D01*
X128532059Y-71100316D01*
X128489396Y-71044988D01*
X128483417Y-70975375D01*
X128516023Y-70913580D01*
X128532056Y-70899685D01*
X128616566Y-70838286D01*
X128778286Y-70676566D01*
X128912717Y-70491538D01*
X129016548Y-70287758D01*
X129087222Y-70070245D01*
X129123000Y-69844354D01*
X129123000Y-69615646D01*
X129087222Y-69389755D01*
X129087221Y-69389751D01*
X129087221Y-69389750D01*
X129016549Y-69172244D01*
X128967001Y-69075000D01*
X128912717Y-68968462D01*
X128778286Y-68783434D01*
X128616566Y-68621714D01*
X128532059Y-68560316D01*
X128489396Y-68504988D01*
X128483417Y-68435375D01*
X128516023Y-68373580D01*
X128532056Y-68359685D01*
X128616566Y-68298286D01*
X128778286Y-68136566D01*
X128912717Y-67951538D01*
X129016548Y-67747758D01*
X129087222Y-67530245D01*
X129123000Y-67304354D01*
X129123000Y-67075646D01*
X129087222Y-66849755D01*
X129087221Y-66849751D01*
X129087221Y-66849750D01*
X129016549Y-66632244D01*
X128967001Y-66535000D01*
X128912717Y-66428462D01*
X128778286Y-66243434D01*
X128616566Y-66081714D01*
X128531634Y-66020007D01*
X128488969Y-65964676D01*
X128482990Y-65895063D01*
X128503756Y-65855705D01*
X128505098Y-65838651D01*
X127906007Y-65239560D01*
X127970785Y-65212729D01*
X128074789Y-65143236D01*
X128163236Y-65054789D01*
X128232729Y-64950785D01*
X128259560Y-64886008D01*
X128858651Y-65485099D01*
X128858651Y-65485098D01*
X128912288Y-65411276D01*
X129016082Y-65207568D01*
X129086734Y-64990125D01*
X129086734Y-64990124D01*
X129122500Y-64764313D01*
X129122500Y-64535686D01*
X129086734Y-64309875D01*
X129086734Y-64309874D01*
X129016082Y-64092431D01*
X128912292Y-63888731D01*
X128912288Y-63888725D01*
X128858651Y-63814900D01*
X128858651Y-63814899D01*
X128259560Y-64413990D01*
X128232729Y-64349215D01*
X128163236Y-64245211D01*
X128074789Y-64156764D01*
X127970785Y-64087271D01*
X127906006Y-64060438D01*
X128505099Y-63461347D01*
X128503772Y-63444493D01*
X128488970Y-63425297D01*
X128482991Y-63355683D01*
X128515597Y-63293888D01*
X128531633Y-63279993D01*
X128616566Y-63218286D01*
X128778286Y-63056566D01*
X128912717Y-62871538D01*
X128939634Y-62818711D01*
X137579500Y-62818711D01*
X137579500Y-63061288D01*
X137611161Y-63301785D01*
X137673947Y-63536104D01*
X137742876Y-63702512D01*
X137766776Y-63760212D01*
X137888064Y-63970289D01*
X137888066Y-63970292D01*
X137888067Y-63970293D01*
X138035733Y-64162736D01*
X138035739Y-64162743D01*
X138207256Y-64334260D01*
X138207262Y-64334265D01*
X138399711Y-64481936D01*
X138609788Y-64603224D01*
X138833900Y-64696054D01*
X139068211Y-64758838D01*
X139248586Y-64782584D01*
X139308711Y-64790500D01*
X139308712Y-64790500D01*
X139551289Y-64790500D01*
X139599388Y-64784167D01*
X139791789Y-64758838D01*
X140026100Y-64696054D01*
X140250212Y-64603224D01*
X140460289Y-64481936D01*
X140652738Y-64334265D01*
X140824265Y-64162738D01*
X140971936Y-63970289D01*
X141093224Y-63760212D01*
X141186054Y-63536100D01*
X141248838Y-63301789D01*
X141280500Y-63061288D01*
X141280500Y-62818712D01*
X141248838Y-62578211D01*
X141186054Y-62343900D01*
X141093224Y-62119788D01*
X140971936Y-61909711D01*
X140847458Y-61747488D01*
X140824266Y-61717263D01*
X140824260Y-61717256D01*
X140652743Y-61545739D01*
X140652736Y-61545733D01*
X140460293Y-61398067D01*
X140460292Y-61398066D01*
X140460289Y-61398064D01*
X140250212Y-61276776D01*
X140250205Y-61276773D01*
X140026104Y-61183947D01*
X139791785Y-61121161D01*
X139551289Y-61089500D01*
X139551288Y-61089500D01*
X139308712Y-61089500D01*
X139308711Y-61089500D01*
X139068214Y-61121161D01*
X138833895Y-61183947D01*
X138609794Y-61276773D01*
X138609785Y-61276777D01*
X138399706Y-61398067D01*
X138207263Y-61545733D01*
X138207256Y-61545739D01*
X138035739Y-61717256D01*
X138035733Y-61717263D01*
X137888067Y-61909706D01*
X137888064Y-61909710D01*
X137888064Y-61909711D01*
X137879526Y-61924500D01*
X137766777Y-62119785D01*
X137766773Y-62119794D01*
X137673947Y-62343895D01*
X137611161Y-62578214D01*
X137579500Y-62818711D01*
X128939634Y-62818711D01*
X129016548Y-62667758D01*
X129045643Y-62578214D01*
X129087221Y-62450249D01*
X129087221Y-62450248D01*
X129087222Y-62450245D01*
X129123000Y-62224354D01*
X129123000Y-61995646D01*
X129087222Y-61769755D01*
X129087221Y-61769751D01*
X129087221Y-61769750D01*
X129016549Y-61552244D01*
X129013235Y-61545739D01*
X128912717Y-61348462D01*
X128778286Y-61163434D01*
X128637033Y-61022181D01*
X128603548Y-60960858D01*
X128608532Y-60891166D01*
X128650404Y-60835233D01*
X128715868Y-60810816D01*
X128724714Y-60810500D01*
X131561607Y-60810500D01*
X131561608Y-60810499D01*
X131682452Y-60786463D01*
X131796286Y-60739311D01*
X131898733Y-60670858D01*
X131985858Y-60583733D01*
X132054311Y-60481286D01*
X132101463Y-60367452D01*
X132125500Y-60246606D01*
X132125500Y-34249500D01*
X132145185Y-34182461D01*
X132197989Y-34136706D01*
X132249500Y-34125500D01*
X132756650Y-34125500D01*
X132823689Y-34145185D01*
X132825541Y-34146398D01*
X132919821Y-34209394D01*
X132919823Y-34209395D01*
X132919827Y-34209397D01*
X133016646Y-34249500D01*
X133065503Y-34269737D01*
X133220153Y-34300499D01*
X133220156Y-34300500D01*
X133220158Y-34300500D01*
X133377844Y-34300500D01*
X133377845Y-34300499D01*
X133532497Y-34269737D01*
X133678179Y-34209394D01*
X133809289Y-34121789D01*
X133920789Y-34010289D01*
X134008394Y-33879179D01*
X134068737Y-33733497D01*
X134099500Y-33578842D01*
X134099500Y-33421158D01*
X134099500Y-33421155D01*
X134099499Y-33421153D01*
X134078892Y-33317555D01*
X134068737Y-33266503D01*
X134042729Y-33203714D01*
X134008397Y-33120827D01*
X134008390Y-33120814D01*
X133920789Y-32989711D01*
X133920786Y-32989707D01*
X133809292Y-32878213D01*
X133809288Y-32878210D01*
X133678185Y-32790609D01*
X133678172Y-32790602D01*
X133532501Y-32730264D01*
X133532489Y-32730261D01*
X133377845Y-32699500D01*
X133377842Y-32699500D01*
X133220158Y-32699500D01*
X133220155Y-32699500D01*
X133065510Y-32730261D01*
X133065498Y-32730264D01*
X132919827Y-32790602D01*
X132919815Y-32790609D01*
X132825541Y-32853602D01*
X132758864Y-32874480D01*
X132756650Y-32874500D01*
X131438389Y-32874500D01*
X131317555Y-32898535D01*
X131317545Y-32898538D01*
X131203716Y-32945687D01*
X131203707Y-32945692D01*
X131101267Y-33014141D01*
X131101263Y-33014144D01*
X131014144Y-33101263D01*
X131014141Y-33101267D01*
X130945692Y-33203707D01*
X130945687Y-33203716D01*
X130898538Y-33317545D01*
X130898535Y-33317555D01*
X130874500Y-33438389D01*
X130874500Y-54907414D01*
X130854815Y-54974453D01*
X130802011Y-55020208D01*
X130732853Y-55030152D01*
X130726309Y-55029031D01*
X130577846Y-54999500D01*
X130577842Y-54999500D01*
X130420158Y-54999500D01*
X130420155Y-54999500D01*
X130265510Y-55030261D01*
X130265498Y-55030264D01*
X130119827Y-55090602D01*
X130119815Y-55090609D01*
X130025541Y-55153602D01*
X129958864Y-55174480D01*
X129956650Y-55174500D01*
X127192784Y-55174500D01*
X127125745Y-55154815D01*
X127079990Y-55102011D01*
X127070046Y-55032853D01*
X127071167Y-55026308D01*
X127100500Y-54878844D01*
X127100500Y-54721155D01*
X127076552Y-54600766D01*
X127082779Y-54531175D01*
X127125641Y-54475997D01*
X127191531Y-54452752D01*
X127259528Y-54468819D01*
X127267048Y-54473464D01*
X127320821Y-54509394D01*
X127320823Y-54509395D01*
X127320827Y-54509397D01*
X127373405Y-54531175D01*
X127466503Y-54569737D01*
X127621153Y-54600499D01*
X127621156Y-54600500D01*
X127621158Y-54600500D01*
X127778844Y-54600500D01*
X127778845Y-54600499D01*
X127933497Y-54569737D01*
X128079179Y-54509394D01*
X128210289Y-54421789D01*
X128321789Y-54310289D01*
X128409394Y-54179179D01*
X128469737Y-54033497D01*
X128500500Y-53878842D01*
X128500500Y-53721158D01*
X128500500Y-53721155D01*
X128500499Y-53721153D01*
X128469738Y-53566510D01*
X128469737Y-53566503D01*
X128459799Y-53542510D01*
X128409397Y-53420827D01*
X128409390Y-53420814D01*
X128321789Y-53289711D01*
X128321786Y-53289707D01*
X128210292Y-53178213D01*
X128210288Y-53178210D01*
X128079185Y-53090609D01*
X128079172Y-53090602D01*
X127933501Y-53030264D01*
X127933489Y-53030261D01*
X127778845Y-52999500D01*
X127778842Y-52999500D01*
X127621158Y-52999500D01*
X127621155Y-52999500D01*
X127466510Y-53030261D01*
X127466498Y-53030264D01*
X127320827Y-53090602D01*
X127320815Y-53090609D01*
X127226541Y-53153602D01*
X127159864Y-53174480D01*
X127157650Y-53174500D01*
X122049500Y-53174500D01*
X121982461Y-53154815D01*
X121936706Y-53102011D01*
X121925500Y-53050500D01*
X121925500Y-41738393D01*
X121925499Y-41738389D01*
X121901464Y-41617555D01*
X121901463Y-41617548D01*
X121854311Y-41503714D01*
X121854310Y-41503713D01*
X121854307Y-41503707D01*
X121785858Y-41401267D01*
X121785855Y-41401263D01*
X121698736Y-41314144D01*
X121698732Y-41314141D01*
X121596292Y-41245692D01*
X121596283Y-41245687D01*
X121482454Y-41198538D01*
X121482455Y-41198538D01*
X121482452Y-41198537D01*
X121482448Y-41198536D01*
X121482444Y-41198535D01*
X121361610Y-41174500D01*
X121361606Y-41174500D01*
X115321132Y-41174500D01*
X115254093Y-41154815D01*
X115208338Y-41102011D01*
X115198394Y-41032853D01*
X115227419Y-40969297D01*
X115245638Y-40952129D01*
X115386661Y-40843919D01*
X115386670Y-40843910D01*
X115548911Y-40681670D01*
X115548914Y-40681665D01*
X115548919Y-40681661D01*
X115688611Y-40499612D01*
X115803344Y-40300888D01*
X115891158Y-40088887D01*
X115950548Y-39867238D01*
X115980500Y-39639734D01*
X115980500Y-39410266D01*
X115950548Y-39182762D01*
X115891158Y-38961113D01*
X115803344Y-38749112D01*
X115688611Y-38550388D01*
X115688608Y-38550385D01*
X115688607Y-38550382D01*
X115548918Y-38368338D01*
X115548911Y-38368330D01*
X115386670Y-38206089D01*
X115386661Y-38206081D01*
X115204617Y-38066392D01*
X115005890Y-37951657D01*
X115005876Y-37951650D01*
X114793887Y-37863842D01*
X114572238Y-37804452D01*
X114534215Y-37799446D01*
X114344741Y-37774500D01*
X114344734Y-37774500D01*
X114115266Y-37774500D01*
X114115258Y-37774500D01*
X113898715Y-37803009D01*
X113887762Y-37804452D01*
X113794076Y-37829554D01*
X113666112Y-37863842D01*
X113454123Y-37951650D01*
X113454109Y-37951657D01*
X113255382Y-38066392D01*
X113073338Y-38206081D01*
X112911081Y-38368338D01*
X112771392Y-38550382D01*
X112656657Y-38749109D01*
X112656650Y-38749123D01*
X112568842Y-38961112D01*
X112509453Y-39182759D01*
X112509451Y-39182770D01*
X112479500Y-39410258D01*
X112479500Y-39639741D01*
X112504446Y-39829215D01*
X112509452Y-39867238D01*
X112509453Y-39867240D01*
X112568842Y-40088887D01*
X112656650Y-40300876D01*
X112656657Y-40300890D01*
X112771392Y-40499617D01*
X112911081Y-40681661D01*
X112911089Y-40681670D01*
X113073329Y-40843910D01*
X113073333Y-40843913D01*
X113073339Y-40843919D01*
X113214356Y-40952126D01*
X113255557Y-41008552D01*
X113259712Y-41078299D01*
X113225499Y-41139219D01*
X113163782Y-41171971D01*
X113138868Y-41174500D01*
X90811132Y-41174500D01*
X90744093Y-41154815D01*
X90698338Y-41102011D01*
X90688394Y-41032853D01*
X90717419Y-40969297D01*
X90735638Y-40952129D01*
X90876661Y-40843919D01*
X90876670Y-40843910D01*
X91038911Y-40681670D01*
X91038914Y-40681665D01*
X91038919Y-40681661D01*
X91178611Y-40499612D01*
X91293344Y-40300888D01*
X91381158Y-40088887D01*
X91440548Y-39867238D01*
X91470500Y-39639734D01*
X91470500Y-39410266D01*
X91440548Y-39182762D01*
X91381158Y-38961113D01*
X91293344Y-38749112D01*
X91178611Y-38550388D01*
X91178608Y-38550385D01*
X91178607Y-38550382D01*
X91038918Y-38368338D01*
X91038911Y-38368330D01*
X90876670Y-38206089D01*
X90876661Y-38206081D01*
X90694617Y-38066392D01*
X90495890Y-37951657D01*
X90495876Y-37951650D01*
X90283887Y-37863842D01*
X90062238Y-37804452D01*
X90024215Y-37799446D01*
X89834741Y-37774500D01*
X89834734Y-37774500D01*
X89605266Y-37774500D01*
X89605258Y-37774500D01*
X89388715Y-37803009D01*
X89377762Y-37804452D01*
X89284076Y-37829554D01*
X89156112Y-37863842D01*
X88944123Y-37951650D01*
X88944109Y-37951657D01*
X88745382Y-38066392D01*
X88563338Y-38206081D01*
X88401081Y-38368338D01*
X88261392Y-38550382D01*
X88146657Y-38749109D01*
X88146650Y-38749123D01*
X88058842Y-38961112D01*
X87999453Y-39182759D01*
X87999451Y-39182770D01*
X87969500Y-39410258D01*
X87969500Y-39639741D01*
X87994446Y-39829215D01*
X87999452Y-39867238D01*
X87999453Y-39867240D01*
X88058842Y-40088887D01*
X88146650Y-40300876D01*
X88146657Y-40300890D01*
X88261392Y-40499617D01*
X88401081Y-40681661D01*
X88401089Y-40681670D01*
X88563329Y-40843910D01*
X88563333Y-40843913D01*
X88563339Y-40843919D01*
X88704356Y-40952126D01*
X88745557Y-41008552D01*
X88749712Y-41078299D01*
X88715499Y-41139219D01*
X88653782Y-41171971D01*
X88628868Y-41174500D01*
X84938389Y-41174500D01*
X84817555Y-41198535D01*
X84817545Y-41198538D01*
X84703716Y-41245687D01*
X84703707Y-41245692D01*
X84601267Y-41314141D01*
X84601263Y-41314144D01*
X84514144Y-41401263D01*
X84514141Y-41401267D01*
X84445692Y-41503707D01*
X84445687Y-41503716D01*
X84398538Y-41617545D01*
X84398535Y-41617555D01*
X84374500Y-41738389D01*
X78500500Y-41738389D01*
X78500500Y-34378711D01*
X81149500Y-34378711D01*
X81149500Y-34621288D01*
X81181161Y-34861785D01*
X81243947Y-35096104D01*
X81336773Y-35320205D01*
X81336776Y-35320212D01*
X81458064Y-35530289D01*
X81458066Y-35530292D01*
X81458067Y-35530293D01*
X81605733Y-35722736D01*
X81605739Y-35722743D01*
X81777256Y-35894260D01*
X81777262Y-35894265D01*
X81969711Y-36041936D01*
X82179788Y-36163224D01*
X82403900Y-36256054D01*
X82638211Y-36318838D01*
X82818586Y-36342584D01*
X82878711Y-36350500D01*
X82878712Y-36350500D01*
X83121289Y-36350500D01*
X83169388Y-36344167D01*
X83361789Y-36318838D01*
X83596100Y-36256054D01*
X83820212Y-36163224D01*
X84030289Y-36041936D01*
X84222738Y-35894265D01*
X84394265Y-35722738D01*
X84541936Y-35530289D01*
X84663224Y-35320212D01*
X84756054Y-35096100D01*
X84818838Y-34861789D01*
X84850500Y-34621288D01*
X84850500Y-34378712D01*
X84818838Y-34138211D01*
X84756054Y-33903900D01*
X84752063Y-33894266D01*
X84744195Y-33875269D01*
X84663224Y-33679788D01*
X84541936Y-33469711D01*
X84425183Y-33317555D01*
X84394266Y-33277263D01*
X84394260Y-33277256D01*
X84222743Y-33105739D01*
X84222736Y-33105733D01*
X84030293Y-32958067D01*
X84030292Y-32958066D01*
X84030289Y-32958064D01*
X83858661Y-32858974D01*
X83820214Y-32836777D01*
X83820205Y-32836773D01*
X83596104Y-32743947D01*
X83361785Y-32681161D01*
X83121289Y-32649500D01*
X83121288Y-32649500D01*
X82878712Y-32649500D01*
X82878711Y-32649500D01*
X82638214Y-32681161D01*
X82403895Y-32743947D01*
X82179794Y-32836773D01*
X82179785Y-32836777D01*
X81969706Y-32958067D01*
X81777263Y-33105733D01*
X81777256Y-33105739D01*
X81605739Y-33277256D01*
X81605733Y-33277263D01*
X81458067Y-33469706D01*
X81336777Y-33679785D01*
X81336773Y-33679794D01*
X81243947Y-33903895D01*
X81181161Y-34138214D01*
X81149500Y-34378711D01*
X78500500Y-34378711D01*
X78500500Y-32378711D01*
X142649500Y-32378711D01*
X142649500Y-32621288D01*
X142681161Y-32861785D01*
X142743947Y-33096104D01*
X142835675Y-33317555D01*
X142836776Y-33320212D01*
X142958064Y-33530289D01*
X142958066Y-33530292D01*
X142958067Y-33530293D01*
X143105733Y-33722736D01*
X143105739Y-33722743D01*
X143277256Y-33894260D01*
X143277263Y-33894266D01*
X143390321Y-33981018D01*
X143469711Y-34041936D01*
X143679788Y-34163224D01*
X143903900Y-34256054D01*
X144138211Y-34318838D01*
X144318586Y-34342584D01*
X144378711Y-34350500D01*
X144378712Y-34350500D01*
X144621289Y-34350500D01*
X144669388Y-34344167D01*
X144861789Y-34318838D01*
X145096100Y-34256054D01*
X145320212Y-34163224D01*
X145530289Y-34041936D01*
X145722738Y-33894265D01*
X145894265Y-33722738D01*
X146041936Y-33530289D01*
X146163224Y-33320212D01*
X146256054Y-33096100D01*
X146318838Y-32861789D01*
X146350500Y-32621288D01*
X146350500Y-32378712D01*
X146318838Y-32138211D01*
X146256054Y-31903900D01*
X146163224Y-31679788D01*
X146041936Y-31469711D01*
X145894265Y-31277262D01*
X145894260Y-31277256D01*
X145722743Y-31105739D01*
X145722736Y-31105733D01*
X145530293Y-30958067D01*
X145530292Y-30958066D01*
X145530289Y-30958064D01*
X145320212Y-30836776D01*
X145320205Y-30836773D01*
X145096104Y-30743947D01*
X144861785Y-30681161D01*
X144621289Y-30649500D01*
X144621288Y-30649500D01*
X144378712Y-30649500D01*
X144378711Y-30649500D01*
X144138214Y-30681161D01*
X143903895Y-30743947D01*
X143679794Y-30836773D01*
X143679785Y-30836777D01*
X143469706Y-30958067D01*
X143277263Y-31105733D01*
X143277256Y-31105739D01*
X143105739Y-31277256D01*
X143105733Y-31277263D01*
X142958067Y-31469706D01*
X142836777Y-31679785D01*
X142836773Y-31679794D01*
X142743947Y-31903895D01*
X142681161Y-32138214D01*
X142649500Y-32378711D01*
X78500500Y-32378711D01*
X78500500Y-29624500D01*
X78520185Y-29557461D01*
X78572989Y-29511706D01*
X78624500Y-29500500D01*
X147375500Y-29500500D01*
X147442539Y-29520185D01*
G37*
%TD.AperFunction*%
%TD*%
M02*
