%TF.GenerationSoftware,KiCad,Pcbnew,10.0.5*%
%TF.CreationDate,2026-09-01T15:17:19-04:00*%
%TF.ProjectId,pcb,7063622e-6b69-4636-9164-5f7063625858,rev?*%
%TF.SameCoordinates,Original*%
%TF.FileFunction,Soldermask,Top*%
%TF.FilePolarity,Negative*%
%FSLAX46Y46*%
G04 Gerber Fmt 4.6, Leading zero omitted, Abs format (unit mm)*
G04 Created by KiCad (PCBNEW 10.0.5) date 2026-09-01 15:17:19*
%MOMM*%
%LPD*%
G01*
G04 APERTURE LIST*
G04 Aperture macros list*
%AMRoundRect*
0 Rectangle with rounded corners*
0 $1 Rounding radius*
0 $2 $3 $4 $5 $6 $7 $8 $9 X,Y pos of 4 corners*
0 Add a 4 corners polygon primitive as box body*
4,1,4,$2,$3,$4,$5,$6,$7,$8,$9,$2,$3,0*
0 Add four circle primitives for the rounded corners*
1,1,$1+$1,$2,$3*
1,1,$1+$1,$4,$5*
1,1,$1+$1,$6,$7*
1,1,$1+$1,$8,$9*
0 Add four rect primitives between the rounded corners*
20,1,$1+$1,$2,$3,$4,$5,0*
20,1,$1+$1,$4,$5,$6,$7,0*
20,1,$1+$1,$6,$7,$8,$9,0*
20,1,$1+$1,$8,$9,$2,$3,0*%
G04 Aperture macros list end*
%ADD10C,3.200000*%
%ADD11C,2.109000*%
%ADD12R,1.000000X2.450000*%
%ADD13R,2.450000X1.000000*%
%ADD14RoundRect,0.250000X-0.250000X-0.475000X0.250000X-0.475000X0.250000X0.475000X-0.250000X0.475000X0*%
%ADD15C,3.000000*%
%ADD16RoundRect,0.102000X-1.000000X-1.000000X1.000000X-1.000000X1.000000X1.000000X-1.000000X1.000000X0*%
%ADD17C,2.204000*%
G04 APERTURE END LIST*
D10*
%TO.C,U4*%
X139430000Y-62940000D03*
X139430000Y-79060000D03*
D11*
X127670000Y-77350000D03*
X127670000Y-64650000D03*
X127670000Y-79890000D03*
X127670000Y-67190000D03*
X127670000Y-69730000D03*
X127670000Y-62110000D03*
X127670000Y-74810000D03*
X127670000Y-72270000D03*
%TD*%
D12*
%TO.C,DWM1*%
X136098800Y-38700000D03*
X134698800Y-38700000D03*
X133298800Y-38700000D03*
X131898800Y-38700000D03*
X130498800Y-38700000D03*
X129098800Y-38700000D03*
X127698800Y-38700000D03*
X126298800Y-38700000D03*
D13*
X124003800Y-40100000D03*
X124003800Y-41500000D03*
X124003800Y-42900000D03*
X124003800Y-44300000D03*
X124003800Y-45700000D03*
X124003800Y-47100000D03*
X124003800Y-48500000D03*
X124003800Y-49900000D03*
D12*
X126300000Y-51300000D03*
X127700000Y-51300000D03*
X129098800Y-51300000D03*
X130498800Y-51300000D03*
X131898800Y-51300000D03*
X133298800Y-51300000D03*
X134698800Y-51300000D03*
X136098800Y-51300000D03*
%TD*%
D14*
%TO.C,C2*%
X126000000Y-35250000D03*
X126000000Y-33350000D03*
%TD*%
D10*
%TO.C,H4*%
X144500000Y-86000000D03*
%TD*%
%TO.C,H3*%
X83000000Y-86000000D03*
%TD*%
%TO.C,H2*%
X144500000Y-32500000D03*
%TD*%
%TO.C,H1*%
X83000000Y-34500000D03*
%TD*%
D15*
%TO.C,U1*%
X89720000Y-39525000D03*
X89720000Y-86475000D03*
X114230000Y-39525000D03*
X114230000Y-86475000D03*
D16*
X89300000Y-47485000D03*
D17*
X89300000Y-50025000D03*
X89300000Y-52565000D03*
X89300000Y-55105000D03*
X89300000Y-57645000D03*
X89300000Y-60185000D03*
X89300000Y-62725000D03*
X89300000Y-65265000D03*
X89300000Y-67805000D03*
X89300000Y-70345000D03*
X89300000Y-72885000D03*
X89300000Y-75425000D03*
X89300000Y-77965000D03*
X89300000Y-80505000D03*
X89300000Y-83045000D03*
X114700000Y-83045000D03*
X114700000Y-80505000D03*
X114700000Y-77965000D03*
X114700000Y-75425000D03*
X114700000Y-72885000D03*
X114700000Y-70345000D03*
X114700000Y-67805000D03*
X114700000Y-65265000D03*
X114700000Y-62725000D03*
X114700000Y-60185000D03*
X114700000Y-57645000D03*
X114700000Y-55105000D03*
X114700000Y-52565000D03*
X114700000Y-50025000D03*
X114700000Y-47485000D03*
%TD*%
M02*
