%TF.GenerationSoftware,KiCad,Pcbnew,10.0.5*%
%TF.CreationDate,2026-09-01T15:17:19-04:00*%
%TF.ProjectId,pcb,7063622e-6b69-4636-9164-5f7063625858,rev?*%
%TF.SameCoordinates,Original*%
%TF.FileFunction,Copper,L1,Top*%
%TF.FilePolarity,Positive*%
%FSLAX46Y46*%
G04 Gerber Fmt 4.6, Leading zero omitted, Abs format (unit mm)*
G04 Created by KiCad (PCBNEW 10.0.5) date 2026-09-01 15:17:19*
%MOMM*%
%LPD*%
G01*
G04 APERTURE LIST*
G04 Aperture macros list*
%AMRoundRect*
0 Rectangle with rounded corners*
0 $1 Rounding radius*
0 $2 $3 $4 $5 $6 $7 $8 $9 X,Y pos of 4 corners*
0 Add a 4 corners polygon primitive as box body*
4,1,4,$2,$3,$4,$5,$6,$7,$8,$9,$2,$3,0*
0 Add four circle primitives for the rounded corners*
1,1,$1+$1,$2,$3*
1,1,$1+$1,$4,$5*
1,1,$1+$1,$6,$7*
1,1,$1+$1,$8,$9*
0 Add four rect primitives between the rounded corners*
20,1,$1+$1,$2,$3,$4,$5,0*
20,1,$1+$1,$4,$5,$6,$7,0*
20,1,$1+$1,$6,$7,$8,$9,0*
20,1,$1+$1,$8,$9,$2,$3,0*%
G04 Aperture macros list end*
%TA.AperFunction,ComponentPad*%
%ADD10C,1.905000*%
%TD*%
%TA.AperFunction,SMDPad,CuDef*%
%ADD11R,1.000000X2.450000*%
%TD*%
%TA.AperFunction,SMDPad,CuDef*%
%ADD12R,2.450000X1.000000*%
%TD*%
%TA.AperFunction,SMDPad,CuDef*%
%ADD13RoundRect,0.250000X-0.250000X-0.475000X0.250000X-0.475000X0.250000X0.475000X-0.250000X0.475000X0*%
%TD*%
%TA.AperFunction,ComponentPad*%
%ADD14R,2.000000X2.000000*%
%TD*%
%TA.AperFunction,ComponentPad*%
%ADD15C,2.000000*%
%TD*%
%TA.AperFunction,ViaPad*%
%ADD16C,0.800000*%
%TD*%
%TA.AperFunction,ViaPad*%
%ADD17C,0.600000*%
%TD*%
%TA.AperFunction,Conductor*%
%ADD18C,0.500000*%
%TD*%
%TA.AperFunction,Conductor*%
%ADD19C,0.250000*%
%TD*%
G04 APERTURE END LIST*
D10*
%TO.P,U4,AD0*%
%TO.N,unconnected-(U4-PadAD0)*%
X127670000Y-77350000D03*
%TO.P,U4,GND*%
%TO.N,GND*%
X127670000Y-64650000D03*
%TO.P,U4,INT*%
%TO.N,unconnected-(U4-PadINT)*%
X127670000Y-79890000D03*
%TO.P,U4,SCL*%
%TO.N,/I2C_SCL*%
X127670000Y-67190000D03*
%TO.P,U4,SDA*%
%TO.N,/I2C_SDA*%
X127670000Y-69730000D03*
%TO.P,U4,VCC*%
%TO.N,+5V*%
X127670000Y-62110000D03*
%TO.P,U4,XCL*%
%TO.N,unconnected-(U4-PadXCL)*%
X127670000Y-74810000D03*
%TO.P,U4,XDA*%
%TO.N,unconnected-(U4-PadXDA)*%
X127670000Y-72270000D03*
%TD*%
D11*
%TO.P,DWM1,1*%
%TO.N,unconnected-(DWM1-EXTON-Pad1)*%
X136098800Y-38700000D03*
%TO.P,DWM1,2*%
%TO.N,unconnected-(DWM1-WAKEUP-Pad2)*%
X134698800Y-38700000D03*
%TO.P,DWM1,3*%
%TO.N,/UWB_RST*%
X133298800Y-38700000D03*
%TO.P,DWM1,4*%
%TO.N,unconnected-(DWM1-GPIO7-Pad4)*%
X131898800Y-38700000D03*
%TO.P,DWM1,5*%
%TO.N,+3V3*%
X130498800Y-38700000D03*
%TO.P,DWM1,6*%
X129098800Y-38700000D03*
%TO.P,DWM1,7*%
X127698800Y-38700000D03*
%TO.P,DWM1,8*%
%TO.N,GND*%
X126298800Y-38700000D03*
D12*
%TO.P,DWM1,9*%
%TO.N,unconnected-(DWM1-GPIO6{slash}EXTRXE{slash}SPIHA-Pad9)*%
X124003800Y-40100000D03*
%TO.P,DWM1,10*%
%TO.N,unconnected-(DWM1-GPIO5{slash}EXTTXE{slash}SPIPOL-Pad10)*%
X124003800Y-41500000D03*
%TO.P,DWM1,11*%
%TO.N,unconnected-(DWM1-GPIO4{slash}EXTPA-Pad11)*%
X124003800Y-42900000D03*
%TO.P,DWM1,12*%
%TO.N,unconnected-(DWM1-GPIO3{slash}TXLED-Pad12)*%
X124003800Y-44300000D03*
%TO.P,DWM1,13*%
%TO.N,unconnected-(DWM1-GPIO2{slash}RXLED-Pad13)*%
X124003800Y-45700000D03*
%TO.P,DWM1,14*%
%TO.N,unconnected-(DWM1-GPIO1{slash}SFDLED-Pad14)*%
X124003800Y-47100000D03*
%TO.P,DWM1,15*%
%TO.N,unconnected-(DWM1-GPIO0{slash}RXOKLED-Pad15)*%
X124003800Y-48500000D03*
%TO.P,DWM1,16*%
%TO.N,GND*%
X124003800Y-49900000D03*
D11*
%TO.P,DWM1,17*%
%TO.N,/UWB_CS*%
X126300000Y-51300000D03*
%TO.P,DWM1,18*%
%TO.N,/UWB_MOSI*%
X127700000Y-51300000D03*
%TO.P,DWM1,19*%
%TO.N,/UWB_MISO*%
X129098800Y-51300000D03*
%TO.P,DWM1,20*%
%TO.N,/UWB_SCK*%
X130498800Y-51300000D03*
%TO.P,DWM1,21*%
%TO.N,GND*%
X131898800Y-51300000D03*
%TO.P,DWM1,22*%
%TO.N,/UWB_IRQ*%
X133298800Y-51300000D03*
%TO.P,DWM1,23*%
%TO.N,GND*%
X134698800Y-51300000D03*
%TO.P,DWM1,24*%
X136098800Y-51300000D03*
%TD*%
D13*
%TO.P,C2,1*%
%TO.N,+3V3*%
X126000000Y-35250000D03*
%TO.P,C2,2*%
%TO.N,GND*%
X126000000Y-33350000D03*
%TD*%
D14*
%TO.P,U1,1*%
%TO.N,+3V3*%
X89300000Y-47485000D03*
D15*
%TO.P,U1,2*%
%TO.N,GND*%
X89300000Y-50025000D03*
%TO.P,U1,3*%
%TO.N,unconnected-(U1-D15-Pad3)*%
X89300000Y-52565000D03*
%TO.P,U1,4*%
%TO.N,unconnected-(U1-D2-Pad4)*%
X89300000Y-55105000D03*
%TO.P,U1,5*%
%TO.N,unconnected-(U1-D4-Pad5)*%
X89300000Y-57645000D03*
%TO.P,U1,6*%
%TO.N,unconnected-(U1-RX2-Pad6)*%
X89300000Y-60185000D03*
%TO.P,U1,7*%
%TO.N,unconnected-(U1-TX2-Pad7)*%
X89300000Y-62725000D03*
%TO.P,U1,8*%
%TO.N,/UWB_CS*%
X89300000Y-65265000D03*
%TO.P,U1,9*%
%TO.N,/UWB_SCK*%
X89300000Y-67805000D03*
%TO.P,U1,10*%
%TO.N,/UWB_MISO*%
X89300000Y-70345000D03*
%TO.P,U1,11*%
%TO.N,/I2C_SDA*%
X89300000Y-72885000D03*
%TO.P,U1,12*%
%TO.N,unconnected-(U1-RX0-Pad12)*%
X89300000Y-75425000D03*
%TO.P,U1,13*%
%TO.N,unconnected-(U1-TX0-Pad13)*%
X89300000Y-77965000D03*
%TO.P,U1,14*%
%TO.N,/I2C_SCL*%
X89300000Y-80505000D03*
%TO.P,U1,15*%
%TO.N,/UWB_MOSI*%
X89300000Y-83045000D03*
%TO.P,U1,16*%
%TO.N,unconnected-(U1-EN-Pad16)*%
X114700000Y-83045000D03*
%TO.P,U1,17*%
%TO.N,unconnected-(U1-VP-Pad17)*%
X114700000Y-80505000D03*
%TO.P,U1,18*%
%TO.N,unconnected-(U1-VN-Pad18)*%
X114700000Y-77965000D03*
%TO.P,U1,19*%
%TO.N,unconnected-(U1-D34-Pad19)*%
X114700000Y-75425000D03*
%TO.P,U1,20*%
%TO.N,unconnected-(U1-D35-Pad20)*%
X114700000Y-72885000D03*
%TO.P,U1,21*%
%TO.N,unconnected-(U1-D32-Pad21)*%
X114700000Y-70345000D03*
%TO.P,U1,22*%
%TO.N,unconnected-(U1-D33-Pad22)*%
X114700000Y-67805000D03*
%TO.P,U1,23*%
%TO.N,unconnected-(U1-D25-Pad23)*%
X114700000Y-65265000D03*
%TO.P,U1,24*%
%TO.N,/UWB_IRQ*%
X114700000Y-62725000D03*
%TO.P,U1,25*%
%TO.N,/UWB_RST*%
X114700000Y-60185000D03*
%TO.P,U1,26*%
%TO.N,unconnected-(U1-D14-Pad26)*%
X114700000Y-57645000D03*
%TO.P,U1,27*%
%TO.N,unconnected-(U1-D12-Pad27)*%
X114700000Y-55105000D03*
%TO.P,U1,28*%
%TO.N,unconnected-(U1-D13-Pad28)*%
X114700000Y-52565000D03*
%TO.P,U1,29*%
%TO.N,GND*%
X114700000Y-50025000D03*
%TO.P,U1,30*%
%TO.N,+5V*%
X114700000Y-47485000D03*
%TD*%
D16*
%TO.N,GND*%
X132000000Y-79000000D03*
X112000000Y-35000000D03*
X100000000Y-50000000D03*
X140000000Y-70000000D03*
X95000000Y-35000000D03*
X120000000Y-79000000D03*
X100000000Y-58000000D03*
X81000000Y-50000000D03*
X100000000Y-79000000D03*
X140000000Y-58000000D03*
X122500000Y-49900000D03*
X81000000Y-70000000D03*
X136000000Y-45000000D03*
X100000000Y-66000000D03*
X105000000Y-35000000D03*
X100000000Y-74000000D03*
X81000000Y-60000000D03*
X119000000Y-36000000D03*
X122000000Y-66000000D03*
D17*
%TO.N,/I2C_SCL*%
X126000000Y-71500000D03*
%TO.N,/UWB_RST*%
X133299000Y-33500000D03*
X118800000Y-60185000D03*
%TO.N,+3V3*%
X87000000Y-43000000D03*
%TO.N,/UWB_CS*%
X126300000Y-54800000D03*
%TO.N,/UWB_MOSI*%
X127700000Y-53800000D03*
%TO.N,/UWB_MISO*%
X129099000Y-56800000D03*
%TO.N,/UWB_SCK*%
X130499000Y-55800000D03*
%TO.N,/UWB_IRQ*%
X123500000Y-61000000D03*
X118500000Y-62725000D03*
%TD*%
%TO.N,GND*%
D18*
X124003800Y-49900000D02*
X122500000Y-49900000D01*
%TO.N,/I2C_SCL*%
D19*
X126000000Y-71500000D02*
X126000000Y-67190000D01*
X126000000Y-67190000D02*
X127670000Y-67190000D01*
%TO.N,+5V*%
D18*
X121500000Y-62110000D02*
X127670000Y-62110000D01*
X114700000Y-47485000D02*
X121500000Y-47485000D01*
X121500000Y-47485000D02*
X121500000Y-62110000D01*
%TO.N,/UWB_RST*%
D19*
X114700000Y-60185000D02*
X118800000Y-60185000D01*
X133299000Y-33500000D02*
X133299000Y-38700000D01*
%TO.N,+3V3*%
D18*
X87000000Y-31500000D02*
X130499000Y-31500000D01*
X87000000Y-43000000D02*
X87000000Y-31500000D01*
X130499000Y-31500000D02*
X130499000Y-38700000D01*
D19*
X126000000Y-35250000D02*
X130499000Y-35250000D01*
D18*
X127699000Y-38700000D02*
X130499000Y-38700000D01*
%TO.N,/UWB_CS*%
D19*
X126300000Y-54800000D02*
X126300000Y-51300000D01*
%TO.N,/UWB_MOSI*%
X127700000Y-53800000D02*
X127700000Y-51300000D01*
%TO.N,/UWB_MISO*%
X129099000Y-56800000D02*
X129099000Y-51300000D01*
%TO.N,/UWB_SCK*%
X130499000Y-55800000D02*
X130499000Y-51300000D01*
%TO.N,/UWB_IRQ*%
X133299000Y-57500000D02*
X133299000Y-51300000D01*
X123500000Y-57500000D02*
X133299000Y-57500000D01*
X114700000Y-62725000D02*
X118500000Y-62725000D01*
X123500000Y-61000000D02*
X123500000Y-57500000D01*
%TD*%
%TA.AperFunction,Conductor*%
%TO.N,GND*%
G36*
X122448809Y-49378173D02*
G01*
X122536468Y-49443795D01*
X122536471Y-49443797D01*
X122671317Y-49494091D01*
X122671316Y-49494091D01*
X122678244Y-49494835D01*
X122730927Y-49500500D01*
X125276672Y-49500499D01*
X125336283Y-49494091D01*
X125336285Y-49494090D01*
X125336287Y-49494090D01*
X125343831Y-49492308D01*
X125344246Y-49494066D01*
X125404158Y-49489771D01*
X125465486Y-49523246D01*
X125498982Y-49584564D01*
X125494009Y-49654256D01*
X125452147Y-49710197D01*
X125452137Y-49710204D01*
X125442455Y-49717452D01*
X125442452Y-49717455D01*
X125356206Y-49832664D01*
X125356202Y-49832671D01*
X125305908Y-49967517D01*
X125299501Y-50027116D01*
X125299501Y-50027123D01*
X125299500Y-50027135D01*
X125299500Y-52572870D01*
X125299501Y-52572876D01*
X125305908Y-52632483D01*
X125356202Y-52767328D01*
X125356206Y-52767335D01*
X125442452Y-52882544D01*
X125442455Y-52882547D01*
X125557664Y-52968793D01*
X125557666Y-52968794D01*
X125557669Y-52968796D01*
X125593832Y-52982284D01*
X125649766Y-53024154D01*
X125674184Y-53089618D01*
X125674500Y-53098466D01*
X125674500Y-54257650D01*
X125654815Y-54324689D01*
X125653626Y-54326503D01*
X125643433Y-54341759D01*
X125590609Y-54420815D01*
X125590602Y-54420828D01*
X125530264Y-54566498D01*
X125530261Y-54566510D01*
X125499500Y-54721153D01*
X125499500Y-54878846D01*
X125530261Y-55033489D01*
X125530264Y-55033501D01*
X125590602Y-55179172D01*
X125590609Y-55179185D01*
X125678210Y-55310288D01*
X125678213Y-55310292D01*
X125789707Y-55421786D01*
X125789711Y-55421789D01*
X125920814Y-55509390D01*
X125920827Y-55509397D01*
X126058683Y-55566498D01*
X126066503Y-55569737D01*
X126170624Y-55590448D01*
X126221153Y-55600499D01*
X126221156Y-55600500D01*
X126221158Y-55600500D01*
X126378844Y-55600500D01*
X126378845Y-55600499D01*
X126533497Y-55569737D01*
X126679179Y-55509394D01*
X126810289Y-55421789D01*
X126921789Y-55310289D01*
X127009394Y-55179179D01*
X127069737Y-55033497D01*
X127100500Y-54878842D01*
X127100500Y-54721158D01*
X127100500Y-54721155D01*
X127088349Y-54660073D01*
X127076552Y-54600764D01*
X127082779Y-54531176D01*
X127125641Y-54475998D01*
X127191531Y-54452753D01*
X127259528Y-54468820D01*
X127267059Y-54473473D01*
X127320809Y-54509387D01*
X127320818Y-54509392D01*
X127320821Y-54509394D01*
X127320823Y-54509394D01*
X127320827Y-54509397D01*
X127458683Y-54566498D01*
X127466503Y-54569737D01*
X127621153Y-54600499D01*
X127621156Y-54600500D01*
X127621158Y-54600500D01*
X127778844Y-54600500D01*
X127778845Y-54600499D01*
X127933497Y-54569737D01*
X128079179Y-54509394D01*
X128210289Y-54421789D01*
X128211263Y-54420815D01*
X128261819Y-54370260D01*
X128323142Y-54336775D01*
X128392834Y-54341759D01*
X128448767Y-54383631D01*
X128473184Y-54449095D01*
X128473500Y-54457941D01*
X128473500Y-56257650D01*
X128453815Y-56324689D01*
X128452602Y-56326541D01*
X128389609Y-56420815D01*
X128389602Y-56420828D01*
X128329264Y-56566498D01*
X128329261Y-56566510D01*
X128298500Y-56721153D01*
X128298500Y-56750500D01*
X128278815Y-56817539D01*
X128226011Y-56863294D01*
X128174500Y-56874500D01*
X123438389Y-56874500D01*
X123317555Y-56898535D01*
X123317545Y-56898538D01*
X123203716Y-56945687D01*
X123203707Y-56945692D01*
X123101267Y-57014141D01*
X123101263Y-57014144D01*
X123014144Y-57101263D01*
X123014141Y-57101267D01*
X122945692Y-57203707D01*
X122945687Y-57203716D01*
X122898538Y-57317545D01*
X122898535Y-57317555D01*
X122874500Y-57438389D01*
X122874500Y-60457650D01*
X122854815Y-60524689D01*
X122853626Y-60526503D01*
X122832802Y-60557668D01*
X122790609Y-60620815D01*
X122790602Y-60620828D01*
X122730264Y-60766498D01*
X122730261Y-60766510D01*
X122699500Y-60921153D01*
X122699500Y-60921158D01*
X122699500Y-61078842D01*
X122699500Y-61078844D01*
X122699499Y-61078844D01*
X122725849Y-61211308D01*
X122719622Y-61280900D01*
X122676759Y-61336077D01*
X122610869Y-61359322D01*
X122604232Y-61359500D01*
X122374500Y-61359500D01*
X122307461Y-61339815D01*
X122261706Y-61287011D01*
X122250500Y-61235500D01*
X122250500Y-49477441D01*
X122270185Y-49410402D01*
X122322989Y-49364647D01*
X122392147Y-49354703D01*
X122448809Y-49378173D01*
G37*
%TD.AperFunction*%
%TA.AperFunction,Conductor*%
G36*
X147442539Y-29520185D02*
G01*
X147488294Y-29572989D01*
X147499500Y-29624500D01*
X147499500Y-35986000D01*
X147479815Y-36053039D01*
X147427011Y-36098794D01*
X147375500Y-36110000D01*
X136620000Y-36110000D01*
X136620000Y-36850500D01*
X136600315Y-36917539D01*
X136547511Y-36963294D01*
X136496000Y-36974500D01*
X135550929Y-36974500D01*
X135550923Y-36974501D01*
X135491316Y-36980908D01*
X135442132Y-36999253D01*
X135372440Y-37004237D01*
X135355467Y-36999253D01*
X135306282Y-36980908D01*
X135306283Y-36980908D01*
X135246683Y-36974501D01*
X135246681Y-36974500D01*
X135246673Y-36974500D01*
X135246664Y-36974500D01*
X134150929Y-36974500D01*
X134150923Y-36974501D01*
X134091315Y-36980909D01*
X134083771Y-36982692D01*
X134083446Y-36981318D01*
X134022130Y-36985698D01*
X133960810Y-36952207D01*
X133927331Y-36890880D01*
X133924500Y-36864534D01*
X133924500Y-34042350D01*
X133944185Y-33975311D01*
X133945398Y-33973459D01*
X133945809Y-33972843D01*
X134008394Y-33879179D01*
X134068737Y-33733497D01*
X134099500Y-33578842D01*
X134099500Y-33421158D01*
X134099500Y-33421155D01*
X134099499Y-33421153D01*
X134068738Y-33266510D01*
X134068737Y-33266503D01*
X134068735Y-33266498D01*
X134008397Y-33120827D01*
X134008390Y-33120814D01*
X133920789Y-32989711D01*
X133920786Y-32989707D01*
X133809292Y-32878213D01*
X133809288Y-32878210D01*
X133678185Y-32790609D01*
X133678172Y-32790602D01*
X133532501Y-32730264D01*
X133532489Y-32730261D01*
X133377845Y-32699500D01*
X133377842Y-32699500D01*
X133220158Y-32699500D01*
X133220155Y-32699500D01*
X133065510Y-32730261D01*
X133065498Y-32730264D01*
X132919827Y-32790602D01*
X132919814Y-32790609D01*
X132788711Y-32878210D01*
X132788707Y-32878213D01*
X132677213Y-32989707D01*
X132677210Y-32989711D01*
X132589609Y-33120814D01*
X132589602Y-33120827D01*
X132529264Y-33266498D01*
X132529261Y-33266510D01*
X132498500Y-33421153D01*
X132498500Y-33578846D01*
X132529261Y-33733489D01*
X132529264Y-33733501D01*
X132589602Y-33879172D01*
X132589609Y-33879184D01*
X132652602Y-33973459D01*
X132673480Y-34040136D01*
X132673500Y-34042350D01*
X132673500Y-36864683D01*
X132653815Y-36931722D01*
X132601011Y-36977477D01*
X132531853Y-36987421D01*
X132506962Y-36981069D01*
X132506283Y-36980908D01*
X132446683Y-36974501D01*
X132446681Y-36974500D01*
X132446673Y-36974500D01*
X132446665Y-36974500D01*
X131373500Y-36974500D01*
X131306461Y-36954815D01*
X131260706Y-36902011D01*
X131249500Y-36850500D01*
X131249500Y-32378711D01*
X142649500Y-32378711D01*
X142649500Y-32621288D01*
X142681161Y-32861785D01*
X142743947Y-33096104D01*
X142818986Y-33277263D01*
X142836776Y-33320212D01*
X142958064Y-33530289D01*
X142958066Y-33530292D01*
X142958067Y-33530293D01*
X143105733Y-33722736D01*
X143105739Y-33722743D01*
X143277256Y-33894260D01*
X143277263Y-33894266D01*
X143380470Y-33973459D01*
X143469711Y-34041936D01*
X143679788Y-34163224D01*
X143903900Y-34256054D01*
X144138211Y-34318838D01*
X144318586Y-34342584D01*
X144378711Y-34350500D01*
X144378712Y-34350500D01*
X144621289Y-34350500D01*
X144669388Y-34344167D01*
X144861789Y-34318838D01*
X145096100Y-34256054D01*
X145320212Y-34163224D01*
X145530289Y-34041936D01*
X145722738Y-33894265D01*
X145894265Y-33722738D01*
X146041936Y-33530289D01*
X146163224Y-33320212D01*
X146256054Y-33096100D01*
X146318838Y-32861789D01*
X146350500Y-32621288D01*
X146350500Y-32378712D01*
X146349945Y-32374500D01*
X146318838Y-32138214D01*
X146318838Y-32138211D01*
X146256054Y-31903900D01*
X146163224Y-31679788D01*
X146041936Y-31469711D01*
X145894265Y-31277262D01*
X145894260Y-31277256D01*
X145722743Y-31105739D01*
X145722736Y-31105733D01*
X145530293Y-30958067D01*
X145530292Y-30958066D01*
X145530289Y-30958064D01*
X145320212Y-30836776D01*
X145315712Y-30834912D01*
X145096104Y-30743947D01*
X144861785Y-30681161D01*
X144621289Y-30649500D01*
X144621288Y-30649500D01*
X144378712Y-30649500D01*
X144378711Y-30649500D01*
X144138214Y-30681161D01*
X143903895Y-30743947D01*
X143679794Y-30836773D01*
X143679785Y-30836777D01*
X143469706Y-30958067D01*
X143277263Y-31105733D01*
X143277256Y-31105739D01*
X143105739Y-31277256D01*
X143105733Y-31277263D01*
X142958067Y-31469706D01*
X142836777Y-31679785D01*
X142836773Y-31679794D01*
X142743947Y-31903895D01*
X142681161Y-32138214D01*
X142649500Y-32378711D01*
X131249500Y-32378711D01*
X131249500Y-31426079D01*
X131220659Y-31281092D01*
X131220658Y-31281091D01*
X131220658Y-31281087D01*
X131219071Y-31277256D01*
X131164087Y-31144511D01*
X131164080Y-31144498D01*
X131081951Y-31021584D01*
X131081948Y-31021580D01*
X130977419Y-30917051D01*
X130977415Y-30917048D01*
X130854501Y-30834919D01*
X130854488Y-30834912D01*
X130717917Y-30778343D01*
X130717907Y-30778340D01*
X130572920Y-30749500D01*
X130572918Y-30749500D01*
X87073918Y-30749500D01*
X86926082Y-30749500D01*
X86926080Y-30749500D01*
X86781092Y-30778340D01*
X86781082Y-30778343D01*
X86644511Y-30834912D01*
X86644498Y-30834919D01*
X86521584Y-30917048D01*
X86521580Y-30917051D01*
X86417051Y-31021580D01*
X86417048Y-31021584D01*
X86334919Y-31144498D01*
X86334912Y-31144511D01*
X86278343Y-31281082D01*
X86278340Y-31281092D01*
X86249500Y-31426079D01*
X86249500Y-42695396D01*
X86240062Y-42742844D01*
X86230263Y-42766503D01*
X86230262Y-42766506D01*
X86230260Y-42766511D01*
X86199500Y-42921153D01*
X86199500Y-43078846D01*
X86230261Y-43233489D01*
X86230264Y-43233501D01*
X86290602Y-43379172D01*
X86290609Y-43379185D01*
X86378210Y-43510288D01*
X86378213Y-43510292D01*
X86489707Y-43621786D01*
X86489711Y-43621789D01*
X86620814Y-43709390D01*
X86620827Y-43709397D01*
X86766498Y-43769735D01*
X86766503Y-43769737D01*
X86921153Y-43800499D01*
X86921156Y-43800500D01*
X86921158Y-43800500D01*
X87078844Y-43800500D01*
X87078845Y-43800499D01*
X87233497Y-43769737D01*
X87379179Y-43709394D01*
X87510289Y-43621789D01*
X87621789Y-43510289D01*
X87709394Y-43379179D01*
X87769737Y-43233497D01*
X87800500Y-43078842D01*
X87800500Y-42921158D01*
X87800500Y-42921155D01*
X87800499Y-42921153D01*
X87769739Y-42766511D01*
X87769738Y-42766508D01*
X87769737Y-42766503D01*
X87759937Y-42742844D01*
X87750500Y-42695396D01*
X87750500Y-39868132D01*
X87770185Y-39801093D01*
X87822989Y-39755338D01*
X87892147Y-39745394D01*
X87955703Y-39774419D01*
X87993477Y-39833197D01*
X87997439Y-39851947D01*
X87999450Y-39867227D01*
X87999451Y-39867232D01*
X87999452Y-39867238D01*
X88043729Y-40032483D01*
X88058842Y-40088887D01*
X88146650Y-40300876D01*
X88146656Y-40300888D01*
X88229964Y-40445183D01*
X88261392Y-40499617D01*
X88401081Y-40681661D01*
X88401089Y-40681670D01*
X88563330Y-40843911D01*
X88563338Y-40843918D01*
X88745382Y-40983607D01*
X88745385Y-40983608D01*
X88745388Y-40983611D01*
X88944112Y-41098344D01*
X88944117Y-41098346D01*
X88944123Y-41098349D01*
X89035480Y-41136190D01*
X89156113Y-41186158D01*
X89377762Y-41245548D01*
X89605266Y-41275500D01*
X89605273Y-41275500D01*
X89834727Y-41275500D01*
X89834734Y-41275500D01*
X90062238Y-41245548D01*
X90283887Y-41186158D01*
X90495888Y-41098344D01*
X90694612Y-40983611D01*
X90876661Y-40843919D01*
X90876665Y-40843914D01*
X90876670Y-40843911D01*
X91038911Y-40681670D01*
X91038914Y-40681665D01*
X91038919Y-40681661D01*
X91178611Y-40499612D01*
X91293344Y-40300888D01*
X91381158Y-40088887D01*
X91440548Y-39867238D01*
X91470500Y-39639734D01*
X91470500Y-39410266D01*
X91470499Y-39410258D01*
X112479500Y-39410258D01*
X112479500Y-39639741D01*
X112497232Y-39774419D01*
X112509452Y-39867238D01*
X112553729Y-40032483D01*
X112568842Y-40088887D01*
X112656650Y-40300876D01*
X112656656Y-40300888D01*
X112739964Y-40445183D01*
X112771392Y-40499617D01*
X112911081Y-40681661D01*
X112911089Y-40681670D01*
X113073330Y-40843911D01*
X113073338Y-40843918D01*
X113255382Y-40983607D01*
X113255385Y-40983608D01*
X113255388Y-40983611D01*
X113454112Y-41098344D01*
X113454117Y-41098346D01*
X113454123Y-41098349D01*
X113545480Y-41136190D01*
X113666113Y-41186158D01*
X113887762Y-41245548D01*
X114115266Y-41275500D01*
X114115273Y-41275500D01*
X114344727Y-41275500D01*
X114344734Y-41275500D01*
X114572238Y-41245548D01*
X114793887Y-41186158D01*
X115005888Y-41098344D01*
X115204612Y-40983611D01*
X115386661Y-40843919D01*
X115386665Y-40843914D01*
X115386670Y-40843911D01*
X115548911Y-40681670D01*
X115548914Y-40681665D01*
X115548919Y-40681661D01*
X115688611Y-40499612D01*
X115803344Y-40300888D01*
X115891158Y-40088887D01*
X115950548Y-39867238D01*
X115980500Y-39639734D01*
X115980500Y-39410266D01*
X115950548Y-39182762D01*
X115891158Y-38961113D01*
X115803344Y-38749112D01*
X115688611Y-38550388D01*
X115688608Y-38550385D01*
X115688607Y-38550382D01*
X115548918Y-38368338D01*
X115548911Y-38368330D01*
X115386670Y-38206089D01*
X115386661Y-38206081D01*
X115204617Y-38066392D01*
X115005890Y-37951657D01*
X115005876Y-37951650D01*
X114793887Y-37863842D01*
X114572238Y-37804452D01*
X114534215Y-37799446D01*
X114344741Y-37774500D01*
X114344734Y-37774500D01*
X114115266Y-37774500D01*
X114115258Y-37774500D01*
X113898715Y-37803009D01*
X113887762Y-37804452D01*
X113794076Y-37829554D01*
X113666112Y-37863842D01*
X113454123Y-37951650D01*
X113454109Y-37951657D01*
X113255382Y-38066392D01*
X113073338Y-38206081D01*
X112911081Y-38368338D01*
X112771392Y-38550382D01*
X112656657Y-38749109D01*
X112656650Y-38749123D01*
X112568842Y-38961112D01*
X112568842Y-38961113D01*
X112530045Y-39105909D01*
X112509453Y-39182759D01*
X112509451Y-39182770D01*
X112479500Y-39410258D01*
X91470499Y-39410258D01*
X91440548Y-39182762D01*
X91381158Y-38961113D01*
X91293344Y-38749112D01*
X91178611Y-38550388D01*
X91178608Y-38550385D01*
X91178607Y-38550382D01*
X91038918Y-38368338D01*
X91038911Y-38368330D01*
X90876670Y-38206089D01*
X90876661Y-38206081D01*
X90694617Y-38066392D01*
X90495890Y-37951657D01*
X90495876Y-37951650D01*
X90283887Y-37863842D01*
X90062238Y-37804452D01*
X90024215Y-37799446D01*
X89834741Y-37774500D01*
X89834734Y-37774500D01*
X89605266Y-37774500D01*
X89605258Y-37774500D01*
X89388715Y-37803009D01*
X89377762Y-37804452D01*
X89284076Y-37829554D01*
X89156112Y-37863842D01*
X88944123Y-37951650D01*
X88944109Y-37951657D01*
X88745382Y-38066392D01*
X88563338Y-38206081D01*
X88401081Y-38368338D01*
X88261392Y-38550382D01*
X88146657Y-38749109D01*
X88146650Y-38749123D01*
X88058842Y-38961112D01*
X88058842Y-38961113D01*
X88020045Y-39105909D01*
X87999453Y-39182759D01*
X87999451Y-39182770D01*
X87997439Y-39198053D01*
X87969172Y-39261949D01*
X87910847Y-39300420D01*
X87840983Y-39301251D01*
X87781759Y-39264179D01*
X87751981Y-39200973D01*
X87750500Y-39181867D01*
X87750500Y-32374500D01*
X87770185Y-32307461D01*
X87822989Y-32261706D01*
X87874500Y-32250500D01*
X125031826Y-32250500D01*
X125098865Y-32270185D01*
X125144620Y-32322989D01*
X125154564Y-32392147D01*
X125137365Y-32439597D01*
X125065643Y-32555875D01*
X125065641Y-32555880D01*
X125010494Y-32722302D01*
X125010493Y-32722309D01*
X125000000Y-32825013D01*
X125000000Y-33100000D01*
X126999999Y-33100000D01*
X126999999Y-32825028D01*
X126999998Y-32825013D01*
X126989505Y-32722302D01*
X126934358Y-32555880D01*
X126934356Y-32555875D01*
X126862635Y-32439597D01*
X126844195Y-32372204D01*
X126865118Y-32305541D01*
X126918760Y-32260771D01*
X126968174Y-32250500D01*
X129624500Y-32250500D01*
X129691539Y-32270185D01*
X129737294Y-32322989D01*
X129748500Y-32374500D01*
X129748500Y-34500500D01*
X129728815Y-34567539D01*
X129676011Y-34613294D01*
X129624500Y-34624500D01*
X127080301Y-34624500D01*
X127013262Y-34604815D01*
X126967507Y-34552011D01*
X126962595Y-34539504D01*
X126934814Y-34455666D01*
X126934810Y-34455660D01*
X126934809Y-34455657D01*
X126899601Y-34398577D01*
X126878656Y-34364620D01*
X126860216Y-34297229D01*
X126878657Y-34234426D01*
X126934355Y-34144126D01*
X126934358Y-34144119D01*
X126989505Y-33977697D01*
X126989506Y-33977690D01*
X126999999Y-33874986D01*
X127000000Y-33874973D01*
X127000000Y-33600000D01*
X125000001Y-33600000D01*
X125000001Y-33874986D01*
X125010494Y-33977697D01*
X125065641Y-34144119D01*
X125065645Y-34144128D01*
X125121342Y-34234427D01*
X125139782Y-34301819D01*
X125121343Y-34364618D01*
X125065189Y-34455661D01*
X125065186Y-34455666D01*
X125010001Y-34622203D01*
X125010001Y-34622204D01*
X125010000Y-34622204D01*
X124999500Y-34724983D01*
X124999500Y-35775001D01*
X124999501Y-35775019D01*
X125010000Y-35877796D01*
X125010001Y-35877799D01*
X125045856Y-35986000D01*
X125065186Y-36044334D01*
X125157288Y-36193656D01*
X125281344Y-36317712D01*
X125430666Y-36409814D01*
X125597203Y-36464999D01*
X125699991Y-36475500D01*
X126300008Y-36475499D01*
X126300016Y-36475498D01*
X126300019Y-36475498D01*
X126356302Y-36469748D01*
X126402797Y-36464999D01*
X126569334Y-36409814D01*
X126718656Y-36317712D01*
X126842712Y-36193656D01*
X126934814Y-36044334D01*
X126962595Y-35960495D01*
X127002368Y-35903051D01*
X127066884Y-35876228D01*
X127080301Y-35875500D01*
X129624500Y-35875500D01*
X129691539Y-35895185D01*
X129737294Y-35947989D01*
X129748500Y-35999500D01*
X129748500Y-36850500D01*
X129728815Y-36917539D01*
X129676011Y-36963294D01*
X129624500Y-36974500D01*
X128550929Y-36974500D01*
X128550923Y-36974501D01*
X128491316Y-36980908D01*
X128442132Y-36999253D01*
X128372440Y-37004237D01*
X128355467Y-36999253D01*
X128306282Y-36980908D01*
X128306283Y-36980908D01*
X128246683Y-36974501D01*
X128246681Y-36974500D01*
X128246673Y-36974500D01*
X128246664Y-36974500D01*
X127150929Y-36974500D01*
X127150923Y-36974501D01*
X127091316Y-36980908D01*
X126956471Y-37031202D01*
X126956464Y-37031206D01*
X126841255Y-37117452D01*
X126841252Y-37117455D01*
X126755006Y-37232664D01*
X126755002Y-37232671D01*
X126704708Y-37367517D01*
X126698301Y-37427116D01*
X126698300Y-37427135D01*
X126698300Y-39972870D01*
X126698301Y-39972876D01*
X126704708Y-40032483D01*
X126755002Y-40167328D01*
X126755006Y-40167335D01*
X126841252Y-40282544D01*
X126841255Y-40282547D01*
X126956464Y-40368793D01*
X126956471Y-40368797D01*
X127091317Y-40419091D01*
X127091316Y-40419091D01*
X127098244Y-40419835D01*
X127150927Y-40425500D01*
X128246672Y-40425499D01*
X128306283Y-40419091D01*
X128355465Y-40400746D01*
X128425155Y-40395761D01*
X128442133Y-40400747D01*
X128491308Y-40419088D01*
X128491311Y-40419088D01*
X128491317Y-40419091D01*
X128550927Y-40425500D01*
X129646672Y-40425499D01*
X129706283Y-40419091D01*
X129755465Y-40400746D01*
X129825155Y-40395761D01*
X129842133Y-40400747D01*
X129891308Y-40419088D01*
X129891311Y-40419088D01*
X129891317Y-40419091D01*
X129950927Y-40425500D01*
X131046672Y-40425499D01*
X131106283Y-40419091D01*
X131155465Y-40400746D01*
X131225155Y-40395761D01*
X131242133Y-40400747D01*
X131291308Y-40419088D01*
X131291311Y-40419088D01*
X131291317Y-40419091D01*
X131350927Y-40425500D01*
X132446672Y-40425499D01*
X132506283Y-40419091D01*
X132555465Y-40400746D01*
X132625155Y-40395761D01*
X132642133Y-40400747D01*
X132691308Y-40419088D01*
X132691311Y-40419088D01*
X132691317Y-40419091D01*
X132750927Y-40425500D01*
X133846672Y-40425499D01*
X133906283Y-40419091D01*
X133955465Y-40400746D01*
X134025155Y-40395761D01*
X134042133Y-40400747D01*
X134091308Y-40419088D01*
X134091311Y-40419088D01*
X134091317Y-40419091D01*
X134150927Y-40425500D01*
X135246672Y-40425499D01*
X135306283Y-40419091D01*
X135355465Y-40400746D01*
X135425155Y-40395761D01*
X135442133Y-40400747D01*
X135491308Y-40419088D01*
X135491311Y-40419088D01*
X135491317Y-40419091D01*
X135550927Y-40425500D01*
X136496000Y-40425499D01*
X136563039Y-40445183D01*
X136608794Y-40497987D01*
X136620000Y-40549499D01*
X136620000Y-53890000D01*
X147375500Y-53890000D01*
X147442539Y-53909685D01*
X147488294Y-53962489D01*
X147499500Y-54014000D01*
X147499500Y-88375500D01*
X147479815Y-88442539D01*
X147427011Y-88488294D01*
X147375500Y-88499500D01*
X110904000Y-88499500D01*
X110836961Y-88479815D01*
X110791206Y-88427011D01*
X110780000Y-88375500D01*
X110780000Y-86360258D01*
X112479500Y-86360258D01*
X112479500Y-86589741D01*
X112504446Y-86779215D01*
X112509452Y-86817238D01*
X112566538Y-87030289D01*
X112568842Y-87038887D01*
X112656650Y-87250876D01*
X112656656Y-87250888D01*
X112739434Y-87394265D01*
X112771392Y-87449617D01*
X112911081Y-87631661D01*
X112911089Y-87631670D01*
X113073330Y-87793911D01*
X113073338Y-87793918D01*
X113255382Y-87933607D01*
X113255385Y-87933608D01*
X113255388Y-87933611D01*
X113454112Y-88048344D01*
X113454117Y-88048346D01*
X113454123Y-88048349D01*
X113545480Y-88086190D01*
X113666113Y-88136158D01*
X113887762Y-88195548D01*
X114115266Y-88225500D01*
X114115273Y-88225500D01*
X114344727Y-88225500D01*
X114344734Y-88225500D01*
X114572238Y-88195548D01*
X114793887Y-88136158D01*
X115005888Y-88048344D01*
X115204612Y-87933611D01*
X115386661Y-87793919D01*
X115386665Y-87793914D01*
X115386670Y-87793911D01*
X115548911Y-87631670D01*
X115548914Y-87631665D01*
X115548919Y-87631661D01*
X115688611Y-87449612D01*
X115803344Y-87250888D01*
X115891158Y-87038887D01*
X115950548Y-86817238D01*
X115980500Y-86589734D01*
X115980500Y-86360266D01*
X115950548Y-86132762D01*
X115891158Y-85911113D01*
X115877737Y-85878711D01*
X142649500Y-85878711D01*
X142649500Y-86121288D01*
X142681161Y-86361785D01*
X142743947Y-86596104D01*
X142835540Y-86817229D01*
X142836776Y-86820212D01*
X142958064Y-87030289D01*
X142958066Y-87030292D01*
X142958067Y-87030293D01*
X143105733Y-87222736D01*
X143105739Y-87222743D01*
X143277256Y-87394260D01*
X143277262Y-87394265D01*
X143469711Y-87541936D01*
X143679788Y-87663224D01*
X143903900Y-87756054D01*
X144138211Y-87818838D01*
X144318586Y-87842584D01*
X144378711Y-87850500D01*
X144378712Y-87850500D01*
X144621289Y-87850500D01*
X144669388Y-87844167D01*
X144861789Y-87818838D01*
X145096100Y-87756054D01*
X145320212Y-87663224D01*
X145530289Y-87541936D01*
X145722738Y-87394265D01*
X145894265Y-87222738D01*
X146041936Y-87030289D01*
X146163224Y-86820212D01*
X146256054Y-86596100D01*
X146318838Y-86361789D01*
X146350500Y-86121288D01*
X146350500Y-85878712D01*
X146318838Y-85638211D01*
X146256054Y-85403900D01*
X146163224Y-85179788D01*
X146041936Y-84969711D01*
X145894265Y-84777262D01*
X145894260Y-84777256D01*
X145722743Y-84605739D01*
X145722736Y-84605733D01*
X145530293Y-84458067D01*
X145530292Y-84458066D01*
X145530289Y-84458064D01*
X145320212Y-84336776D01*
X145299853Y-84328343D01*
X145096104Y-84243947D01*
X144861785Y-84181161D01*
X144621289Y-84149500D01*
X144621288Y-84149500D01*
X144378712Y-84149500D01*
X144378711Y-84149500D01*
X144138214Y-84181161D01*
X143903895Y-84243947D01*
X143679794Y-84336773D01*
X143679785Y-84336777D01*
X143469706Y-84458067D01*
X143277263Y-84605733D01*
X143277256Y-84605739D01*
X143105739Y-84777256D01*
X143105733Y-84777263D01*
X142958067Y-84969706D01*
X142836777Y-85179785D01*
X142836773Y-85179794D01*
X142743947Y-85403895D01*
X142681161Y-85638214D01*
X142649500Y-85878711D01*
X115877737Y-85878711D01*
X115803344Y-85699112D01*
X115688611Y-85500388D01*
X115688608Y-85500385D01*
X115688607Y-85500382D01*
X115548918Y-85318338D01*
X115548911Y-85318330D01*
X115386670Y-85156089D01*
X115386661Y-85156081D01*
X115204617Y-85016392D01*
X115005890Y-84901657D01*
X115005876Y-84901650D01*
X114793887Y-84813842D01*
X114702197Y-84789274D01*
X114642538Y-84752910D01*
X114612009Y-84690063D01*
X114620304Y-84620688D01*
X114664789Y-84566810D01*
X114731341Y-84545535D01*
X114734292Y-84545500D01*
X114818097Y-84545500D01*
X115051368Y-84508553D01*
X115131338Y-84482569D01*
X115275992Y-84435568D01*
X115486433Y-84328343D01*
X115677510Y-84189517D01*
X115844517Y-84022510D01*
X115983343Y-83831433D01*
X116090568Y-83620992D01*
X116163553Y-83396368D01*
X116200500Y-83163097D01*
X116200500Y-82926902D01*
X116163553Y-82693631D01*
X116090566Y-82469003D01*
X115983342Y-82258566D01*
X115844517Y-82067490D01*
X115677510Y-81900483D01*
X115642872Y-81875317D01*
X115600207Y-81819989D01*
X115594228Y-81750375D01*
X115626833Y-81688580D01*
X115642873Y-81674682D01*
X115677510Y-81649517D01*
X115844517Y-81482510D01*
X115983343Y-81291433D01*
X116090568Y-81080992D01*
X116163553Y-80856368D01*
X116169938Y-80816054D01*
X116200500Y-80623097D01*
X116200500Y-80386902D01*
X116163553Y-80153631D01*
X116090566Y-79929003D01*
X115983342Y-79718566D01*
X115844517Y-79527490D01*
X115677510Y-79360483D01*
X115642872Y-79335317D01*
X115600207Y-79279989D01*
X115594228Y-79210375D01*
X115626833Y-79148580D01*
X115642873Y-79134682D01*
X115677510Y-79109517D01*
X115844517Y-78942510D01*
X115983343Y-78751433D01*
X116090568Y-78540992D01*
X116163553Y-78316368D01*
X116175682Y-78239788D01*
X116200500Y-78083097D01*
X116200500Y-77846902D01*
X116163553Y-77613631D01*
X116090566Y-77389003D01*
X115983342Y-77178566D01*
X115844517Y-76987490D01*
X115677510Y-76820483D01*
X115642872Y-76795317D01*
X115600207Y-76739989D01*
X115594228Y-76670375D01*
X115626833Y-76608580D01*
X115642873Y-76594682D01*
X115677510Y-76569517D01*
X115844517Y-76402510D01*
X115983343Y-76211433D01*
X116090568Y-76000992D01*
X116163553Y-75776368D01*
X116195995Y-75571538D01*
X116200500Y-75543097D01*
X116200500Y-75306902D01*
X116163553Y-75073631D01*
X116090566Y-74849003D01*
X115983342Y-74638566D01*
X115844517Y-74447490D01*
X115677510Y-74280483D01*
X115642872Y-74255317D01*
X115600207Y-74199989D01*
X115594228Y-74130375D01*
X115626833Y-74068580D01*
X115642873Y-74054682D01*
X115677510Y-74029517D01*
X115844517Y-73862510D01*
X115983343Y-73671433D01*
X116090568Y-73460992D01*
X116163553Y-73236368D01*
X116195995Y-73031538D01*
X116200500Y-73003097D01*
X116200500Y-72766902D01*
X116163553Y-72533631D01*
X116129689Y-72429412D01*
X116090568Y-72309008D01*
X116090566Y-72309005D01*
X116090566Y-72309003D01*
X115995175Y-72121789D01*
X115983343Y-72098567D01*
X115844517Y-71907490D01*
X115677510Y-71740483D01*
X115642872Y-71715317D01*
X115600207Y-71659989D01*
X115594228Y-71590375D01*
X115626833Y-71528580D01*
X115642873Y-71514682D01*
X115677510Y-71489517D01*
X115844517Y-71322510D01*
X115983343Y-71131433D01*
X116090568Y-70920992D01*
X116163553Y-70696368D01*
X116195995Y-70491538D01*
X116200500Y-70463097D01*
X116200500Y-70226902D01*
X116163553Y-69993631D01*
X116090566Y-69769003D01*
X115983342Y-69558566D01*
X115844517Y-69367490D01*
X115677510Y-69200483D01*
X115642872Y-69175317D01*
X115600207Y-69119989D01*
X115594228Y-69050375D01*
X115626833Y-68988580D01*
X115642873Y-68974682D01*
X115677510Y-68949517D01*
X115844517Y-68782510D01*
X115983343Y-68591433D01*
X116090568Y-68380992D01*
X116163553Y-68156368D01*
X116195995Y-67951538D01*
X116200500Y-67923097D01*
X116200500Y-67686902D01*
X116163553Y-67453631D01*
X116090566Y-67229003D01*
X115983342Y-67018566D01*
X115975335Y-67007545D01*
X115844517Y-66827490D01*
X115677510Y-66660483D01*
X115642872Y-66635317D01*
X115600207Y-66579989D01*
X115594228Y-66510375D01*
X115626833Y-66448580D01*
X115642873Y-66434682D01*
X115677510Y-66409517D01*
X115844517Y-66242510D01*
X115983343Y-66051433D01*
X116090568Y-65840992D01*
X116163553Y-65616368D01*
X116184344Y-65485098D01*
X116200500Y-65383097D01*
X116200500Y-65146902D01*
X116163553Y-64913631D01*
X116113257Y-64758838D01*
X116090568Y-64689008D01*
X116090566Y-64689005D01*
X116090566Y-64689003D01*
X116038648Y-64587109D01*
X116028371Y-64566940D01*
X115983343Y-64478567D01*
X115844517Y-64287490D01*
X115677510Y-64120483D01*
X115642872Y-64095317D01*
X115600207Y-64039989D01*
X115594228Y-63970375D01*
X115626833Y-63908580D01*
X115642873Y-63894682D01*
X115651064Y-63888731D01*
X115677510Y-63869517D01*
X115844517Y-63702510D01*
X115983343Y-63511433D01*
X116030845Y-63418205D01*
X116078820Y-63367409D01*
X116141330Y-63350500D01*
X117957650Y-63350500D01*
X118024689Y-63370185D01*
X118026541Y-63371398D01*
X118120821Y-63434394D01*
X118120823Y-63434395D01*
X118120827Y-63434397D01*
X118266498Y-63494735D01*
X118266503Y-63494737D01*
X118421153Y-63525499D01*
X118421156Y-63525500D01*
X118421158Y-63525500D01*
X118578844Y-63525500D01*
X118578845Y-63525499D01*
X118733497Y-63494737D01*
X118879179Y-63434394D01*
X119010289Y-63346789D01*
X119121789Y-63235289D01*
X119209394Y-63104179D01*
X119269737Y-62958497D01*
X119300500Y-62803842D01*
X119300500Y-62646158D01*
X119300500Y-62646155D01*
X119300499Y-62646153D01*
X119269738Y-62491510D01*
X119269737Y-62491503D01*
X119220914Y-62373632D01*
X119209397Y-62345827D01*
X119209390Y-62345814D01*
X119121789Y-62214711D01*
X119121786Y-62214707D01*
X119010292Y-62103213D01*
X119010288Y-62103210D01*
X118879185Y-62015609D01*
X118879172Y-62015602D01*
X118733501Y-61955264D01*
X118733489Y-61955261D01*
X118578845Y-61924500D01*
X118578842Y-61924500D01*
X118421158Y-61924500D01*
X118421155Y-61924500D01*
X118266510Y-61955261D01*
X118266498Y-61955264D01*
X118120827Y-62015602D01*
X118120815Y-62015609D01*
X118026541Y-62078602D01*
X117959864Y-62099480D01*
X117957650Y-62099500D01*
X116141330Y-62099500D01*
X116074291Y-62079815D01*
X116030845Y-62031795D01*
X115983342Y-61938566D01*
X115844517Y-61747490D01*
X115677510Y-61580483D01*
X115642872Y-61555317D01*
X115600207Y-61499989D01*
X115594228Y-61430375D01*
X115626833Y-61368580D01*
X115642873Y-61354682D01*
X115647871Y-61351051D01*
X115677510Y-61329517D01*
X115844517Y-61162510D01*
X115983343Y-60971433D01*
X116030845Y-60878205D01*
X116078820Y-60827409D01*
X116141330Y-60810500D01*
X118257650Y-60810500D01*
X118324689Y-60830185D01*
X118326541Y-60831398D01*
X118420821Y-60894394D01*
X118420823Y-60894395D01*
X118420827Y-60894397D01*
X118566498Y-60954735D01*
X118566503Y-60954737D01*
X118721153Y-60985499D01*
X118721156Y-60985500D01*
X118721158Y-60985500D01*
X118878844Y-60985500D01*
X118878845Y-60985499D01*
X119033497Y-60954737D01*
X119179179Y-60894394D01*
X119310289Y-60806789D01*
X119421789Y-60695289D01*
X119509394Y-60564179D01*
X119569737Y-60418497D01*
X119600500Y-60263842D01*
X119600500Y-60106158D01*
X119600500Y-60106155D01*
X119600499Y-60106153D01*
X119569738Y-59951510D01*
X119569737Y-59951503D01*
X119520914Y-59833632D01*
X119509397Y-59805827D01*
X119509390Y-59805814D01*
X119421789Y-59674711D01*
X119421786Y-59674707D01*
X119310292Y-59563213D01*
X119310288Y-59563210D01*
X119179185Y-59475609D01*
X119179172Y-59475602D01*
X119033501Y-59415264D01*
X119033489Y-59415261D01*
X118878845Y-59384500D01*
X118878842Y-59384500D01*
X118721158Y-59384500D01*
X118721155Y-59384500D01*
X118566510Y-59415261D01*
X118566498Y-59415264D01*
X118420827Y-59475602D01*
X118420815Y-59475609D01*
X118326541Y-59538602D01*
X118259864Y-59559480D01*
X118257650Y-59559500D01*
X116141330Y-59559500D01*
X116074291Y-59539815D01*
X116030845Y-59491795D01*
X115983342Y-59398566D01*
X115844517Y-59207490D01*
X115677510Y-59040483D01*
X115642872Y-59015317D01*
X115600207Y-58959989D01*
X115594228Y-58890375D01*
X115626833Y-58828580D01*
X115642873Y-58814682D01*
X115677510Y-58789517D01*
X115844517Y-58622510D01*
X115983343Y-58431433D01*
X116090568Y-58220992D01*
X116163553Y-57996368D01*
X116165218Y-57985855D01*
X116200500Y-57763097D01*
X116200500Y-57526902D01*
X116163553Y-57293631D01*
X116129689Y-57189412D01*
X116090568Y-57069008D01*
X116090566Y-57069005D01*
X116090566Y-57069003D01*
X116003709Y-56898538D01*
X115983343Y-56858567D01*
X115844517Y-56667490D01*
X115677510Y-56500483D01*
X115642872Y-56475317D01*
X115600207Y-56419989D01*
X115594228Y-56350375D01*
X115626833Y-56288580D01*
X115642873Y-56274682D01*
X115677510Y-56249517D01*
X115844517Y-56082510D01*
X115983343Y-55891433D01*
X116090568Y-55680992D01*
X116163553Y-55456368D01*
X116169184Y-55420815D01*
X116200500Y-55223097D01*
X116200500Y-54986902D01*
X116163553Y-54753631D01*
X116103802Y-54569738D01*
X116090568Y-54529008D01*
X116090566Y-54529005D01*
X116090566Y-54529003D01*
X115983342Y-54318566D01*
X115844517Y-54127490D01*
X115677510Y-53960483D01*
X115642872Y-53935317D01*
X115600207Y-53879989D01*
X115594228Y-53810375D01*
X115626833Y-53748580D01*
X115642873Y-53734682D01*
X115677510Y-53709517D01*
X115844517Y-53542510D01*
X115983343Y-53351433D01*
X116090568Y-53140992D01*
X116163553Y-52916368D01*
X116168910Y-52882544D01*
X116200500Y-52683097D01*
X116200500Y-52446902D01*
X116163553Y-52213631D01*
X116090566Y-51989003D01*
X115983342Y-51778566D01*
X115844517Y-51587490D01*
X115677510Y-51420483D01*
X115618282Y-51377451D01*
X115575617Y-51322122D01*
X115567550Y-51267404D01*
X115569104Y-51247657D01*
X114837574Y-50516128D01*
X114896853Y-50500245D01*
X115013147Y-50433102D01*
X115108102Y-50338147D01*
X115175245Y-50221853D01*
X115191128Y-50162575D01*
X115922658Y-50894105D01*
X115922658Y-50894104D01*
X115982914Y-50811169D01*
X115982918Y-50811163D01*
X116090102Y-50600802D01*
X116163065Y-50376247D01*
X116200000Y-50143052D01*
X116200000Y-49906947D01*
X116163065Y-49673752D01*
X116090102Y-49449197D01*
X115982914Y-49238828D01*
X115922658Y-49155894D01*
X115922658Y-49155893D01*
X115191128Y-49887424D01*
X115175245Y-49828147D01*
X115108102Y-49711853D01*
X115013147Y-49616898D01*
X114896853Y-49549755D01*
X114837574Y-49533871D01*
X115569105Y-48802340D01*
X115567551Y-48782594D01*
X115581915Y-48714216D01*
X115618284Y-48672547D01*
X115677510Y-48629517D01*
X115844517Y-48462510D01*
X115972313Y-48286613D01*
X116027643Y-48243949D01*
X116072631Y-48235500D01*
X120625500Y-48235500D01*
X120692539Y-48255185D01*
X120738294Y-48307989D01*
X120749500Y-48359500D01*
X120749500Y-62183918D01*
X120749500Y-62183920D01*
X120749499Y-62183920D01*
X120778340Y-62328907D01*
X120778343Y-62328917D01*
X120834912Y-62465488D01*
X120834919Y-62465501D01*
X120917048Y-62588415D01*
X120917051Y-62588419D01*
X121021580Y-62692948D01*
X121021584Y-62692951D01*
X121144498Y-62775080D01*
X121144511Y-62775087D01*
X121281082Y-62831656D01*
X121281087Y-62831658D01*
X121281091Y-62831658D01*
X121281092Y-62831659D01*
X121426079Y-62860500D01*
X121426082Y-62860500D01*
X121573918Y-62860500D01*
X126356082Y-62860500D01*
X126423121Y-62880185D01*
X126456399Y-62911613D01*
X126561714Y-63056566D01*
X126723434Y-63218286D01*
X126723437Y-63218288D01*
X126808362Y-63279990D01*
X126851028Y-63335320D01*
X126857007Y-63404933D01*
X126836242Y-63444285D01*
X126834899Y-63461347D01*
X127433991Y-64060439D01*
X127369215Y-64087271D01*
X127265211Y-64156764D01*
X127176764Y-64245211D01*
X127107271Y-64349215D01*
X127080439Y-64413991D01*
X126481347Y-63814899D01*
X126481346Y-63814900D01*
X126427713Y-63888719D01*
X126323917Y-64092431D01*
X126253265Y-64309874D01*
X126253265Y-64309875D01*
X126217500Y-64535686D01*
X126217500Y-64764313D01*
X126253265Y-64990124D01*
X126253265Y-64990125D01*
X126323917Y-65207568D01*
X126427711Y-65411276D01*
X126481347Y-65485098D01*
X126481347Y-65485099D01*
X127080439Y-64886007D01*
X127107271Y-64950785D01*
X127176764Y-65054789D01*
X127265211Y-65143236D01*
X127369215Y-65212729D01*
X127433991Y-65239560D01*
X126834899Y-65838651D01*
X126836226Y-65855505D01*
X126851029Y-65874702D01*
X126857008Y-65944316D01*
X126824402Y-66006111D01*
X126808364Y-66020007D01*
X126723440Y-66081709D01*
X126723431Y-66081716D01*
X126561716Y-66243431D01*
X126561716Y-66243432D01*
X126561714Y-66243434D01*
X126503980Y-66322896D01*
X126427283Y-66428461D01*
X126417032Y-66448580D01*
X126395922Y-66490013D01*
X126392466Y-66496795D01*
X126344492Y-66547591D01*
X126281981Y-66564500D01*
X125938389Y-66564500D01*
X125817555Y-66588535D01*
X125817545Y-66588538D01*
X125703716Y-66635687D01*
X125703707Y-66635692D01*
X125601267Y-66704141D01*
X125601263Y-66704144D01*
X125514144Y-66791263D01*
X125514141Y-66791267D01*
X125445692Y-66893707D01*
X125445687Y-66893716D01*
X125398538Y-67007545D01*
X125398535Y-67007555D01*
X125374500Y-67128389D01*
X125374500Y-70957650D01*
X125354815Y-71024689D01*
X125353602Y-71026541D01*
X125290609Y-71120815D01*
X125290602Y-71120828D01*
X125230264Y-71266498D01*
X125230261Y-71266510D01*
X125199500Y-71421153D01*
X125199500Y-71578846D01*
X125230261Y-71733489D01*
X125230264Y-71733501D01*
X125290602Y-71879172D01*
X125290609Y-71879185D01*
X125378210Y-72010288D01*
X125378213Y-72010292D01*
X125489707Y-72121786D01*
X125489711Y-72121789D01*
X125620814Y-72209390D01*
X125620827Y-72209397D01*
X125766498Y-72269735D01*
X125766503Y-72269737D01*
X125918157Y-72299903D01*
X125921153Y-72300499D01*
X125921156Y-72300500D01*
X125921158Y-72300500D01*
X126078844Y-72300500D01*
X126084907Y-72299903D01*
X126085176Y-72302640D01*
X126142967Y-72307792D01*
X126198159Y-72350636D01*
X126220079Y-72403799D01*
X126252778Y-72610246D01*
X126252778Y-72610249D01*
X126323450Y-72827755D01*
X126323452Y-72827758D01*
X126427283Y-73031538D01*
X126561714Y-73216566D01*
X126723434Y-73378286D01*
X126792923Y-73428773D01*
X126807938Y-73439682D01*
X126850603Y-73495013D01*
X126856582Y-73564626D01*
X126823976Y-73626421D01*
X126807938Y-73640318D01*
X126723432Y-73701715D01*
X126561716Y-73863431D01*
X126561716Y-73863432D01*
X126561714Y-73863434D01*
X126503980Y-73942896D01*
X126427283Y-74048461D01*
X126323450Y-74252244D01*
X126252778Y-74469750D01*
X126252778Y-74469753D01*
X126217000Y-74695646D01*
X126217000Y-74924353D01*
X126252778Y-75150246D01*
X126252778Y-75150249D01*
X126323450Y-75367755D01*
X126323452Y-75367758D01*
X126427283Y-75571538D01*
X126561714Y-75756566D01*
X126723434Y-75918286D01*
X126792923Y-75968773D01*
X126807938Y-75979682D01*
X126850603Y-76035013D01*
X126856582Y-76104626D01*
X126823976Y-76166421D01*
X126807938Y-76180318D01*
X126723432Y-76241715D01*
X126561716Y-76403431D01*
X126561716Y-76403432D01*
X126561714Y-76403434D01*
X126503980Y-76482896D01*
X126427283Y-76588461D01*
X126323450Y-76792244D01*
X126252778Y-77009750D01*
X126252778Y-77009753D01*
X126217000Y-77235646D01*
X126217000Y-77464353D01*
X126252778Y-77690246D01*
X126252778Y-77690249D01*
X126323450Y-77907755D01*
X126385590Y-78029711D01*
X126427283Y-78111538D01*
X126561714Y-78296566D01*
X126723434Y-78458286D01*
X126792923Y-78508773D01*
X126807938Y-78519682D01*
X126850603Y-78575013D01*
X126856582Y-78644626D01*
X126823976Y-78706421D01*
X126807938Y-78720318D01*
X126723432Y-78781715D01*
X126561716Y-78943431D01*
X126561716Y-78943432D01*
X126561714Y-78943434D01*
X126515139Y-79007539D01*
X126427283Y-79128461D01*
X126323450Y-79332244D01*
X126252778Y-79549750D01*
X126252778Y-79549753D01*
X126217000Y-79775646D01*
X126217000Y-80004353D01*
X126252778Y-80230246D01*
X126252778Y-80230249D01*
X126323450Y-80447755D01*
X126412789Y-80623092D01*
X126427283Y-80651538D01*
X126561714Y-80836566D01*
X126723434Y-80998286D01*
X126908462Y-81132717D01*
X127112242Y-81236548D01*
X127112244Y-81236549D01*
X127329751Y-81307221D01*
X127329752Y-81307221D01*
X127329755Y-81307222D01*
X127555646Y-81343000D01*
X127555647Y-81343000D01*
X127784353Y-81343000D01*
X127784354Y-81343000D01*
X128010245Y-81307222D01*
X128010248Y-81307221D01*
X128010249Y-81307221D01*
X128227755Y-81236549D01*
X128227755Y-81236548D01*
X128227758Y-81236548D01*
X128431538Y-81132717D01*
X128616566Y-80998286D01*
X128778286Y-80836566D01*
X128912717Y-80651538D01*
X129016548Y-80447758D01*
X129036321Y-80386902D01*
X129087221Y-80230249D01*
X129087221Y-80230248D01*
X129087222Y-80230245D01*
X129123000Y-80004354D01*
X129123000Y-79775646D01*
X129087222Y-79549755D01*
X129087221Y-79549751D01*
X129087221Y-79549750D01*
X129016549Y-79332244D01*
X128967001Y-79235000D01*
X128912717Y-79128462D01*
X128778286Y-78943434D01*
X128773563Y-78938711D01*
X137579500Y-78938711D01*
X137579500Y-79181288D01*
X137611161Y-79421785D01*
X137673947Y-79656104D01*
X137723463Y-79775646D01*
X137766776Y-79880212D01*
X137888064Y-80090289D01*
X137888066Y-80090292D01*
X137888067Y-80090293D01*
X138035733Y-80282736D01*
X138035739Y-80282743D01*
X138207256Y-80454260D01*
X138207262Y-80454265D01*
X138399711Y-80601936D01*
X138609788Y-80723224D01*
X138833900Y-80816054D01*
X139068211Y-80878838D01*
X139248586Y-80902584D01*
X139308711Y-80910500D01*
X139308712Y-80910500D01*
X139551289Y-80910500D01*
X139599388Y-80904167D01*
X139791789Y-80878838D01*
X140026100Y-80816054D01*
X140250212Y-80723224D01*
X140460289Y-80601936D01*
X140652738Y-80454265D01*
X140824265Y-80282738D01*
X140971936Y-80090289D01*
X141093224Y-79880212D01*
X141186054Y-79656100D01*
X141248838Y-79421789D01*
X141280500Y-79181288D01*
X141280500Y-78938712D01*
X141248838Y-78698211D01*
X141186054Y-78463900D01*
X141093224Y-78239788D01*
X140971936Y-78029711D01*
X140824265Y-77837262D01*
X140824260Y-77837256D01*
X140652743Y-77665739D01*
X140652736Y-77665733D01*
X140460293Y-77518067D01*
X140460292Y-77518066D01*
X140460289Y-77518064D01*
X140250212Y-77396776D01*
X140250205Y-77396773D01*
X140026104Y-77303947D01*
X139791785Y-77241161D01*
X139551289Y-77209500D01*
X139551288Y-77209500D01*
X139308712Y-77209500D01*
X139308711Y-77209500D01*
X139068214Y-77241161D01*
X138833895Y-77303947D01*
X138609794Y-77396773D01*
X138609785Y-77396777D01*
X138399706Y-77518067D01*
X138207263Y-77665733D01*
X138207256Y-77665739D01*
X138035739Y-77837256D01*
X138035733Y-77837263D01*
X137888067Y-78029706D01*
X137766777Y-78239785D01*
X137766773Y-78239794D01*
X137673947Y-78463895D01*
X137611161Y-78698214D01*
X137579500Y-78938711D01*
X128773563Y-78938711D01*
X128616566Y-78781714D01*
X128532059Y-78720316D01*
X128489396Y-78664988D01*
X128483417Y-78595375D01*
X128516023Y-78533580D01*
X128532056Y-78519685D01*
X128616566Y-78458286D01*
X128778286Y-78296566D01*
X128912717Y-78111538D01*
X129016548Y-77907758D01*
X129039453Y-77837263D01*
X129087221Y-77690249D01*
X129087221Y-77690248D01*
X129087222Y-77690245D01*
X129123000Y-77464354D01*
X129123000Y-77235646D01*
X129087222Y-77009755D01*
X129087221Y-77009751D01*
X129087221Y-77009750D01*
X129016549Y-76792244D01*
X128967001Y-76695000D01*
X128912717Y-76588462D01*
X128778286Y-76403434D01*
X128616566Y-76241714D01*
X128532059Y-76180316D01*
X128489396Y-76124988D01*
X128483417Y-76055375D01*
X128516023Y-75993580D01*
X128532056Y-75979685D01*
X128616566Y-75918286D01*
X128778286Y-75756566D01*
X128912717Y-75571538D01*
X129016548Y-75367758D01*
X129087222Y-75150245D01*
X129123000Y-74924354D01*
X129123000Y-74695646D01*
X129087222Y-74469755D01*
X129087221Y-74469751D01*
X129087221Y-74469750D01*
X129016549Y-74252244D01*
X128967001Y-74155000D01*
X128912717Y-74048462D01*
X128778286Y-73863434D01*
X128616566Y-73701714D01*
X128532059Y-73640316D01*
X128489396Y-73584988D01*
X128483417Y-73515375D01*
X128516023Y-73453580D01*
X128532056Y-73439685D01*
X128616566Y-73378286D01*
X128778286Y-73216566D01*
X128912717Y-73031538D01*
X129016548Y-72827758D01*
X129087222Y-72610245D01*
X129123000Y-72384354D01*
X129123000Y-72155646D01*
X129087222Y-71929755D01*
X129087221Y-71929751D01*
X129087221Y-71929750D01*
X129016549Y-71712244D01*
X128967001Y-71615000D01*
X128912717Y-71508462D01*
X128778286Y-71323434D01*
X128616566Y-71161714D01*
X128532059Y-71100316D01*
X128489396Y-71044988D01*
X128483417Y-70975375D01*
X128516023Y-70913580D01*
X128532056Y-70899685D01*
X128616566Y-70838286D01*
X128778286Y-70676566D01*
X128912717Y-70491538D01*
X129016548Y-70287758D01*
X129087222Y-70070245D01*
X129123000Y-69844354D01*
X129123000Y-69615646D01*
X129087222Y-69389755D01*
X129087221Y-69389751D01*
X129087221Y-69389750D01*
X129016549Y-69172244D01*
X128967001Y-69075000D01*
X128912717Y-68968462D01*
X128778286Y-68783434D01*
X128616566Y-68621714D01*
X128532059Y-68560316D01*
X128489396Y-68504988D01*
X128483417Y-68435375D01*
X128516023Y-68373580D01*
X128532056Y-68359685D01*
X128616566Y-68298286D01*
X128778286Y-68136566D01*
X128912717Y-67951538D01*
X129016548Y-67747758D01*
X129087222Y-67530245D01*
X129123000Y-67304354D01*
X129123000Y-67075646D01*
X129087222Y-66849755D01*
X129087221Y-66849751D01*
X129087221Y-66849750D01*
X129016549Y-66632244D01*
X128967001Y-66535000D01*
X128912717Y-66428462D01*
X128778286Y-66243434D01*
X128616566Y-66081714D01*
X128531634Y-66020007D01*
X128488969Y-65964676D01*
X128482990Y-65895063D01*
X128503756Y-65855705D01*
X128505098Y-65838651D01*
X127906007Y-65239560D01*
X127970785Y-65212729D01*
X128074789Y-65143236D01*
X128163236Y-65054789D01*
X128232729Y-64950785D01*
X128259560Y-64886008D01*
X128858651Y-65485099D01*
X128858651Y-65485098D01*
X128912288Y-65411276D01*
X129016082Y-65207568D01*
X129086734Y-64990125D01*
X129086734Y-64990124D01*
X129122500Y-64764313D01*
X129122500Y-64535686D01*
X129086734Y-64309875D01*
X129086734Y-64309874D01*
X129016082Y-64092431D01*
X128912292Y-63888731D01*
X128912288Y-63888725D01*
X128858651Y-63814900D01*
X128858651Y-63814899D01*
X128259560Y-64413990D01*
X128232729Y-64349215D01*
X128163236Y-64245211D01*
X128074789Y-64156764D01*
X127970785Y-64087271D01*
X127906006Y-64060438D01*
X128505099Y-63461347D01*
X128503772Y-63444493D01*
X128488970Y-63425297D01*
X128482991Y-63355683D01*
X128515597Y-63293888D01*
X128531633Y-63279993D01*
X128616566Y-63218286D01*
X128778286Y-63056566D01*
X128912717Y-62871538D01*
X128939634Y-62818711D01*
X137579500Y-62818711D01*
X137579500Y-63061288D01*
X137611161Y-63301785D01*
X137673947Y-63536104D01*
X137742876Y-63702512D01*
X137766776Y-63760212D01*
X137888064Y-63970289D01*
X137888066Y-63970292D01*
X137888067Y-63970293D01*
X138035733Y-64162736D01*
X138035739Y-64162743D01*
X138207256Y-64334260D01*
X138207262Y-64334265D01*
X138399711Y-64481936D01*
X138609788Y-64603224D01*
X138833900Y-64696054D01*
X139068211Y-64758838D01*
X139248586Y-64782584D01*
X139308711Y-64790500D01*
X139308712Y-64790500D01*
X139551289Y-64790500D01*
X139599388Y-64784167D01*
X139791789Y-64758838D01*
X140026100Y-64696054D01*
X140250212Y-64603224D01*
X140460289Y-64481936D01*
X140652738Y-64334265D01*
X140824265Y-64162738D01*
X140971936Y-63970289D01*
X141093224Y-63760212D01*
X141186054Y-63536100D01*
X141248838Y-63301789D01*
X141280500Y-63061288D01*
X141280500Y-62818712D01*
X141248838Y-62578211D01*
X141186054Y-62343900D01*
X141093224Y-62119788D01*
X140971936Y-61909711D01*
X140847458Y-61747488D01*
X140824266Y-61717263D01*
X140824260Y-61717256D01*
X140652743Y-61545739D01*
X140652736Y-61545733D01*
X140460293Y-61398067D01*
X140460292Y-61398066D01*
X140460289Y-61398064D01*
X140250212Y-61276776D01*
X140250205Y-61276773D01*
X140026104Y-61183947D01*
X139791785Y-61121161D01*
X139551289Y-61089500D01*
X139551288Y-61089500D01*
X139308712Y-61089500D01*
X139308711Y-61089500D01*
X139068214Y-61121161D01*
X138833895Y-61183947D01*
X138609794Y-61276773D01*
X138609785Y-61276777D01*
X138399706Y-61398067D01*
X138207263Y-61545733D01*
X138207256Y-61545739D01*
X138035739Y-61717256D01*
X138035733Y-61717263D01*
X137888067Y-61909706D01*
X137766777Y-62119785D01*
X137766773Y-62119794D01*
X137673947Y-62343895D01*
X137611161Y-62578214D01*
X137579500Y-62818711D01*
X128939634Y-62818711D01*
X129016548Y-62667758D01*
X129045643Y-62578214D01*
X129087221Y-62450249D01*
X129087221Y-62450248D01*
X129087222Y-62450245D01*
X129123000Y-62224354D01*
X129123000Y-61995646D01*
X129087222Y-61769755D01*
X129087221Y-61769751D01*
X129087221Y-61769750D01*
X129016549Y-61552244D01*
X129013235Y-61545739D01*
X128912717Y-61348462D01*
X128778286Y-61163434D01*
X128616566Y-61001714D01*
X128431538Y-60867283D01*
X128312806Y-60806786D01*
X128227755Y-60763450D01*
X128010248Y-60692778D01*
X127840826Y-60665944D01*
X127784354Y-60657000D01*
X127555646Y-60657000D01*
X127480349Y-60668926D01*
X127329753Y-60692778D01*
X127329750Y-60692778D01*
X127112244Y-60763450D01*
X126908461Y-60867283D01*
X126802896Y-60943980D01*
X126723434Y-61001714D01*
X126723432Y-61001716D01*
X126723431Y-61001716D01*
X126561716Y-61163431D01*
X126561716Y-61163432D01*
X126561714Y-61163434D01*
X126510810Y-61233497D01*
X126456400Y-61308386D01*
X126401070Y-61351051D01*
X126356082Y-61359500D01*
X124395768Y-61359500D01*
X124328729Y-61339815D01*
X124282974Y-61287011D01*
X124273030Y-61217853D01*
X124274151Y-61211308D01*
X124300500Y-61078844D01*
X124300500Y-60921155D01*
X124300499Y-60921153D01*
X124291956Y-60878205D01*
X124269737Y-60766503D01*
X124240241Y-60695292D01*
X124209397Y-60620828D01*
X124209396Y-60620827D01*
X124209394Y-60620821D01*
X124146397Y-60526539D01*
X124125520Y-60459863D01*
X124125500Y-60457650D01*
X124125500Y-58249500D01*
X124145185Y-58182461D01*
X124197989Y-58136706D01*
X124249500Y-58125500D01*
X133360607Y-58125500D01*
X133360608Y-58125499D01*
X133481452Y-58101463D01*
X133595286Y-58054311D01*
X133697733Y-57985858D01*
X133784858Y-57898733D01*
X133853311Y-57796286D01*
X133900463Y-57682452D01*
X133924500Y-57561606D01*
X133924500Y-53098391D01*
X133944185Y-53031352D01*
X133996989Y-52985597D01*
X134005159Y-52982212D01*
X134041131Y-52968796D01*
X134156346Y-52882546D01*
X134242596Y-52767331D01*
X134292891Y-52632483D01*
X134299300Y-52572873D01*
X134299299Y-50027128D01*
X134292891Y-49967517D01*
X134242596Y-49832669D01*
X134242595Y-49832668D01*
X134242593Y-49832664D01*
X134156347Y-49717455D01*
X134156344Y-49717452D01*
X134041135Y-49631206D01*
X134041128Y-49631202D01*
X133906282Y-49580908D01*
X133906283Y-49580908D01*
X133846683Y-49574501D01*
X133846681Y-49574500D01*
X133846673Y-49574500D01*
X133846664Y-49574500D01*
X132750929Y-49574500D01*
X132750923Y-49574501D01*
X132691316Y-49580908D01*
X132556471Y-49631202D01*
X132556464Y-49631206D01*
X132441255Y-49717452D01*
X132441252Y-49717455D01*
X132355006Y-49832664D01*
X132355002Y-49832671D01*
X132304708Y-49967517D01*
X132298301Y-50027116D01*
X132298301Y-50027123D01*
X132298300Y-50027135D01*
X132298300Y-52572870D01*
X132298301Y-52572876D01*
X132304708Y-52632483D01*
X132355002Y-52767328D01*
X132355006Y-52767335D01*
X132441252Y-52882544D01*
X132441255Y-52882547D01*
X132556466Y-52968794D01*
X132556464Y-52968794D01*
X132556468Y-52968795D01*
X132556469Y-52968796D01*
X132592833Y-52982358D01*
X132648765Y-53024227D01*
X132673184Y-53089691D01*
X132673500Y-53098540D01*
X132673500Y-56750500D01*
X132653815Y-56817539D01*
X132601011Y-56863294D01*
X132549500Y-56874500D01*
X130023500Y-56874500D01*
X129956461Y-56854815D01*
X129910706Y-56802011D01*
X129899500Y-56750500D01*
X129899500Y-56721155D01*
X129887349Y-56660073D01*
X129875552Y-56600764D01*
X129881779Y-56531176D01*
X129924641Y-56475998D01*
X129990531Y-56452753D01*
X130058528Y-56468820D01*
X130066059Y-56473473D01*
X130119809Y-56509387D01*
X130119818Y-56509392D01*
X130119821Y-56509394D01*
X130119823Y-56509394D01*
X130119827Y-56509397D01*
X130257683Y-56566498D01*
X130265503Y-56569737D01*
X130420153Y-56600499D01*
X130420156Y-56600500D01*
X130420158Y-56600500D01*
X130577844Y-56600500D01*
X130577845Y-56600499D01*
X130732497Y-56569737D01*
X130878179Y-56509394D01*
X131009289Y-56421789D01*
X131120789Y-56310289D01*
X131208394Y-56179179D01*
X131268737Y-56033497D01*
X131299500Y-55878842D01*
X131299500Y-55721158D01*
X131299500Y-55721155D01*
X131299499Y-55721153D01*
X131268738Y-55566510D01*
X131268737Y-55566503D01*
X131208394Y-55420821D01*
X131145397Y-55326539D01*
X131124520Y-55259863D01*
X131124500Y-55257650D01*
X131124500Y-53098391D01*
X131144185Y-53031352D01*
X131196989Y-52985597D01*
X131205159Y-52982212D01*
X131241131Y-52968796D01*
X131356346Y-52882546D01*
X131442596Y-52767331D01*
X131492891Y-52632483D01*
X131499300Y-52572873D01*
X131499299Y-50027128D01*
X131492891Y-49967517D01*
X131442596Y-49832669D01*
X131442595Y-49832668D01*
X131442593Y-49832664D01*
X131356347Y-49717455D01*
X131356344Y-49717452D01*
X131241135Y-49631206D01*
X131241128Y-49631202D01*
X131106282Y-49580908D01*
X131106283Y-49580908D01*
X131046683Y-49574501D01*
X131046681Y-49574500D01*
X131046673Y-49574500D01*
X131046664Y-49574500D01*
X129950929Y-49574500D01*
X129950923Y-49574501D01*
X129891316Y-49580908D01*
X129842132Y-49599253D01*
X129772440Y-49604237D01*
X129755467Y-49599253D01*
X129706282Y-49580908D01*
X129706283Y-49580908D01*
X129646683Y-49574501D01*
X129646681Y-49574500D01*
X129646673Y-49574500D01*
X129646664Y-49574500D01*
X128550929Y-49574500D01*
X128550923Y-49574501D01*
X128491320Y-49580908D01*
X128491317Y-49580908D01*
X128491317Y-49580909D01*
X128442730Y-49599030D01*
X128373040Y-49604013D01*
X128356068Y-49599029D01*
X128307485Y-49580909D01*
X128307483Y-49580908D01*
X128247883Y-49574501D01*
X128247881Y-49574500D01*
X128247873Y-49574500D01*
X128247864Y-49574500D01*
X127152129Y-49574500D01*
X127152123Y-49574501D01*
X127092516Y-49580908D01*
X127043332Y-49599253D01*
X126973640Y-49604237D01*
X126956667Y-49599253D01*
X126907482Y-49580908D01*
X126907483Y-49580908D01*
X126847883Y-49574501D01*
X126847881Y-49574500D01*
X126847873Y-49574500D01*
X126847864Y-49574500D01*
X125752129Y-49574500D01*
X125752123Y-49574501D01*
X125692512Y-49580909D01*
X125684969Y-49582692D01*
X125684554Y-49580938D01*
X125624615Y-49585222D01*
X125563293Y-49551734D01*
X125529811Y-49490409D01*
X125534799Y-49420717D01*
X125576669Y-49364790D01*
X125576860Y-49364647D01*
X125586346Y-49357546D01*
X125672596Y-49242331D01*
X125722891Y-49107483D01*
X125729300Y-49047873D01*
X125729299Y-47952128D01*
X125722891Y-47892517D01*
X125704547Y-47843334D01*
X125699562Y-47773643D01*
X125704547Y-47756665D01*
X125722889Y-47707488D01*
X125722891Y-47707483D01*
X125729300Y-47647873D01*
X125729299Y-46552128D01*
X125722891Y-46492517D01*
X125704547Y-46443334D01*
X125699562Y-46373643D01*
X125704547Y-46356665D01*
X125722889Y-46307488D01*
X125722891Y-46307483D01*
X125729300Y-46247873D01*
X125729299Y-45152128D01*
X125722891Y-45092517D01*
X125704547Y-45043334D01*
X125699562Y-44973643D01*
X125704547Y-44956665D01*
X125722889Y-44907488D01*
X125722891Y-44907483D01*
X125729300Y-44847873D01*
X125729299Y-43752128D01*
X125722891Y-43692517D01*
X125704547Y-43643334D01*
X125699562Y-43573643D01*
X125704547Y-43556665D01*
X125722889Y-43507488D01*
X125722891Y-43507483D01*
X125729300Y-43447873D01*
X125729299Y-42352128D01*
X125722891Y-42292517D01*
X125704547Y-42243334D01*
X125699562Y-42173643D01*
X125704547Y-42156665D01*
X125722889Y-42107488D01*
X125722891Y-42107483D01*
X125729300Y-42047873D01*
X125729299Y-40952128D01*
X125722891Y-40892517D01*
X125704547Y-40843334D01*
X125699562Y-40773643D01*
X125704547Y-40756665D01*
X125722889Y-40707488D01*
X125722891Y-40707483D01*
X125729300Y-40647873D01*
X125729299Y-39552128D01*
X125722891Y-39492517D01*
X125692213Y-39410266D01*
X125672597Y-39357671D01*
X125672593Y-39357664D01*
X125586347Y-39242455D01*
X125586344Y-39242452D01*
X125471135Y-39156206D01*
X125471128Y-39156202D01*
X125336282Y-39105908D01*
X125336283Y-39105908D01*
X125276683Y-39099501D01*
X125276681Y-39099500D01*
X125276673Y-39099500D01*
X125276664Y-39099500D01*
X122730929Y-39099500D01*
X122730923Y-39099501D01*
X122671316Y-39105908D01*
X122536471Y-39156202D01*
X122536464Y-39156206D01*
X122421255Y-39242452D01*
X122421252Y-39242455D01*
X122335006Y-39357664D01*
X122335002Y-39357671D01*
X122284708Y-39492517D01*
X122278301Y-39552116D01*
X122278301Y-39552123D01*
X122278300Y-39552135D01*
X122278300Y-40647870D01*
X122278301Y-40647876D01*
X122284708Y-40707482D01*
X122297804Y-40742593D01*
X122303052Y-40756665D01*
X122303053Y-40756666D01*
X122308037Y-40826358D01*
X122303053Y-40843331D01*
X122284709Y-40892514D01*
X122284708Y-40892516D01*
X122278301Y-40952116D01*
X122278301Y-40952123D01*
X122278300Y-40952135D01*
X122278300Y-42047870D01*
X122278301Y-42047876D01*
X122284708Y-42107482D01*
X122297804Y-42142593D01*
X122303052Y-42156665D01*
X122303053Y-42156666D01*
X122308037Y-42226358D01*
X122303053Y-42243331D01*
X122284709Y-42292514D01*
X122284708Y-42292516D01*
X122278301Y-42352116D01*
X122278301Y-42352123D01*
X122278300Y-42352135D01*
X122278300Y-43447870D01*
X122278301Y-43447876D01*
X122284708Y-43507482D01*
X122297804Y-43542593D01*
X122303052Y-43556665D01*
X122303053Y-43556666D01*
X122308037Y-43626358D01*
X122303053Y-43643331D01*
X122284709Y-43692514D01*
X122284708Y-43692516D01*
X122278301Y-43752116D01*
X122278301Y-43752123D01*
X122278300Y-43752135D01*
X122278300Y-44847870D01*
X122278301Y-44847876D01*
X122284708Y-44907482D01*
X122297804Y-44942593D01*
X122303052Y-44956665D01*
X122303053Y-44956666D01*
X122308037Y-45026358D01*
X122303053Y-45043331D01*
X122284709Y-45092514D01*
X122284708Y-45092516D01*
X122278301Y-45152116D01*
X122278301Y-45152123D01*
X122278300Y-45152135D01*
X122278300Y-46247870D01*
X122278301Y-46247876D01*
X122284708Y-46307482D01*
X122297017Y-46340483D01*
X122303052Y-46356665D01*
X122303053Y-46356666D01*
X122308037Y-46426358D01*
X122303053Y-46443331D01*
X122284709Y-46492514D01*
X122284708Y-46492516D01*
X122278301Y-46552116D01*
X122278301Y-46552123D01*
X122278300Y-46552135D01*
X122278300Y-46902570D01*
X122258615Y-46969609D01*
X122205811Y-47015364D01*
X122136653Y-47025308D01*
X122073097Y-46996283D01*
X122066619Y-46990251D01*
X121978419Y-46902051D01*
X121978415Y-46902048D01*
X121855501Y-46819919D01*
X121855488Y-46819912D01*
X121718917Y-46763343D01*
X121718907Y-46763340D01*
X121573920Y-46734500D01*
X121573918Y-46734500D01*
X116072631Y-46734500D01*
X116005592Y-46714815D01*
X115972313Y-46683386D01*
X115844517Y-46507490D01*
X115677510Y-46340483D01*
X115486433Y-46201657D01*
X115275996Y-46094433D01*
X115051368Y-46021446D01*
X114818097Y-45984500D01*
X114818092Y-45984500D01*
X114581908Y-45984500D01*
X114581903Y-45984500D01*
X114348631Y-46021446D01*
X114124003Y-46094433D01*
X113913566Y-46201657D01*
X113804550Y-46280862D01*
X113722490Y-46340483D01*
X113722488Y-46340485D01*
X113722487Y-46340485D01*
X113555485Y-46507487D01*
X113555485Y-46507488D01*
X113555483Y-46507490D01*
X113495862Y-46589550D01*
X113416657Y-46698566D01*
X113309433Y-46909003D01*
X113236446Y-47133631D01*
X113199500Y-47366902D01*
X113199500Y-47603097D01*
X113236446Y-47836368D01*
X113309433Y-48060996D01*
X113398348Y-48235500D01*
X113416657Y-48271433D01*
X113555483Y-48462510D01*
X113722490Y-48629517D01*
X113781716Y-48672547D01*
X113824381Y-48727875D01*
X113832448Y-48782593D01*
X113830893Y-48802340D01*
X114562425Y-49533871D01*
X114503147Y-49549755D01*
X114386853Y-49616898D01*
X114291898Y-49711853D01*
X114224755Y-49828147D01*
X114208871Y-49887425D01*
X113477340Y-49155894D01*
X113417084Y-49238830D01*
X113309897Y-49449197D01*
X113236934Y-49673752D01*
X113200000Y-49906947D01*
X113200000Y-50143052D01*
X113236934Y-50376247D01*
X113309897Y-50600802D01*
X113417087Y-50811174D01*
X113477338Y-50894104D01*
X113477340Y-50894105D01*
X114208871Y-50162574D01*
X114224755Y-50221853D01*
X114291898Y-50338147D01*
X114386853Y-50433102D01*
X114503147Y-50500245D01*
X114562425Y-50516128D01*
X113830893Y-51247658D01*
X113832448Y-51267405D01*
X113818084Y-51335783D01*
X113781717Y-51377451D01*
X113722490Y-51420482D01*
X113555485Y-51587487D01*
X113555485Y-51587488D01*
X113555483Y-51587490D01*
X113495862Y-51669550D01*
X113416657Y-51778566D01*
X113309433Y-51989003D01*
X113236446Y-52213631D01*
X113199500Y-52446902D01*
X113199500Y-52683097D01*
X113236446Y-52916368D01*
X113309433Y-53140996D01*
X113388037Y-53295264D01*
X113416657Y-53351433D01*
X113555483Y-53542510D01*
X113722490Y-53709517D01*
X113757127Y-53734683D01*
X113799792Y-53790013D01*
X113805771Y-53859626D01*
X113773165Y-53921421D01*
X113757130Y-53935315D01*
X113739365Y-53948222D01*
X113722488Y-53960484D01*
X113555485Y-54127487D01*
X113555485Y-54127488D01*
X113555483Y-54127490D01*
X113517929Y-54179179D01*
X113416657Y-54318566D01*
X113309433Y-54529003D01*
X113236446Y-54753631D01*
X113199500Y-54986902D01*
X113199500Y-55223097D01*
X113236446Y-55456368D01*
X113309433Y-55680996D01*
X113410242Y-55878842D01*
X113416657Y-55891433D01*
X113555483Y-56082510D01*
X113722490Y-56249517D01*
X113757127Y-56274683D01*
X113799792Y-56330013D01*
X113805771Y-56399626D01*
X113773165Y-56461421D01*
X113757130Y-56475315D01*
X113739365Y-56488222D01*
X113722488Y-56500484D01*
X113555485Y-56667487D01*
X113555485Y-56667488D01*
X113555483Y-56667490D01*
X113516493Y-56721155D01*
X113416657Y-56858566D01*
X113309433Y-57069003D01*
X113236446Y-57293631D01*
X113199500Y-57526902D01*
X113199500Y-57763097D01*
X113236446Y-57996368D01*
X113309433Y-58220996D01*
X113416657Y-58431433D01*
X113555483Y-58622510D01*
X113722490Y-58789517D01*
X113757127Y-58814683D01*
X113799792Y-58870013D01*
X113805771Y-58939626D01*
X113773165Y-59001421D01*
X113757130Y-59015315D01*
X113739365Y-59028222D01*
X113722488Y-59040484D01*
X113555485Y-59207487D01*
X113555485Y-59207488D01*
X113555483Y-59207490D01*
X113495862Y-59289550D01*
X113416657Y-59398566D01*
X113309433Y-59609003D01*
X113236446Y-59833631D01*
X113199500Y-60066902D01*
X113199500Y-60303097D01*
X113236446Y-60536368D01*
X113309433Y-60760996D01*
X113408149Y-60954735D01*
X113416657Y-60971433D01*
X113555483Y-61162510D01*
X113722490Y-61329517D01*
X113757127Y-61354683D01*
X113799792Y-61410013D01*
X113805771Y-61479626D01*
X113773165Y-61541421D01*
X113757130Y-61555315D01*
X113739365Y-61568222D01*
X113722488Y-61580484D01*
X113555485Y-61747487D01*
X113555485Y-61747488D01*
X113555483Y-61747490D01*
X113495862Y-61829550D01*
X113416657Y-61938566D01*
X113309433Y-62149003D01*
X113236446Y-62373631D01*
X113199500Y-62606902D01*
X113199500Y-62843097D01*
X113236446Y-63076368D01*
X113309433Y-63300996D01*
X113391137Y-63461347D01*
X113416657Y-63511433D01*
X113555483Y-63702510D01*
X113722490Y-63869517D01*
X113757127Y-63894683D01*
X113799792Y-63950013D01*
X113805771Y-64019626D01*
X113773165Y-64081421D01*
X113757130Y-64095315D01*
X113739365Y-64108222D01*
X113722488Y-64120484D01*
X113555485Y-64287487D01*
X113555485Y-64287488D01*
X113555483Y-64287490D01*
X113521499Y-64334265D01*
X113416657Y-64478566D01*
X113309433Y-64689003D01*
X113236446Y-64913631D01*
X113199500Y-65146902D01*
X113199500Y-65383097D01*
X113236446Y-65616368D01*
X113309433Y-65840996D01*
X113372452Y-65964676D01*
X113416657Y-66051433D01*
X113555483Y-66242510D01*
X113722490Y-66409517D01*
X113757127Y-66434683D01*
X113799792Y-66490013D01*
X113805771Y-66559626D01*
X113773165Y-66621421D01*
X113757130Y-66635315D01*
X113756616Y-66635689D01*
X113722488Y-66660484D01*
X113555485Y-66827487D01*
X113555485Y-66827488D01*
X113555483Y-66827490D01*
X113507373Y-66893707D01*
X113416657Y-67018566D01*
X113309433Y-67229003D01*
X113236446Y-67453631D01*
X113199500Y-67686902D01*
X113199500Y-67923097D01*
X113236446Y-68156368D01*
X113309433Y-68380996D01*
X113372611Y-68504988D01*
X113416657Y-68591433D01*
X113555483Y-68782510D01*
X113722490Y-68949517D01*
X113757127Y-68974683D01*
X113799792Y-69030013D01*
X113805771Y-69099626D01*
X113773165Y-69161421D01*
X113757130Y-69175315D01*
X113739365Y-69188222D01*
X113722488Y-69200484D01*
X113555485Y-69367487D01*
X113555485Y-69367488D01*
X113555483Y-69367490D01*
X113495862Y-69449550D01*
X113416657Y-69558566D01*
X113309433Y-69769003D01*
X113236446Y-69993631D01*
X113199500Y-70226902D01*
X113199500Y-70463097D01*
X113236446Y-70696368D01*
X113309433Y-70920996D01*
X113372611Y-71044988D01*
X113416657Y-71131433D01*
X113555483Y-71322510D01*
X113722490Y-71489517D01*
X113757127Y-71514683D01*
X113799792Y-71570013D01*
X113805771Y-71639626D01*
X113773165Y-71701421D01*
X113757130Y-71715315D01*
X113739365Y-71728222D01*
X113722488Y-71740484D01*
X113555485Y-71907487D01*
X113555485Y-71907488D01*
X113555483Y-71907490D01*
X113495862Y-71989550D01*
X113416657Y-72098566D01*
X113309433Y-72309003D01*
X113236446Y-72533631D01*
X113199500Y-72766902D01*
X113199500Y-73003097D01*
X113236446Y-73236368D01*
X113309433Y-73460996D01*
X113372611Y-73584988D01*
X113416657Y-73671433D01*
X113555483Y-73862510D01*
X113722490Y-74029517D01*
X113757127Y-74054683D01*
X113799792Y-74110013D01*
X113805771Y-74179626D01*
X113773165Y-74241421D01*
X113757130Y-74255315D01*
X113739365Y-74268222D01*
X113722488Y-74280484D01*
X113555485Y-74447487D01*
X113555485Y-74447488D01*
X113555483Y-74447490D01*
X113495862Y-74529550D01*
X113416657Y-74638566D01*
X113309433Y-74849003D01*
X113236446Y-75073631D01*
X113199500Y-75306902D01*
X113199500Y-75543097D01*
X113236446Y-75776368D01*
X113309433Y-76000996D01*
X113372611Y-76124988D01*
X113416657Y-76211433D01*
X113555483Y-76402510D01*
X113722490Y-76569517D01*
X113757127Y-76594683D01*
X113799792Y-76650013D01*
X113805771Y-76719626D01*
X113773165Y-76781421D01*
X113757130Y-76795315D01*
X113739365Y-76808222D01*
X113722488Y-76820484D01*
X113555485Y-76987487D01*
X113555485Y-76987488D01*
X113555483Y-76987490D01*
X113495862Y-77069550D01*
X113416657Y-77178566D01*
X113309433Y-77389003D01*
X113236446Y-77613631D01*
X113199500Y-77846902D01*
X113199500Y-78083097D01*
X113236446Y-78316368D01*
X113309433Y-78540996D01*
X113393722Y-78706421D01*
X113416657Y-78751433D01*
X113555483Y-78942510D01*
X113722490Y-79109517D01*
X113757127Y-79134683D01*
X113799792Y-79190013D01*
X113805771Y-79259626D01*
X113773165Y-79321421D01*
X113757130Y-79335315D01*
X113739365Y-79348222D01*
X113722488Y-79360484D01*
X113555485Y-79527487D01*
X113555485Y-79527488D01*
X113555483Y-79527490D01*
X113495862Y-79609550D01*
X113416657Y-79718566D01*
X113309433Y-79929003D01*
X113236446Y-80153631D01*
X113199500Y-80386902D01*
X113199500Y-80623097D01*
X113236446Y-80856368D01*
X113309433Y-81080996D01*
X113388692Y-81236549D01*
X113416657Y-81291433D01*
X113555483Y-81482510D01*
X113722490Y-81649517D01*
X113757127Y-81674683D01*
X113799792Y-81730013D01*
X113805771Y-81799626D01*
X113773165Y-81861421D01*
X113757130Y-81875315D01*
X113739365Y-81888222D01*
X113722488Y-81900484D01*
X113555485Y-82067487D01*
X113555485Y-82067488D01*
X113555483Y-82067490D01*
X113495862Y-82149550D01*
X113416657Y-82258566D01*
X113309433Y-82469003D01*
X113236446Y-82693631D01*
X113199500Y-82926902D01*
X113199500Y-83163097D01*
X113236446Y-83396368D01*
X113309433Y-83620996D01*
X113416657Y-83831433D01*
X113555483Y-84022510D01*
X113722490Y-84189517D01*
X113913567Y-84328343D01*
X113930120Y-84336777D01*
X114124003Y-84435566D01*
X114124005Y-84435566D01*
X114124008Y-84435568D01*
X114193253Y-84458067D01*
X114268662Y-84482569D01*
X114326337Y-84522007D01*
X114353535Y-84586366D01*
X114341620Y-84655212D01*
X114294376Y-84706688D01*
X114230343Y-84724500D01*
X114115258Y-84724500D01*
X113899474Y-84752910D01*
X113887762Y-84754452D01*
X113802655Y-84777256D01*
X113666112Y-84813842D01*
X113454123Y-84901650D01*
X113454109Y-84901657D01*
X113255382Y-85016392D01*
X113073338Y-85156081D01*
X112911081Y-85318338D01*
X112771392Y-85500382D01*
X112656657Y-85699109D01*
X112656650Y-85699123D01*
X112568842Y-85911112D01*
X112568842Y-85911113D01*
X112512527Y-86121288D01*
X112509453Y-86132759D01*
X112509451Y-86132770D01*
X112479500Y-86360258D01*
X110780000Y-86360258D01*
X110780000Y-81985000D01*
X93090000Y-81985000D01*
X93090000Y-88375500D01*
X93070315Y-88442539D01*
X93017511Y-88488294D01*
X92966000Y-88499500D01*
X78624500Y-88499500D01*
X78557461Y-88479815D01*
X78511706Y-88427011D01*
X78500500Y-88375500D01*
X78500500Y-85878711D01*
X81149500Y-85878711D01*
X81149500Y-86121288D01*
X81181161Y-86361785D01*
X81243947Y-86596104D01*
X81335540Y-86817229D01*
X81336776Y-86820212D01*
X81458064Y-87030289D01*
X81458066Y-87030292D01*
X81458067Y-87030293D01*
X81605733Y-87222736D01*
X81605739Y-87222743D01*
X81777256Y-87394260D01*
X81777262Y-87394265D01*
X81969711Y-87541936D01*
X82179788Y-87663224D01*
X82403900Y-87756054D01*
X82638211Y-87818838D01*
X82818586Y-87842584D01*
X82878711Y-87850500D01*
X82878712Y-87850500D01*
X83121289Y-87850500D01*
X83169388Y-87844167D01*
X83361789Y-87818838D01*
X83596100Y-87756054D01*
X83820212Y-87663224D01*
X84030289Y-87541936D01*
X84222738Y-87394265D01*
X84394265Y-87222738D01*
X84541936Y-87030289D01*
X84663224Y-86820212D01*
X84756054Y-86596100D01*
X84818838Y-86361789D01*
X84850500Y-86121288D01*
X84850500Y-85878712D01*
X84818838Y-85638211D01*
X84756054Y-85403900D01*
X84663224Y-85179788D01*
X84541936Y-84969711D01*
X84394265Y-84777262D01*
X84394260Y-84777256D01*
X84222743Y-84605739D01*
X84222736Y-84605733D01*
X84030293Y-84458067D01*
X84030292Y-84458066D01*
X84030289Y-84458064D01*
X83820212Y-84336776D01*
X83799853Y-84328343D01*
X83596104Y-84243947D01*
X83361785Y-84181161D01*
X83121289Y-84149500D01*
X83121288Y-84149500D01*
X82878712Y-84149500D01*
X82878711Y-84149500D01*
X82638214Y-84181161D01*
X82403895Y-84243947D01*
X82179794Y-84336773D01*
X82179785Y-84336777D01*
X81969706Y-84458067D01*
X81777263Y-84605733D01*
X81777256Y-84605739D01*
X81605739Y-84777256D01*
X81605733Y-84777263D01*
X81458067Y-84969706D01*
X81336777Y-85179785D01*
X81336773Y-85179794D01*
X81243947Y-85403895D01*
X81181161Y-85638214D01*
X81149500Y-85878711D01*
X78500500Y-85878711D01*
X78500500Y-46437135D01*
X87799500Y-46437135D01*
X87799500Y-48532870D01*
X87799501Y-48532876D01*
X87805908Y-48592483D01*
X87856202Y-48727328D01*
X87856206Y-48727335D01*
X87942452Y-48842544D01*
X87942455Y-48842547D01*
X88057664Y-48928793D01*
X88065454Y-48933047D01*
X88063725Y-48936211D01*
X88105915Y-48967734D01*
X88130393Y-49033175D01*
X88115604Y-49101462D01*
X88107036Y-49115021D01*
X88017084Y-49238829D01*
X87909897Y-49449197D01*
X87836934Y-49673752D01*
X87800000Y-49906947D01*
X87800000Y-50143052D01*
X87836934Y-50376247D01*
X87909897Y-50600802D01*
X88017087Y-50811174D01*
X88077338Y-50894104D01*
X88077340Y-50894105D01*
X88808871Y-50162574D01*
X88824755Y-50221853D01*
X88891898Y-50338147D01*
X88986853Y-50433102D01*
X89103147Y-50500245D01*
X89162425Y-50516128D01*
X88430893Y-51247658D01*
X88432448Y-51267405D01*
X88418084Y-51335783D01*
X88381717Y-51377451D01*
X88322490Y-51420482D01*
X88155485Y-51587487D01*
X88155485Y-51587488D01*
X88155483Y-51587490D01*
X88095862Y-51669550D01*
X88016657Y-51778566D01*
X87909433Y-51989003D01*
X87836446Y-52213631D01*
X87799500Y-52446902D01*
X87799500Y-52683097D01*
X87836446Y-52916368D01*
X87909433Y-53140996D01*
X87988037Y-53295264D01*
X88016657Y-53351433D01*
X88155483Y-53542510D01*
X88322490Y-53709517D01*
X88357127Y-53734683D01*
X88399792Y-53790013D01*
X88405771Y-53859626D01*
X88373165Y-53921421D01*
X88357130Y-53935315D01*
X88339365Y-53948222D01*
X88322488Y-53960484D01*
X88155485Y-54127487D01*
X88155485Y-54127488D01*
X88155483Y-54127490D01*
X88117929Y-54179179D01*
X88016657Y-54318566D01*
X87909433Y-54529003D01*
X87836446Y-54753631D01*
X87799500Y-54986902D01*
X87799500Y-55223097D01*
X87836446Y-55456368D01*
X87909433Y-55680996D01*
X88010242Y-55878842D01*
X88016657Y-55891433D01*
X88155483Y-56082510D01*
X88322490Y-56249517D01*
X88357127Y-56274683D01*
X88399792Y-56330013D01*
X88405771Y-56399626D01*
X88373165Y-56461421D01*
X88357130Y-56475315D01*
X88339365Y-56488222D01*
X88322488Y-56500484D01*
X88155485Y-56667487D01*
X88155485Y-56667488D01*
X88155483Y-56667490D01*
X88116493Y-56721155D01*
X88016657Y-56858566D01*
X87909433Y-57069003D01*
X87836446Y-57293631D01*
X87799500Y-57526902D01*
X87799500Y-57763097D01*
X87836446Y-57996368D01*
X87909433Y-58220996D01*
X88016657Y-58431433D01*
X88155483Y-58622510D01*
X88322490Y-58789517D01*
X88357127Y-58814683D01*
X88399792Y-58870013D01*
X88405771Y-58939626D01*
X88373165Y-59001421D01*
X88357130Y-59015315D01*
X88339365Y-59028222D01*
X88322488Y-59040484D01*
X88155485Y-59207487D01*
X88155485Y-59207488D01*
X88155483Y-59207490D01*
X88095862Y-59289550D01*
X88016657Y-59398566D01*
X87909433Y-59609003D01*
X87836446Y-59833631D01*
X87799500Y-60066902D01*
X87799500Y-60303097D01*
X87836446Y-60536368D01*
X87909433Y-60760996D01*
X88008149Y-60954735D01*
X88016657Y-60971433D01*
X88155483Y-61162510D01*
X88322490Y-61329517D01*
X88357127Y-61354683D01*
X88399792Y-61410013D01*
X88405771Y-61479626D01*
X88373165Y-61541421D01*
X88357130Y-61555315D01*
X88339365Y-61568222D01*
X88322488Y-61580484D01*
X88155485Y-61747487D01*
X88155485Y-61747488D01*
X88155483Y-61747490D01*
X88095862Y-61829550D01*
X88016657Y-61938566D01*
X87909433Y-62149003D01*
X87836446Y-62373631D01*
X87799500Y-62606902D01*
X87799500Y-62843097D01*
X87836446Y-63076368D01*
X87909433Y-63300996D01*
X87991137Y-63461347D01*
X88016657Y-63511433D01*
X88155483Y-63702510D01*
X88322490Y-63869517D01*
X88357127Y-63894683D01*
X88399792Y-63950013D01*
X88405771Y-64019626D01*
X88373165Y-64081421D01*
X88357130Y-64095315D01*
X88339365Y-64108222D01*
X88322488Y-64120484D01*
X88155485Y-64287487D01*
X88155485Y-64287488D01*
X88155483Y-64287490D01*
X88121499Y-64334265D01*
X88016657Y-64478566D01*
X87909433Y-64689003D01*
X87836446Y-64913631D01*
X87799500Y-65146902D01*
X87799500Y-65383097D01*
X87836446Y-65616368D01*
X87909433Y-65840996D01*
X87972452Y-65964676D01*
X88016657Y-66051433D01*
X88155483Y-66242510D01*
X88322490Y-66409517D01*
X88357127Y-66434683D01*
X88399792Y-66490013D01*
X88405771Y-66559626D01*
X88373165Y-66621421D01*
X88357130Y-66635315D01*
X88356616Y-66635689D01*
X88322488Y-66660484D01*
X88155485Y-66827487D01*
X88155485Y-66827488D01*
X88155483Y-66827490D01*
X88107373Y-66893707D01*
X88016657Y-67018566D01*
X87909433Y-67229003D01*
X87836446Y-67453631D01*
X87799500Y-67686902D01*
X87799500Y-67923097D01*
X87836446Y-68156368D01*
X87909433Y-68380996D01*
X87972611Y-68504988D01*
X88016657Y-68591433D01*
X88155483Y-68782510D01*
X88322490Y-68949517D01*
X88357127Y-68974683D01*
X88399792Y-69030013D01*
X88405771Y-69099626D01*
X88373165Y-69161421D01*
X88357130Y-69175315D01*
X88339365Y-69188222D01*
X88322488Y-69200484D01*
X88155485Y-69367487D01*
X88155485Y-69367488D01*
X88155483Y-69367490D01*
X88095862Y-69449550D01*
X88016657Y-69558566D01*
X87909433Y-69769003D01*
X87836446Y-69993631D01*
X87799500Y-70226902D01*
X87799500Y-70463097D01*
X87836446Y-70696368D01*
X87909433Y-70920996D01*
X87972611Y-71044988D01*
X88016657Y-71131433D01*
X88155483Y-71322510D01*
X88322490Y-71489517D01*
X88357127Y-71514683D01*
X88399792Y-71570013D01*
X88405771Y-71639626D01*
X88373165Y-71701421D01*
X88357130Y-71715315D01*
X88339365Y-71728222D01*
X88322488Y-71740484D01*
X88155485Y-71907487D01*
X88155485Y-71907488D01*
X88155483Y-71907490D01*
X88095862Y-71989550D01*
X88016657Y-72098566D01*
X87909433Y-72309003D01*
X87836446Y-72533631D01*
X87799500Y-72766902D01*
X87799500Y-73003097D01*
X87836446Y-73236368D01*
X87909433Y-73460996D01*
X87972611Y-73584988D01*
X88016657Y-73671433D01*
X88155483Y-73862510D01*
X88322490Y-74029517D01*
X88357127Y-74054683D01*
X88399792Y-74110013D01*
X88405771Y-74179626D01*
X88373165Y-74241421D01*
X88357130Y-74255315D01*
X88339365Y-74268222D01*
X88322488Y-74280484D01*
X88155485Y-74447487D01*
X88155485Y-74447488D01*
X88155483Y-74447490D01*
X88095862Y-74529550D01*
X88016657Y-74638566D01*
X87909433Y-74849003D01*
X87836446Y-75073631D01*
X87799500Y-75306902D01*
X87799500Y-75543097D01*
X87836446Y-75776368D01*
X87909433Y-76000996D01*
X87972611Y-76124988D01*
X88016657Y-76211433D01*
X88155483Y-76402510D01*
X88322490Y-76569517D01*
X88357127Y-76594683D01*
X88399792Y-76650013D01*
X88405771Y-76719626D01*
X88373165Y-76781421D01*
X88357130Y-76795315D01*
X88339365Y-76808222D01*
X88322488Y-76820484D01*
X88155485Y-76987487D01*
X88155485Y-76987488D01*
X88155483Y-76987490D01*
X88095862Y-77069550D01*
X88016657Y-77178566D01*
X87909433Y-77389003D01*
X87836446Y-77613631D01*
X87799500Y-77846902D01*
X87799500Y-78083097D01*
X87836446Y-78316368D01*
X87909433Y-78540996D01*
X87993722Y-78706421D01*
X88016657Y-78751433D01*
X88155483Y-78942510D01*
X88322490Y-79109517D01*
X88357127Y-79134683D01*
X88399792Y-79190013D01*
X88405771Y-79259626D01*
X88373165Y-79321421D01*
X88357130Y-79335315D01*
X88339365Y-79348222D01*
X88322488Y-79360484D01*
X88155485Y-79527487D01*
X88155485Y-79527488D01*
X88155483Y-79527490D01*
X88095862Y-79609550D01*
X88016657Y-79718566D01*
X87909433Y-79929003D01*
X87836446Y-80153631D01*
X87799500Y-80386902D01*
X87799500Y-80623097D01*
X87836446Y-80856368D01*
X87909433Y-81080996D01*
X87988692Y-81236549D01*
X88016657Y-81291433D01*
X88155483Y-81482510D01*
X88322490Y-81649517D01*
X88357127Y-81674683D01*
X88399792Y-81730013D01*
X88405771Y-81799626D01*
X88373165Y-81861421D01*
X88357130Y-81875315D01*
X88339365Y-81888222D01*
X88322488Y-81900484D01*
X88155485Y-82067487D01*
X88155485Y-82067488D01*
X88155483Y-82067490D01*
X88095862Y-82149550D01*
X88016657Y-82258566D01*
X87909433Y-82469003D01*
X87836446Y-82693631D01*
X87799500Y-82926902D01*
X87799500Y-83163097D01*
X87836446Y-83396368D01*
X87909433Y-83620996D01*
X88016657Y-83831433D01*
X88155483Y-84022510D01*
X88322490Y-84189517D01*
X88513567Y-84328343D01*
X88530120Y-84336777D01*
X88724003Y-84435566D01*
X88724005Y-84435566D01*
X88724008Y-84435568D01*
X88793253Y-84458067D01*
X88948631Y-84508553D01*
X89181903Y-84545500D01*
X89215708Y-84545500D01*
X89282747Y-84565185D01*
X89328502Y-84617989D01*
X89338446Y-84687147D01*
X89309421Y-84750703D01*
X89250643Y-84788477D01*
X89247835Y-84789265D01*
X89190418Y-84804649D01*
X89156112Y-84813842D01*
X88944123Y-84901650D01*
X88944109Y-84901657D01*
X88745382Y-85016392D01*
X88563338Y-85156081D01*
X88401081Y-85318338D01*
X88261392Y-85500382D01*
X88146657Y-85699109D01*
X88146650Y-85699123D01*
X88058842Y-85911112D01*
X88058842Y-85911113D01*
X88002527Y-86121288D01*
X87999453Y-86132759D01*
X87999451Y-86132770D01*
X87969500Y-86360258D01*
X87969500Y-86589741D01*
X87994446Y-86779215D01*
X87999452Y-86817238D01*
X88056538Y-87030289D01*
X88058842Y-87038887D01*
X88146650Y-87250876D01*
X88146656Y-87250888D01*
X88229434Y-87394265D01*
X88261392Y-87449617D01*
X88401081Y-87631661D01*
X88401089Y-87631670D01*
X88563330Y-87793911D01*
X88563338Y-87793918D01*
X88745382Y-87933607D01*
X88745385Y-87933608D01*
X88745388Y-87933611D01*
X88944112Y-88048344D01*
X88944117Y-88048346D01*
X88944123Y-88048349D01*
X89035480Y-88086190D01*
X89156113Y-88136158D01*
X89377762Y-88195548D01*
X89605266Y-88225500D01*
X89605273Y-88225500D01*
X89834727Y-88225500D01*
X89834734Y-88225500D01*
X90062238Y-88195548D01*
X90283887Y-88136158D01*
X90495888Y-88048344D01*
X90694612Y-87933611D01*
X90876661Y-87793919D01*
X90876665Y-87793914D01*
X90876670Y-87793911D01*
X91038911Y-87631670D01*
X91038914Y-87631665D01*
X91038919Y-87631661D01*
X91178611Y-87449612D01*
X91293344Y-87250888D01*
X91381158Y-87038887D01*
X91440548Y-86817238D01*
X91470500Y-86589734D01*
X91470500Y-86360266D01*
X91440548Y-86132762D01*
X91381158Y-85911113D01*
X91293344Y-85699112D01*
X91178611Y-85500388D01*
X91178608Y-85500385D01*
X91178607Y-85500382D01*
X91038918Y-85318338D01*
X91038911Y-85318330D01*
X90876670Y-85156089D01*
X90876661Y-85156081D01*
X90694617Y-85016392D01*
X90495890Y-84901657D01*
X90495876Y-84901650D01*
X90283887Y-84813842D01*
X90062238Y-84754452D01*
X90024215Y-84749446D01*
X89834741Y-84724500D01*
X89834734Y-84724500D01*
X89769657Y-84724500D01*
X89702618Y-84704815D01*
X89656863Y-84652011D01*
X89646919Y-84582853D01*
X89675944Y-84519297D01*
X89731338Y-84482569D01*
X89875992Y-84435568D01*
X90086433Y-84328343D01*
X90277510Y-84189517D01*
X90444517Y-84022510D01*
X90583343Y-83831433D01*
X90690568Y-83620992D01*
X90763553Y-83396368D01*
X90800500Y-83163097D01*
X90800500Y-82926902D01*
X90763553Y-82693631D01*
X90690566Y-82469003D01*
X90583342Y-82258566D01*
X90444517Y-82067490D01*
X90277510Y-81900483D01*
X90242872Y-81875317D01*
X90200207Y-81819989D01*
X90194228Y-81750375D01*
X90226833Y-81688580D01*
X90242873Y-81674682D01*
X90277510Y-81649517D01*
X90444517Y-81482510D01*
X90583343Y-81291433D01*
X90690568Y-81080992D01*
X90763553Y-80856368D01*
X90769938Y-80816054D01*
X90800500Y-80623097D01*
X90800500Y-80386902D01*
X90763553Y-80153631D01*
X90690566Y-79929003D01*
X90583342Y-79718566D01*
X90444517Y-79527490D01*
X90277510Y-79360483D01*
X90242872Y-79335317D01*
X90200207Y-79279989D01*
X90194228Y-79210375D01*
X90226833Y-79148580D01*
X90242873Y-79134682D01*
X90277510Y-79109517D01*
X90444517Y-78942510D01*
X90583343Y-78751433D01*
X90690568Y-78540992D01*
X90763553Y-78316368D01*
X90775682Y-78239788D01*
X90800500Y-78083097D01*
X90800500Y-77846902D01*
X90763553Y-77613631D01*
X90690566Y-77389003D01*
X90583342Y-77178566D01*
X90444517Y-76987490D01*
X90277510Y-76820483D01*
X90242872Y-76795317D01*
X90200207Y-76739989D01*
X90194228Y-76670375D01*
X90226833Y-76608580D01*
X90242873Y-76594682D01*
X90277510Y-76569517D01*
X90444517Y-76402510D01*
X90583343Y-76211433D01*
X90690568Y-76000992D01*
X90763553Y-75776368D01*
X90795995Y-75571538D01*
X90800500Y-75543097D01*
X90800500Y-75306902D01*
X90763553Y-75073631D01*
X90690566Y-74849003D01*
X90583342Y-74638566D01*
X90444517Y-74447490D01*
X90277510Y-74280483D01*
X90242872Y-74255317D01*
X90200207Y-74199989D01*
X90194228Y-74130375D01*
X90226833Y-74068580D01*
X90242873Y-74054682D01*
X90277510Y-74029517D01*
X90444517Y-73862510D01*
X90583343Y-73671433D01*
X90690568Y-73460992D01*
X90763553Y-73236368D01*
X90795995Y-73031538D01*
X90800500Y-73003097D01*
X90800500Y-72766902D01*
X90763553Y-72533631D01*
X90729689Y-72429412D01*
X90690568Y-72309008D01*
X90690566Y-72309005D01*
X90690566Y-72309003D01*
X90595175Y-72121789D01*
X90583343Y-72098567D01*
X90444517Y-71907490D01*
X90277510Y-71740483D01*
X90242872Y-71715317D01*
X90200207Y-71659989D01*
X90194228Y-71590375D01*
X90226833Y-71528580D01*
X90242873Y-71514682D01*
X90277510Y-71489517D01*
X90444517Y-71322510D01*
X90583343Y-71131433D01*
X90690568Y-70920992D01*
X90763553Y-70696368D01*
X90795995Y-70491538D01*
X90800500Y-70463097D01*
X90800500Y-70226902D01*
X90763553Y-69993631D01*
X90690566Y-69769003D01*
X90583342Y-69558566D01*
X90444517Y-69367490D01*
X90277510Y-69200483D01*
X90242872Y-69175317D01*
X90200207Y-69119989D01*
X90194228Y-69050375D01*
X90226833Y-68988580D01*
X90242873Y-68974682D01*
X90277510Y-68949517D01*
X90444517Y-68782510D01*
X90583343Y-68591433D01*
X90690568Y-68380992D01*
X90763553Y-68156368D01*
X90795995Y-67951538D01*
X90800500Y-67923097D01*
X90800500Y-67686902D01*
X90763553Y-67453631D01*
X90690566Y-67229003D01*
X90583342Y-67018566D01*
X90575335Y-67007545D01*
X90444517Y-66827490D01*
X90277510Y-66660483D01*
X90242872Y-66635317D01*
X90200207Y-66579989D01*
X90194228Y-66510375D01*
X90226833Y-66448580D01*
X90242873Y-66434682D01*
X90277510Y-66409517D01*
X90444517Y-66242510D01*
X90583343Y-66051433D01*
X90690568Y-65840992D01*
X90763553Y-65616368D01*
X90784344Y-65485098D01*
X90800500Y-65383097D01*
X90800500Y-65146902D01*
X90763553Y-64913631D01*
X90713257Y-64758838D01*
X90690568Y-64689008D01*
X90690566Y-64689005D01*
X90690566Y-64689003D01*
X90634002Y-64577991D01*
X90583343Y-64478567D01*
X90444517Y-64287490D01*
X90277510Y-64120483D01*
X90242872Y-64095317D01*
X90200207Y-64039989D01*
X90194228Y-63970375D01*
X90226833Y-63908580D01*
X90242873Y-63894682D01*
X90251064Y-63888731D01*
X90277510Y-63869517D01*
X90444517Y-63702510D01*
X90583343Y-63511433D01*
X90690568Y-63300992D01*
X90763553Y-63076368D01*
X90766689Y-63056566D01*
X90800500Y-62843097D01*
X90800500Y-62606902D01*
X90763553Y-62373631D01*
X90711915Y-62214707D01*
X90690568Y-62149008D01*
X90690566Y-62149005D01*
X90690566Y-62149003D01*
X90612426Y-61995646D01*
X90583343Y-61938567D01*
X90444517Y-61747490D01*
X90277510Y-61580483D01*
X90242872Y-61555317D01*
X90200207Y-61499989D01*
X90194228Y-61430375D01*
X90226833Y-61368580D01*
X90242873Y-61354682D01*
X90247871Y-61351051D01*
X90277510Y-61329517D01*
X90444517Y-61162510D01*
X90583343Y-60971433D01*
X90690568Y-60760992D01*
X90763553Y-60536368D01*
X90776021Y-60457650D01*
X90800500Y-60303097D01*
X90800500Y-60066902D01*
X90763553Y-59833631D01*
X90690566Y-59609003D01*
X90622594Y-59475602D01*
X90583343Y-59398567D01*
X90444517Y-59207490D01*
X90277510Y-59040483D01*
X90242872Y-59015317D01*
X90200207Y-58959989D01*
X90194228Y-58890375D01*
X90226833Y-58828580D01*
X90242873Y-58814682D01*
X90277510Y-58789517D01*
X90444517Y-58622510D01*
X90583343Y-58431433D01*
X90690568Y-58220992D01*
X90763553Y-57996368D01*
X90765218Y-57985855D01*
X90800500Y-57763097D01*
X90800500Y-57526902D01*
X90763553Y-57293631D01*
X90729689Y-57189412D01*
X90690568Y-57069008D01*
X90690566Y-57069005D01*
X90690566Y-57069003D01*
X90603709Y-56898538D01*
X90583343Y-56858567D01*
X90444517Y-56667490D01*
X90277510Y-56500483D01*
X90242872Y-56475317D01*
X90200207Y-56419989D01*
X90194228Y-56350375D01*
X90226833Y-56288580D01*
X90242873Y-56274682D01*
X90277510Y-56249517D01*
X90444517Y-56082510D01*
X90583343Y-55891433D01*
X90690568Y-55680992D01*
X90763553Y-55456368D01*
X90769184Y-55420815D01*
X90800500Y-55223097D01*
X90800500Y-54986902D01*
X90763553Y-54753631D01*
X90703802Y-54569738D01*
X90690568Y-54529008D01*
X90690566Y-54529005D01*
X90690566Y-54529003D01*
X90583342Y-54318566D01*
X90444517Y-54127490D01*
X90277510Y-53960483D01*
X90242872Y-53935317D01*
X90200207Y-53879989D01*
X90194228Y-53810375D01*
X90226833Y-53748580D01*
X90242873Y-53734682D01*
X90277510Y-53709517D01*
X90444517Y-53542510D01*
X90583343Y-53351433D01*
X90690568Y-53140992D01*
X90763553Y-52916368D01*
X90768910Y-52882544D01*
X90800500Y-52683097D01*
X90800500Y-52446902D01*
X90763553Y-52213631D01*
X90690566Y-51989003D01*
X90583342Y-51778566D01*
X90444517Y-51587490D01*
X90277510Y-51420483D01*
X90218282Y-51377451D01*
X90175617Y-51322122D01*
X90167550Y-51267404D01*
X90169104Y-51247657D01*
X89437574Y-50516128D01*
X89496853Y-50500245D01*
X89613147Y-50433102D01*
X89708102Y-50338147D01*
X89775245Y-50221853D01*
X89791128Y-50162575D01*
X90522658Y-50894105D01*
X90522658Y-50894104D01*
X90582914Y-50811169D01*
X90582918Y-50811163D01*
X90690102Y-50600802D01*
X90763065Y-50376247D01*
X90800000Y-50143052D01*
X90800000Y-49906947D01*
X90763065Y-49673752D01*
X90690102Y-49449197D01*
X90582914Y-49238828D01*
X90492964Y-49115023D01*
X90469484Y-49049216D01*
X90485309Y-48981162D01*
X90534640Y-48933220D01*
X90534546Y-48933047D01*
X90535169Y-48932706D01*
X90535415Y-48932468D01*
X90536480Y-48931990D01*
X90542326Y-48928797D01*
X90542331Y-48928796D01*
X90657546Y-48842546D01*
X90743796Y-48727331D01*
X90794091Y-48592483D01*
X90800500Y-48532873D01*
X90800499Y-46437128D01*
X90794091Y-46377517D01*
X90780278Y-46340483D01*
X90743797Y-46242671D01*
X90743793Y-46242664D01*
X90657547Y-46127455D01*
X90657544Y-46127452D01*
X90542335Y-46041206D01*
X90542328Y-46041202D01*
X90407482Y-45990908D01*
X90407483Y-45990908D01*
X90347883Y-45984501D01*
X90347881Y-45984500D01*
X90347873Y-45984500D01*
X90347864Y-45984500D01*
X88252129Y-45984500D01*
X88252123Y-45984501D01*
X88192516Y-45990908D01*
X88057671Y-46041202D01*
X88057664Y-46041206D01*
X87942455Y-46127452D01*
X87942452Y-46127455D01*
X87856206Y-46242664D01*
X87856202Y-46242671D01*
X87805908Y-46377517D01*
X87800658Y-46426358D01*
X87799501Y-46437123D01*
X87799500Y-46437135D01*
X78500500Y-46437135D01*
X78500500Y-34378711D01*
X81149500Y-34378711D01*
X81149500Y-34621288D01*
X81181161Y-34861785D01*
X81243947Y-35096104D01*
X81336773Y-35320205D01*
X81336776Y-35320212D01*
X81458064Y-35530289D01*
X81458066Y-35530292D01*
X81458067Y-35530293D01*
X81605733Y-35722736D01*
X81605739Y-35722743D01*
X81777256Y-35894260D01*
X81777262Y-35894265D01*
X81969711Y-36041936D01*
X82179788Y-36163224D01*
X82403900Y-36256054D01*
X82638211Y-36318838D01*
X82818586Y-36342584D01*
X82878711Y-36350500D01*
X82878712Y-36350500D01*
X83121289Y-36350500D01*
X83169388Y-36344167D01*
X83361789Y-36318838D01*
X83596100Y-36256054D01*
X83820212Y-36163224D01*
X84030289Y-36041936D01*
X84222738Y-35894265D01*
X84394265Y-35722738D01*
X84541936Y-35530289D01*
X84663224Y-35320212D01*
X84756054Y-35096100D01*
X84818838Y-34861789D01*
X84850500Y-34621288D01*
X84850500Y-34378712D01*
X84818838Y-34138211D01*
X84756054Y-33903900D01*
X84752063Y-33894266D01*
X84744072Y-33874973D01*
X84663224Y-33679788D01*
X84541936Y-33469711D01*
X84394265Y-33277262D01*
X84394260Y-33277256D01*
X84222743Y-33105739D01*
X84222736Y-33105733D01*
X84030293Y-32958067D01*
X84030292Y-32958066D01*
X84030289Y-32958064D01*
X83820212Y-32836776D01*
X83791814Y-32825013D01*
X83596104Y-32743947D01*
X83361785Y-32681161D01*
X83121289Y-32649500D01*
X83121288Y-32649500D01*
X82878712Y-32649500D01*
X82878711Y-32649500D01*
X82638214Y-32681161D01*
X82403895Y-32743947D01*
X82179794Y-32836773D01*
X82179785Y-32836777D01*
X81969706Y-32958067D01*
X81777263Y-33105733D01*
X81777256Y-33105739D01*
X81605739Y-33277256D01*
X81605733Y-33277263D01*
X81458067Y-33469706D01*
X81336777Y-33679785D01*
X81336773Y-33679794D01*
X81243947Y-33903895D01*
X81181161Y-34138214D01*
X81149500Y-34378711D01*
X78500500Y-34378711D01*
X78500500Y-29624500D01*
X78520185Y-29557461D01*
X78572989Y-29511706D01*
X78624500Y-29500500D01*
X147375500Y-29500500D01*
X147442539Y-29520185D01*
G37*
%TD.AperFunction*%
%TD*%
M02*
