M48
; DRILL file KiCad 10.0.5 date 2026-09-01T15:17:20
; FORMAT={-:-/ absolute / metric / decimal}
; #@! TF.CreationDate,2026-09-01T15:17:20-04:00
; #@! TF.GenerationSoftware,Kicad,Pcbnew,10.0.5
; #@! TF.FileFunction,Plated,1,2,PTH
FMAT,2
METRIC
; #@! TA.AperFunction,Plated,PTH,ViaDrill
T1C0.300
; #@! TA.AperFunction,Plated,PTH,ViaDrill
T2C0.400
; #@! TA.AperFunction,Plated,PTH,ComponentDrill
T3C1.020
; #@! TA.AperFunction,Plated,PTH,ComponentDrill
T4C1.270
%
G90
G05
T1
X87.0Y-43.0
X118.5Y-62.725
X118.8Y-60.185
X123.5Y-61.0
X126.0Y-71.5
X126.3Y-54.8
X127.7Y-53.8
X129.099Y-56.8
X130.499Y-55.8
X133.299Y-33.5
T2
X81.0Y-50.0
X81.0Y-60.0
X81.0Y-70.0
X95.0Y-35.0
X100.0Y-50.0
X100.0Y-58.0
X100.0Y-66.0
X100.0Y-74.0
X100.0Y-79.0
X105.0Y-35.0
X112.0Y-35.0
X119.0Y-36.0
X120.0Y-79.0
X122.0Y-66.0
X122.5Y-49.9
X132.0Y-79.0
X136.0Y-45.0
X140.0Y-58.0
X140.0Y-70.0
T3
X89.3Y-47.485
X89.3Y-50.025
X89.3Y-52.565
X89.3Y-55.105
X89.3Y-57.645
X89.3Y-60.185
X89.3Y-62.725
X89.3Y-65.265
X89.3Y-67.805
X89.3Y-70.345
X89.3Y-72.885
X89.3Y-75.425
X89.3Y-77.965
X89.3Y-80.505
X89.3Y-83.045
X114.7Y-47.485
X114.7Y-50.025
X114.7Y-52.565
X114.7Y-55.105
X114.7Y-57.645
X114.7Y-60.185
X114.7Y-62.725
X114.7Y-65.265
X114.7Y-67.805
X114.7Y-70.345
X114.7Y-72.885
X114.7Y-75.425
X114.7Y-77.965
X114.7Y-80.505
X114.7Y-83.045
T4
X127.67Y-62.11
X127.67Y-64.65
X127.67Y-67.19
X127.67Y-69.73
X127.67Y-72.27
X127.67Y-74.81
X127.67Y-77.35
X127.67Y-79.89
M30
