%TF.GenerationSoftware,KiCad,Pcbnew,10.0.5*%
%TF.CreationDate,2026-09-01T15:17:19-04:00*%
%TF.ProjectId,pcb,7063622e-6b69-4636-9164-5f7063625858,rev?*%
%TF.SameCoordinates,Original*%
%TF.FileFunction,Legend,Top*%
%TF.FilePolarity,Positive*%
%FSLAX46Y46*%
G04 Gerber Fmt 4.6, Leading zero omitted, Abs format (unit mm)*
G04 Created by KiCad (PCBNEW 10.0.5) date 2026-09-01 15:17:19*
%MOMM*%
%LPD*%
G01*
G04 APERTURE LIST*
G04 Aperture macros list*
%AMRoundRect*
0 Rectangle with rounded corners*
0 $1 Rounding radius*
0 $2 $3 $4 $5 $6 $7 $8 $9 X,Y pos of 4 corners*
0 Add a 4 corners polygon primitive as box body*
4,1,4,$2,$3,$4,$5,$6,$7,$8,$9,$2,$3,0*
0 Add four circle primitives for the rounded corners*
1,1,$1+$1,$2,$3*
1,1,$1+$1,$4,$5*
1,1,$1+$1,$6,$7*
1,1,$1+$1,$8,$9*
0 Add four rect primitives between the rounded corners*
20,1,$1+$1,$2,$3,$4,$5,0*
20,1,$1+$1,$4,$5,$6,$7,0*
20,1,$1+$1,$6,$7,$8,$9,0*
20,1,$1+$1,$8,$9,$2,$3,0*%
G04 Aperture macros list end*
%ADD10C,0.150000*%
%ADD11C,0.200000*%
%ADD12C,0.127000*%
%ADD13C,0.120000*%
%ADD14C,3.200000*%
%ADD15C,2.109000*%
%ADD16R,1.000000X2.450000*%
%ADD17R,2.450000X1.000000*%
%ADD18RoundRect,0.250000X-0.250000X-0.475000X0.250000X-0.475000X0.250000X0.475000X-0.250000X0.475000X0*%
%ADD19C,3.000000*%
%ADD20RoundRect,0.102000X-1.000000X-1.000000X1.000000X-1.000000X1.000000X1.000000X-1.000000X1.000000X0*%
%ADD21C,2.204000*%
G04 APERTURE END LIST*
D10*
X128309523Y-87254819D02*
X128309523Y-86588152D01*
X128309523Y-86778628D02*
X128357142Y-86683390D01*
X128357142Y-86683390D02*
X128404761Y-86635771D01*
X128404761Y-86635771D02*
X128499999Y-86588152D01*
X128499999Y-86588152D02*
X128595237Y-86588152D01*
X129309523Y-87207200D02*
X129214285Y-87254819D01*
X129214285Y-87254819D02*
X129023809Y-87254819D01*
X129023809Y-87254819D02*
X128928571Y-87207200D01*
X128928571Y-87207200D02*
X128880952Y-87111961D01*
X128880952Y-87111961D02*
X128880952Y-86731009D01*
X128880952Y-86731009D02*
X128928571Y-86635771D01*
X128928571Y-86635771D02*
X129023809Y-86588152D01*
X129023809Y-86588152D02*
X129214285Y-86588152D01*
X129214285Y-86588152D02*
X129309523Y-86635771D01*
X129309523Y-86635771D02*
X129357142Y-86731009D01*
X129357142Y-86731009D02*
X129357142Y-86826247D01*
X129357142Y-86826247D02*
X128880952Y-86921485D01*
X129690476Y-86588152D02*
X129928571Y-87254819D01*
X129928571Y-87254819D02*
X130166666Y-86588152D01*
X131261905Y-86969104D02*
X131738095Y-86969104D01*
X131166667Y-87254819D02*
X131500000Y-86254819D01*
X131500000Y-86254819D02*
X131833333Y-87254819D01*
X142754819Y-48714285D02*
X141754819Y-48714285D01*
X142754819Y-48142857D02*
X142183390Y-48571428D01*
X141754819Y-48142857D02*
X142326247Y-48714285D01*
X142231009Y-47714285D02*
X142231009Y-47380952D01*
X142754819Y-47238095D02*
X142754819Y-47714285D01*
X142754819Y-47714285D02*
X141754819Y-47714285D01*
X141754819Y-47714285D02*
X141754819Y-47238095D01*
X142231009Y-46809523D02*
X142231009Y-46476190D01*
X142754819Y-46333333D02*
X142754819Y-46809523D01*
X142754819Y-46809523D02*
X141754819Y-46809523D01*
X141754819Y-46809523D02*
X141754819Y-46333333D01*
X142754819Y-45904761D02*
X141754819Y-45904761D01*
X141754819Y-45904761D02*
X141754819Y-45523809D01*
X141754819Y-45523809D02*
X141802438Y-45428571D01*
X141802438Y-45428571D02*
X141850057Y-45380952D01*
X141850057Y-45380952D02*
X141945295Y-45333333D01*
X141945295Y-45333333D02*
X142088152Y-45333333D01*
X142088152Y-45333333D02*
X142183390Y-45380952D01*
X142183390Y-45380952D02*
X142231009Y-45428571D01*
X142231009Y-45428571D02*
X142278628Y-45523809D01*
X142278628Y-45523809D02*
X142278628Y-45904761D01*
X142373866Y-44904761D02*
X142373866Y-44142857D01*
X141754819Y-43476190D02*
X141754819Y-43285714D01*
X141754819Y-43285714D02*
X141802438Y-43190476D01*
X141802438Y-43190476D02*
X141897676Y-43095238D01*
X141897676Y-43095238D02*
X142088152Y-43047619D01*
X142088152Y-43047619D02*
X142421485Y-43047619D01*
X142421485Y-43047619D02*
X142611961Y-43095238D01*
X142611961Y-43095238D02*
X142707200Y-43190476D01*
X142707200Y-43190476D02*
X142754819Y-43285714D01*
X142754819Y-43285714D02*
X142754819Y-43476190D01*
X142754819Y-43476190D02*
X142707200Y-43571428D01*
X142707200Y-43571428D02*
X142611961Y-43666666D01*
X142611961Y-43666666D02*
X142421485Y-43714285D01*
X142421485Y-43714285D02*
X142088152Y-43714285D01*
X142088152Y-43714285D02*
X141897676Y-43666666D01*
X141897676Y-43666666D02*
X141802438Y-43571428D01*
X141802438Y-43571428D02*
X141754819Y-43476190D01*
X141754819Y-42619047D02*
X142564342Y-42619047D01*
X142564342Y-42619047D02*
X142659580Y-42571428D01*
X142659580Y-42571428D02*
X142707200Y-42523809D01*
X142707200Y-42523809D02*
X142754819Y-42428571D01*
X142754819Y-42428571D02*
X142754819Y-42238095D01*
X142754819Y-42238095D02*
X142707200Y-42142857D01*
X142707200Y-42142857D02*
X142659580Y-42095238D01*
X142659580Y-42095238D02*
X142564342Y-42047619D01*
X142564342Y-42047619D02*
X141754819Y-42047619D01*
X141754819Y-41714285D02*
X141754819Y-41142857D01*
X142754819Y-41428571D02*
X141754819Y-41428571D01*
D11*
X118828571Y-83344742D02*
X119228571Y-84544742D01*
X119228571Y-84544742D02*
X119628571Y-83344742D01*
X119971428Y-83459028D02*
X120028571Y-83401885D01*
X120028571Y-83401885D02*
X120142857Y-83344742D01*
X120142857Y-83344742D02*
X120428571Y-83344742D01*
X120428571Y-83344742D02*
X120542857Y-83401885D01*
X120542857Y-83401885D02*
X120599999Y-83459028D01*
X120599999Y-83459028D02*
X120657142Y-83573314D01*
X120657142Y-83573314D02*
X120657142Y-83687600D01*
X120657142Y-83687600D02*
X120599999Y-83859028D01*
X120599999Y-83859028D02*
X119914285Y-84544742D01*
X119914285Y-84544742D02*
X120657142Y-84544742D01*
X120999999Y-83344742D02*
X121399999Y-84544742D01*
X121399999Y-84544742D02*
X121799999Y-83344742D01*
X124028571Y-83916171D02*
X124428571Y-83916171D01*
X124599999Y-84544742D02*
X124028571Y-84544742D01*
X124028571Y-84544742D02*
X124028571Y-83344742D01*
X124028571Y-83344742D02*
X124599999Y-83344742D01*
X125057142Y-84487600D02*
X125228571Y-84544742D01*
X125228571Y-84544742D02*
X125514285Y-84544742D01*
X125514285Y-84544742D02*
X125628571Y-84487600D01*
X125628571Y-84487600D02*
X125685713Y-84430457D01*
X125685713Y-84430457D02*
X125742856Y-84316171D01*
X125742856Y-84316171D02*
X125742856Y-84201885D01*
X125742856Y-84201885D02*
X125685713Y-84087600D01*
X125685713Y-84087600D02*
X125628571Y-84030457D01*
X125628571Y-84030457D02*
X125514285Y-83973314D01*
X125514285Y-83973314D02*
X125285713Y-83916171D01*
X125285713Y-83916171D02*
X125171428Y-83859028D01*
X125171428Y-83859028D02*
X125114285Y-83801885D01*
X125114285Y-83801885D02*
X125057142Y-83687600D01*
X125057142Y-83687600D02*
X125057142Y-83573314D01*
X125057142Y-83573314D02*
X125114285Y-83459028D01*
X125114285Y-83459028D02*
X125171428Y-83401885D01*
X125171428Y-83401885D02*
X125285713Y-83344742D01*
X125285713Y-83344742D02*
X125571428Y-83344742D01*
X125571428Y-83344742D02*
X125742856Y-83401885D01*
X126257142Y-84544742D02*
X126257142Y-83344742D01*
X126257142Y-83344742D02*
X126714285Y-83344742D01*
X126714285Y-83344742D02*
X126828570Y-83401885D01*
X126828570Y-83401885D02*
X126885713Y-83459028D01*
X126885713Y-83459028D02*
X126942856Y-83573314D01*
X126942856Y-83573314D02*
X126942856Y-83744742D01*
X126942856Y-83744742D02*
X126885713Y-83859028D01*
X126885713Y-83859028D02*
X126828570Y-83916171D01*
X126828570Y-83916171D02*
X126714285Y-83973314D01*
X126714285Y-83973314D02*
X126257142Y-83973314D01*
X127342856Y-83344742D02*
X128085713Y-83344742D01*
X128085713Y-83344742D02*
X127685713Y-83801885D01*
X127685713Y-83801885D02*
X127857142Y-83801885D01*
X127857142Y-83801885D02*
X127971428Y-83859028D01*
X127971428Y-83859028D02*
X128028570Y-83916171D01*
X128028570Y-83916171D02*
X128085713Y-84030457D01*
X128085713Y-84030457D02*
X128085713Y-84316171D01*
X128085713Y-84316171D02*
X128028570Y-84430457D01*
X128028570Y-84430457D02*
X127971428Y-84487600D01*
X127971428Y-84487600D02*
X127857142Y-84544742D01*
X127857142Y-84544742D02*
X127514285Y-84544742D01*
X127514285Y-84544742D02*
X127399999Y-84487600D01*
X127399999Y-84487600D02*
X127342856Y-84430457D01*
X128542856Y-83459028D02*
X128599999Y-83401885D01*
X128599999Y-83401885D02*
X128714285Y-83344742D01*
X128714285Y-83344742D02*
X128999999Y-83344742D01*
X128999999Y-83344742D02*
X129114285Y-83401885D01*
X129114285Y-83401885D02*
X129171427Y-83459028D01*
X129171427Y-83459028D02*
X129228570Y-83573314D01*
X129228570Y-83573314D02*
X129228570Y-83687600D01*
X129228570Y-83687600D02*
X129171427Y-83859028D01*
X129171427Y-83859028D02*
X128485713Y-84544742D01*
X128485713Y-84544742D02*
X129228570Y-84544742D01*
X130657142Y-84087600D02*
X131571428Y-84087600D01*
X131114285Y-84544742D02*
X131114285Y-83630457D01*
X133057142Y-84544742D02*
X133057142Y-83344742D01*
X133057142Y-83344742D02*
X133342856Y-83344742D01*
X133342856Y-83344742D02*
X133514285Y-83401885D01*
X133514285Y-83401885D02*
X133628570Y-83516171D01*
X133628570Y-83516171D02*
X133685713Y-83630457D01*
X133685713Y-83630457D02*
X133742856Y-83859028D01*
X133742856Y-83859028D02*
X133742856Y-84030457D01*
X133742856Y-84030457D02*
X133685713Y-84259028D01*
X133685713Y-84259028D02*
X133628570Y-84373314D01*
X133628570Y-84373314D02*
X133514285Y-84487600D01*
X133514285Y-84487600D02*
X133342856Y-84544742D01*
X133342856Y-84544742D02*
X133057142Y-84544742D01*
X134142856Y-83344742D02*
X134428570Y-84544742D01*
X134428570Y-84544742D02*
X134657142Y-83687600D01*
X134657142Y-83687600D02*
X134885713Y-84544742D01*
X134885713Y-84544742D02*
X135171428Y-83344742D01*
X135628571Y-84544742D02*
X135628571Y-83344742D01*
X135628571Y-83344742D02*
X136028571Y-84201885D01*
X136028571Y-84201885D02*
X136428571Y-83344742D01*
X136428571Y-83344742D02*
X136428571Y-84544742D01*
X137628571Y-84544742D02*
X136942857Y-84544742D01*
X137285714Y-84544742D02*
X137285714Y-83344742D01*
X137285714Y-83344742D02*
X137171428Y-83516171D01*
X137171428Y-83516171D02*
X137057143Y-83630457D01*
X137057143Y-83630457D02*
X136942857Y-83687600D01*
X138371428Y-83344742D02*
X138485714Y-83344742D01*
X138485714Y-83344742D02*
X138600000Y-83401885D01*
X138600000Y-83401885D02*
X138657143Y-83459028D01*
X138657143Y-83459028D02*
X138714285Y-83573314D01*
X138714285Y-83573314D02*
X138771428Y-83801885D01*
X138771428Y-83801885D02*
X138771428Y-84087600D01*
X138771428Y-84087600D02*
X138714285Y-84316171D01*
X138714285Y-84316171D02*
X138657143Y-84430457D01*
X138657143Y-84430457D02*
X138600000Y-84487600D01*
X138600000Y-84487600D02*
X138485714Y-84544742D01*
X138485714Y-84544742D02*
X138371428Y-84544742D01*
X138371428Y-84544742D02*
X138257143Y-84487600D01*
X138257143Y-84487600D02*
X138200000Y-84430457D01*
X138200000Y-84430457D02*
X138142857Y-84316171D01*
X138142857Y-84316171D02*
X138085714Y-84087600D01*
X138085714Y-84087600D02*
X138085714Y-83801885D01*
X138085714Y-83801885D02*
X138142857Y-83573314D01*
X138142857Y-83573314D02*
X138200000Y-83459028D01*
X138200000Y-83459028D02*
X138257143Y-83401885D01*
X138257143Y-83401885D02*
X138371428Y-83344742D01*
X139514285Y-83344742D02*
X139628571Y-83344742D01*
X139628571Y-83344742D02*
X139742857Y-83401885D01*
X139742857Y-83401885D02*
X139800000Y-83459028D01*
X139800000Y-83459028D02*
X139857142Y-83573314D01*
X139857142Y-83573314D02*
X139914285Y-83801885D01*
X139914285Y-83801885D02*
X139914285Y-84087600D01*
X139914285Y-84087600D02*
X139857142Y-84316171D01*
X139857142Y-84316171D02*
X139800000Y-84430457D01*
X139800000Y-84430457D02*
X139742857Y-84487600D01*
X139742857Y-84487600D02*
X139628571Y-84544742D01*
X139628571Y-84544742D02*
X139514285Y-84544742D01*
X139514285Y-84544742D02*
X139400000Y-84487600D01*
X139400000Y-84487600D02*
X139342857Y-84430457D01*
X139342857Y-84430457D02*
X139285714Y-84316171D01*
X139285714Y-84316171D02*
X139228571Y-84087600D01*
X139228571Y-84087600D02*
X139228571Y-83801885D01*
X139228571Y-83801885D02*
X139285714Y-83573314D01*
X139285714Y-83573314D02*
X139342857Y-83459028D01*
X139342857Y-83459028D02*
X139400000Y-83401885D01*
X139400000Y-83401885D02*
X139514285Y-83344742D01*
X140657142Y-83344742D02*
X140771428Y-83344742D01*
X140771428Y-83344742D02*
X140885714Y-83401885D01*
X140885714Y-83401885D02*
X140942857Y-83459028D01*
X140942857Y-83459028D02*
X140999999Y-83573314D01*
X140999999Y-83573314D02*
X141057142Y-83801885D01*
X141057142Y-83801885D02*
X141057142Y-84087600D01*
X141057142Y-84087600D02*
X140999999Y-84316171D01*
X140999999Y-84316171D02*
X140942857Y-84430457D01*
X140942857Y-84430457D02*
X140885714Y-84487600D01*
X140885714Y-84487600D02*
X140771428Y-84544742D01*
X140771428Y-84544742D02*
X140657142Y-84544742D01*
X140657142Y-84544742D02*
X140542857Y-84487600D01*
X140542857Y-84487600D02*
X140485714Y-84430457D01*
X140485714Y-84430457D02*
X140428571Y-84316171D01*
X140428571Y-84316171D02*
X140371428Y-84087600D01*
X140371428Y-84087600D02*
X140371428Y-83801885D01*
X140371428Y-83801885D02*
X140428571Y-83573314D01*
X140428571Y-83573314D02*
X140485714Y-83459028D01*
X140485714Y-83459028D02*
X140542857Y-83401885D01*
X140542857Y-83401885D02*
X140657142Y-83344742D01*
D10*
X128313095Y-58419819D02*
X128313095Y-59229342D01*
X128313095Y-59229342D02*
X128360714Y-59324580D01*
X128360714Y-59324580D02*
X128408333Y-59372200D01*
X128408333Y-59372200D02*
X128503571Y-59419819D01*
X128503571Y-59419819D02*
X128694047Y-59419819D01*
X128694047Y-59419819D02*
X128789285Y-59372200D01*
X128789285Y-59372200D02*
X128836904Y-59324580D01*
X128836904Y-59324580D02*
X128884523Y-59229342D01*
X128884523Y-59229342D02*
X128884523Y-58419819D01*
X129789285Y-58753152D02*
X129789285Y-59419819D01*
X129551190Y-58372200D02*
X129313095Y-59086485D01*
X129313095Y-59086485D02*
X129932142Y-59086485D01*
X121784819Y-41800951D02*
X120784819Y-41800951D01*
X120784819Y-41800951D02*
X120784819Y-41562856D01*
X120784819Y-41562856D02*
X120832438Y-41419999D01*
X120832438Y-41419999D02*
X120927676Y-41324761D01*
X120927676Y-41324761D02*
X121022914Y-41277142D01*
X121022914Y-41277142D02*
X121213390Y-41229523D01*
X121213390Y-41229523D02*
X121356247Y-41229523D01*
X121356247Y-41229523D02*
X121546723Y-41277142D01*
X121546723Y-41277142D02*
X121641961Y-41324761D01*
X121641961Y-41324761D02*
X121737200Y-41419999D01*
X121737200Y-41419999D02*
X121784819Y-41562856D01*
X121784819Y-41562856D02*
X121784819Y-41800951D01*
X120784819Y-40896189D02*
X121784819Y-40658094D01*
X121784819Y-40658094D02*
X121070533Y-40467618D01*
X121070533Y-40467618D02*
X121784819Y-40277142D01*
X121784819Y-40277142D02*
X120784819Y-40039047D01*
X121784819Y-39658094D02*
X120784819Y-39658094D01*
X120784819Y-39658094D02*
X121499104Y-39324761D01*
X121499104Y-39324761D02*
X120784819Y-38991428D01*
X120784819Y-38991428D02*
X121784819Y-38991428D01*
X121784819Y-37991428D02*
X121784819Y-38562856D01*
X121784819Y-38277142D02*
X120784819Y-38277142D01*
X120784819Y-38277142D02*
X120927676Y-38372380D01*
X120927676Y-38372380D02*
X121022914Y-38467618D01*
X121022914Y-38467618D02*
X121070533Y-38562856D01*
X128833333Y-34659580D02*
X128785714Y-34707200D01*
X128785714Y-34707200D02*
X128642857Y-34754819D01*
X128642857Y-34754819D02*
X128547619Y-34754819D01*
X128547619Y-34754819D02*
X128404762Y-34707200D01*
X128404762Y-34707200D02*
X128309524Y-34611961D01*
X128309524Y-34611961D02*
X128261905Y-34516723D01*
X128261905Y-34516723D02*
X128214286Y-34326247D01*
X128214286Y-34326247D02*
X128214286Y-34183390D01*
X128214286Y-34183390D02*
X128261905Y-33992914D01*
X128261905Y-33992914D02*
X128309524Y-33897676D01*
X128309524Y-33897676D02*
X128404762Y-33802438D01*
X128404762Y-33802438D02*
X128547619Y-33754819D01*
X128547619Y-33754819D02*
X128642857Y-33754819D01*
X128642857Y-33754819D02*
X128785714Y-33802438D01*
X128785714Y-33802438D02*
X128833333Y-33850057D01*
X129214286Y-33850057D02*
X129261905Y-33802438D01*
X129261905Y-33802438D02*
X129357143Y-33754819D01*
X129357143Y-33754819D02*
X129595238Y-33754819D01*
X129595238Y-33754819D02*
X129690476Y-33802438D01*
X129690476Y-33802438D02*
X129738095Y-33850057D01*
X129738095Y-33850057D02*
X129785714Y-33945295D01*
X129785714Y-33945295D02*
X129785714Y-34040533D01*
X129785714Y-34040533D02*
X129738095Y-34183390D01*
X129738095Y-34183390D02*
X129166667Y-34754819D01*
X129166667Y-34754819D02*
X129785714Y-34754819D01*
X143738095Y-82304819D02*
X143738095Y-81304819D01*
X143738095Y-81781009D02*
X144309523Y-81781009D01*
X144309523Y-82304819D02*
X144309523Y-81304819D01*
X145214285Y-81638152D02*
X145214285Y-82304819D01*
X144976190Y-81257200D02*
X144738095Y-81971485D01*
X144738095Y-81971485D02*
X145357142Y-81971485D01*
X82238095Y-82304819D02*
X82238095Y-81304819D01*
X82238095Y-81781009D02*
X82809523Y-81781009D01*
X82809523Y-82304819D02*
X82809523Y-81304819D01*
X83190476Y-81304819D02*
X83809523Y-81304819D01*
X83809523Y-81304819D02*
X83476190Y-81685771D01*
X83476190Y-81685771D02*
X83619047Y-81685771D01*
X83619047Y-81685771D02*
X83714285Y-81733390D01*
X83714285Y-81733390D02*
X83761904Y-81781009D01*
X83761904Y-81781009D02*
X83809523Y-81876247D01*
X83809523Y-81876247D02*
X83809523Y-82114342D01*
X83809523Y-82114342D02*
X83761904Y-82209580D01*
X83761904Y-82209580D02*
X83714285Y-82257200D01*
X83714285Y-82257200D02*
X83619047Y-82304819D01*
X83619047Y-82304819D02*
X83333333Y-82304819D01*
X83333333Y-82304819D02*
X83238095Y-82257200D01*
X83238095Y-82257200D02*
X83190476Y-82209580D01*
X143738095Y-37104819D02*
X143738095Y-36104819D01*
X143738095Y-36581009D02*
X144309523Y-36581009D01*
X144309523Y-37104819D02*
X144309523Y-36104819D01*
X144738095Y-36200057D02*
X144785714Y-36152438D01*
X144785714Y-36152438D02*
X144880952Y-36104819D01*
X144880952Y-36104819D02*
X145119047Y-36104819D01*
X145119047Y-36104819D02*
X145214285Y-36152438D01*
X145214285Y-36152438D02*
X145261904Y-36200057D01*
X145261904Y-36200057D02*
X145309523Y-36295295D01*
X145309523Y-36295295D02*
X145309523Y-36390533D01*
X145309523Y-36390533D02*
X145261904Y-36533390D01*
X145261904Y-36533390D02*
X144690476Y-37104819D01*
X144690476Y-37104819D02*
X145309523Y-37104819D01*
X82238095Y-30804819D02*
X82238095Y-29804819D01*
X82238095Y-30281009D02*
X82809523Y-30281009D01*
X82809523Y-30804819D02*
X82809523Y-29804819D01*
X83809523Y-30804819D02*
X83238095Y-30804819D01*
X83523809Y-30804819D02*
X83523809Y-29804819D01*
X83523809Y-29804819D02*
X83428571Y-29947676D01*
X83428571Y-29947676D02*
X83333333Y-30042914D01*
X83333333Y-30042914D02*
X83238095Y-30090533D01*
X89883095Y-35094819D02*
X89883095Y-35904342D01*
X89883095Y-35904342D02*
X89930714Y-35999580D01*
X89930714Y-35999580D02*
X89978333Y-36047200D01*
X89978333Y-36047200D02*
X90073571Y-36094819D01*
X90073571Y-36094819D02*
X90264047Y-36094819D01*
X90264047Y-36094819D02*
X90359285Y-36047200D01*
X90359285Y-36047200D02*
X90406904Y-35999580D01*
X90406904Y-35999580D02*
X90454523Y-35904342D01*
X90454523Y-35904342D02*
X90454523Y-35094819D01*
X91454523Y-36094819D02*
X90883095Y-36094819D01*
X91168809Y-36094819D02*
X91168809Y-35094819D01*
X91168809Y-35094819D02*
X91073571Y-35237676D01*
X91073571Y-35237676D02*
X90978333Y-35332914D01*
X90978333Y-35332914D02*
X90883095Y-35380533D01*
%TO.C,U4*%
D12*
X126150000Y-81150000D02*
X126150000Y-60850000D01*
X128942500Y-60850000D02*
X141850000Y-60850000D01*
X141850000Y-60850000D02*
X141850000Y-81150000D01*
X141850000Y-81150000D02*
X128942500Y-81150000D01*
%TO.C,DWM1*%
D13*
X123550000Y-38250000D02*
X125300000Y-38250000D01*
X123550000Y-39000000D02*
X123550000Y-38250000D01*
X123550000Y-51000000D02*
X123550000Y-51750000D01*
X123550000Y-51750000D02*
X125300000Y-51750000D01*
X147050000Y-38250000D02*
X137050000Y-38250000D01*
X147050000Y-38250000D02*
X147050000Y-51750000D01*
X147050000Y-51750000D02*
X137050000Y-51750000D01*
X137050000Y-37900000D02*
X137050000Y-37400000D01*
X137550000Y-37900000D01*
X137050000Y-37900000D01*
G36*
X137550000Y-37900000D02*
G01*
X137050000Y-37900000D01*
X137050000Y-37400000D01*
X137550000Y-37900000D01*
G37*
%TO.C,C2*%
X125265000Y-34561252D02*
X125265000Y-34038748D01*
X126735000Y-34561252D02*
X126735000Y-34038748D01*
%TO.C,U1*%
D12*
X87720000Y-37525000D02*
X98789000Y-37525000D01*
X87720000Y-37525000D02*
X116230000Y-37525000D01*
X87720000Y-88475000D02*
X87720000Y-37525000D01*
X87720000Y-88475000D02*
X87720000Y-37525000D01*
X87720000Y-88475000D02*
X93090000Y-88475000D01*
X93090000Y-88475000D02*
X110780000Y-88475000D01*
X98789000Y-37525000D02*
X105500000Y-37525000D01*
X105500000Y-37525000D02*
X116230000Y-37525000D01*
X110780000Y-88475000D02*
X116230000Y-88475000D01*
X116230000Y-37525000D02*
X116230000Y-88475000D01*
X116230000Y-37525000D02*
X116230000Y-88475000D01*
X116230000Y-88475000D02*
X87720000Y-88475000D01*
D11*
X87250000Y-47485000D02*
G75*
G02*
X87050000Y-47485000I-100000J0D01*
G01*
X87050000Y-47485000D02*
G75*
G02*
X87250000Y-47485000I100000J0D01*
G01*
%TD*%
%LPC*%
D14*
%TO.C,U4*%
X139430000Y-62940000D03*
X139430000Y-79060000D03*
D15*
X127670000Y-77350000D03*
X127670000Y-64650000D03*
X127670000Y-79890000D03*
X127670000Y-67190000D03*
X127670000Y-69730000D03*
X127670000Y-62110000D03*
X127670000Y-74810000D03*
X127670000Y-72270000D03*
%TD*%
D16*
%TO.C,DWM1*%
X136098800Y-38700000D03*
X134698800Y-38700000D03*
X133298800Y-38700000D03*
X131898800Y-38700000D03*
X130498800Y-38700000D03*
X129098800Y-38700000D03*
X127698800Y-38700000D03*
X126298800Y-38700000D03*
D17*
X124003800Y-40100000D03*
X124003800Y-41500000D03*
X124003800Y-42900000D03*
X124003800Y-44300000D03*
X124003800Y-45700000D03*
X124003800Y-47100000D03*
X124003800Y-48500000D03*
X124003800Y-49900000D03*
D16*
X126300000Y-51300000D03*
X127700000Y-51300000D03*
X129098800Y-51300000D03*
X130498800Y-51300000D03*
X131898800Y-51300000D03*
X133298800Y-51300000D03*
X134698800Y-51300000D03*
X136098800Y-51300000D03*
%TD*%
D18*
%TO.C,C2*%
X126000000Y-35250000D03*
X126000000Y-33350000D03*
%TD*%
D14*
%TO.C,H4*%
X144500000Y-86000000D03*
%TD*%
%TO.C,H3*%
X83000000Y-86000000D03*
%TD*%
%TO.C,H2*%
X144500000Y-32500000D03*
%TD*%
%TO.C,H1*%
X83000000Y-34500000D03*
%TD*%
D19*
%TO.C,U1*%
X89720000Y-39525000D03*
X89720000Y-86475000D03*
X114230000Y-39525000D03*
X114230000Y-86475000D03*
D20*
X89300000Y-47485000D03*
D21*
X89300000Y-50025000D03*
X89300000Y-52565000D03*
X89300000Y-55105000D03*
X89300000Y-57645000D03*
X89300000Y-60185000D03*
X89300000Y-62725000D03*
X89300000Y-65265000D03*
X89300000Y-67805000D03*
X89300000Y-70345000D03*
X89300000Y-72885000D03*
X89300000Y-75425000D03*
X89300000Y-77965000D03*
X89300000Y-80505000D03*
X89300000Y-83045000D03*
X114700000Y-83045000D03*
X114700000Y-80505000D03*
X114700000Y-77965000D03*
X114700000Y-75425000D03*
X114700000Y-72885000D03*
X114700000Y-70345000D03*
X114700000Y-67805000D03*
X114700000Y-65265000D03*
X114700000Y-62725000D03*
X114700000Y-60185000D03*
X114700000Y-57645000D03*
X114700000Y-55105000D03*
X114700000Y-52565000D03*
X114700000Y-50025000D03*
X114700000Y-47485000D03*
%TD*%
%LPD*%
M02*
